%TF.GenerationSoftware,KiCad,Pcbnew,9.0.0*%
%TF.CreationDate,2025-08-17T09:20:06-07:00*%
%TF.ProjectId,FoxHuntAttenuator,466f7848-756e-4744-9174-74656e756174,rev?*%
%TF.SameCoordinates,Original*%
%TF.FileFunction,Legend,Top*%
%TF.FilePolarity,Positive*%
%FSLAX46Y46*%
G04 Gerber Fmt 4.6, Leading zero omitted, Abs format (unit mm)*
G04 Created by KiCad (PCBNEW 9.0.0) date 2025-08-17 09:20:06*
%MOMM*%
%LPD*%
G01*
G04 APERTURE LIST*
%ADD10C,0.300000*%
%ADD11C,0.150000*%
%ADD12C,0.100000*%
%ADD13C,0.120000*%
%ADD14C,1.600000*%
%ADD15O,1.600000X1.600000*%
%ADD16C,2.000000*%
%ADD17C,2.100000*%
%ADD18C,2.700000*%
G04 APERTURE END LIST*
D10*
X145044510Y-104085114D02*
X144544510Y-104085114D01*
X144544510Y-104870828D02*
X144544510Y-103370828D01*
X144544510Y-103370828D02*
X145258796Y-103370828D01*
X146115939Y-103370828D02*
X146401653Y-103370828D01*
X146401653Y-103370828D02*
X146544510Y-103442257D01*
X146544510Y-103442257D02*
X146687367Y-103585114D01*
X146687367Y-103585114D02*
X146758796Y-103870828D01*
X146758796Y-103870828D02*
X146758796Y-104370828D01*
X146758796Y-104370828D02*
X146687367Y-104656542D01*
X146687367Y-104656542D02*
X146544510Y-104799400D01*
X146544510Y-104799400D02*
X146401653Y-104870828D01*
X146401653Y-104870828D02*
X146115939Y-104870828D01*
X146115939Y-104870828D02*
X145973082Y-104799400D01*
X145973082Y-104799400D02*
X145830224Y-104656542D01*
X145830224Y-104656542D02*
X145758796Y-104370828D01*
X145758796Y-104370828D02*
X145758796Y-103870828D01*
X145758796Y-103870828D02*
X145830224Y-103585114D01*
X145830224Y-103585114D02*
X145973082Y-103442257D01*
X145973082Y-103442257D02*
X146115939Y-103370828D01*
X147258796Y-103370828D02*
X148258796Y-104870828D01*
X148258796Y-103370828D02*
X147258796Y-104870828D01*
X148830224Y-104870828D02*
X148830224Y-103370828D01*
X148830224Y-104085114D02*
X149687367Y-104085114D01*
X149687367Y-104870828D02*
X149687367Y-103370828D01*
X150401653Y-103370828D02*
X150401653Y-104585114D01*
X150401653Y-104585114D02*
X150473082Y-104727971D01*
X150473082Y-104727971D02*
X150544511Y-104799400D01*
X150544511Y-104799400D02*
X150687368Y-104870828D01*
X150687368Y-104870828D02*
X150973082Y-104870828D01*
X150973082Y-104870828D02*
X151115939Y-104799400D01*
X151115939Y-104799400D02*
X151187368Y-104727971D01*
X151187368Y-104727971D02*
X151258796Y-104585114D01*
X151258796Y-104585114D02*
X151258796Y-103370828D01*
X151973082Y-104870828D02*
X151973082Y-103370828D01*
X151973082Y-103370828D02*
X152830225Y-104870828D01*
X152830225Y-104870828D02*
X152830225Y-103370828D01*
X153330226Y-103370828D02*
X154187369Y-103370828D01*
X153758797Y-104870828D02*
X153758797Y-103370828D01*
X155830225Y-104870828D02*
X155830225Y-103370828D01*
X155830225Y-103370828D02*
X156401654Y-103370828D01*
X156401654Y-103370828D02*
X156544511Y-103442257D01*
X156544511Y-103442257D02*
X156615940Y-103513685D01*
X156615940Y-103513685D02*
X156687368Y-103656542D01*
X156687368Y-103656542D02*
X156687368Y-103870828D01*
X156687368Y-103870828D02*
X156615940Y-104013685D01*
X156615940Y-104013685D02*
X156544511Y-104085114D01*
X156544511Y-104085114D02*
X156401654Y-104156542D01*
X156401654Y-104156542D02*
X155830225Y-104156542D01*
X157330225Y-104870828D02*
X157330225Y-103370828D01*
X159115940Y-104442257D02*
X159830226Y-104442257D01*
X158973083Y-104870828D02*
X159473083Y-103370828D01*
X159473083Y-103370828D02*
X159973083Y-104870828D01*
X160258797Y-103370828D02*
X161115940Y-103370828D01*
X160687368Y-104870828D02*
X160687368Y-103370828D01*
X161401654Y-103370828D02*
X162258797Y-103370828D01*
X161830225Y-104870828D02*
X161830225Y-103370828D01*
X162758796Y-104085114D02*
X163258796Y-104085114D01*
X163473082Y-104870828D02*
X162758796Y-104870828D01*
X162758796Y-104870828D02*
X162758796Y-103370828D01*
X162758796Y-103370828D02*
X163473082Y-103370828D01*
X164115939Y-104870828D02*
X164115939Y-103370828D01*
X164115939Y-103370828D02*
X164973082Y-104870828D01*
X164973082Y-104870828D02*
X164973082Y-103370828D01*
X165687368Y-103370828D02*
X165687368Y-104585114D01*
X165687368Y-104585114D02*
X165758797Y-104727971D01*
X165758797Y-104727971D02*
X165830226Y-104799400D01*
X165830226Y-104799400D02*
X165973083Y-104870828D01*
X165973083Y-104870828D02*
X166258797Y-104870828D01*
X166258797Y-104870828D02*
X166401654Y-104799400D01*
X166401654Y-104799400D02*
X166473083Y-104727971D01*
X166473083Y-104727971D02*
X166544511Y-104585114D01*
X166544511Y-104585114D02*
X166544511Y-103370828D01*
X167187369Y-104442257D02*
X167901655Y-104442257D01*
X167044512Y-104870828D02*
X167544512Y-103370828D01*
X167544512Y-103370828D02*
X168044512Y-104870828D01*
X168330226Y-103370828D02*
X169187369Y-103370828D01*
X168758797Y-104870828D02*
X168758797Y-103370828D01*
X169973083Y-103370828D02*
X170258797Y-103370828D01*
X170258797Y-103370828D02*
X170401654Y-103442257D01*
X170401654Y-103442257D02*
X170544511Y-103585114D01*
X170544511Y-103585114D02*
X170615940Y-103870828D01*
X170615940Y-103870828D02*
X170615940Y-104370828D01*
X170615940Y-104370828D02*
X170544511Y-104656542D01*
X170544511Y-104656542D02*
X170401654Y-104799400D01*
X170401654Y-104799400D02*
X170258797Y-104870828D01*
X170258797Y-104870828D02*
X169973083Y-104870828D01*
X169973083Y-104870828D02*
X169830226Y-104799400D01*
X169830226Y-104799400D02*
X169687368Y-104656542D01*
X169687368Y-104656542D02*
X169615940Y-104370828D01*
X169615940Y-104370828D02*
X169615940Y-103870828D01*
X169615940Y-103870828D02*
X169687368Y-103585114D01*
X169687368Y-103585114D02*
X169830226Y-103442257D01*
X169830226Y-103442257D02*
X169973083Y-103370828D01*
X172115940Y-104870828D02*
X171615940Y-104156542D01*
X171258797Y-104870828D02*
X171258797Y-103370828D01*
X171258797Y-103370828D02*
X171830226Y-103370828D01*
X171830226Y-103370828D02*
X171973083Y-103442257D01*
X171973083Y-103442257D02*
X172044512Y-103513685D01*
X172044512Y-103513685D02*
X172115940Y-103656542D01*
X172115940Y-103656542D02*
X172115940Y-103870828D01*
X172115940Y-103870828D02*
X172044512Y-104013685D01*
X172044512Y-104013685D02*
X171973083Y-104085114D01*
X171973083Y-104085114D02*
X171830226Y-104156542D01*
X171830226Y-104156542D02*
X171258797Y-104156542D01*
X173901654Y-104870828D02*
X173901654Y-103370828D01*
X173901654Y-103370828D02*
X174758797Y-104870828D01*
X174758797Y-104870828D02*
X174758797Y-103370828D01*
X175473083Y-104085114D02*
X175973083Y-104085114D01*
X176187369Y-104870828D02*
X175473083Y-104870828D01*
X175473083Y-104870828D02*
X175473083Y-103370828D01*
X175473083Y-103370828D02*
X176187369Y-103370828D01*
X176615941Y-103370828D02*
X177473084Y-103370828D01*
X177044512Y-104870828D02*
X177044512Y-103370828D01*
X177830226Y-103370828D02*
X178187369Y-104870828D01*
X178187369Y-104870828D02*
X178473083Y-103799400D01*
X178473083Y-103799400D02*
X178758798Y-104870828D01*
X178758798Y-104870828D02*
X179115941Y-103370828D01*
X179973084Y-103370828D02*
X180258798Y-103370828D01*
X180258798Y-103370828D02*
X180401655Y-103442257D01*
X180401655Y-103442257D02*
X180544512Y-103585114D01*
X180544512Y-103585114D02*
X180615941Y-103870828D01*
X180615941Y-103870828D02*
X180615941Y-104370828D01*
X180615941Y-104370828D02*
X180544512Y-104656542D01*
X180544512Y-104656542D02*
X180401655Y-104799400D01*
X180401655Y-104799400D02*
X180258798Y-104870828D01*
X180258798Y-104870828D02*
X179973084Y-104870828D01*
X179973084Y-104870828D02*
X179830227Y-104799400D01*
X179830227Y-104799400D02*
X179687369Y-104656542D01*
X179687369Y-104656542D02*
X179615941Y-104370828D01*
X179615941Y-104370828D02*
X179615941Y-103870828D01*
X179615941Y-103870828D02*
X179687369Y-103585114D01*
X179687369Y-103585114D02*
X179830227Y-103442257D01*
X179830227Y-103442257D02*
X179973084Y-103370828D01*
X182115941Y-104870828D02*
X181615941Y-104156542D01*
X181258798Y-104870828D02*
X181258798Y-103370828D01*
X181258798Y-103370828D02*
X181830227Y-103370828D01*
X181830227Y-103370828D02*
X181973084Y-103442257D01*
X181973084Y-103442257D02*
X182044513Y-103513685D01*
X182044513Y-103513685D02*
X182115941Y-103656542D01*
X182115941Y-103656542D02*
X182115941Y-103870828D01*
X182115941Y-103870828D02*
X182044513Y-104013685D01*
X182044513Y-104013685D02*
X181973084Y-104085114D01*
X181973084Y-104085114D02*
X181830227Y-104156542D01*
X181830227Y-104156542D02*
X181258798Y-104156542D01*
X182758798Y-104870828D02*
X182758798Y-103370828D01*
X183615941Y-104870828D02*
X182973084Y-104013685D01*
X183615941Y-103370828D02*
X182758798Y-104227971D01*
X117790225Y-134110828D02*
X117933082Y-134110828D01*
X117933082Y-134110828D02*
X118075939Y-134182257D01*
X118075939Y-134182257D02*
X118147368Y-134253685D01*
X118147368Y-134253685D02*
X118218796Y-134396542D01*
X118218796Y-134396542D02*
X118290225Y-134682257D01*
X118290225Y-134682257D02*
X118290225Y-135039400D01*
X118290225Y-135039400D02*
X118218796Y-135325114D01*
X118218796Y-135325114D02*
X118147368Y-135467971D01*
X118147368Y-135467971D02*
X118075939Y-135539400D01*
X118075939Y-135539400D02*
X117933082Y-135610828D01*
X117933082Y-135610828D02*
X117790225Y-135610828D01*
X117790225Y-135610828D02*
X117647368Y-135539400D01*
X117647368Y-135539400D02*
X117575939Y-135467971D01*
X117575939Y-135467971D02*
X117504510Y-135325114D01*
X117504510Y-135325114D02*
X117433082Y-135039400D01*
X117433082Y-135039400D02*
X117433082Y-134682257D01*
X117433082Y-134682257D02*
X117504510Y-134396542D01*
X117504510Y-134396542D02*
X117575939Y-134253685D01*
X117575939Y-134253685D02*
X117647368Y-134182257D01*
X117647368Y-134182257D02*
X117790225Y-134110828D01*
X118933081Y-135039400D02*
X120075939Y-135039400D01*
X121575939Y-135610828D02*
X120718796Y-135610828D01*
X121147367Y-135610828D02*
X121147367Y-134110828D01*
X121147367Y-134110828D02*
X121004510Y-134325114D01*
X121004510Y-134325114D02*
X120861653Y-134467971D01*
X120861653Y-134467971D02*
X120718796Y-134539400D01*
X122861653Y-134610828D02*
X122861653Y-135610828D01*
X122504510Y-134039400D02*
X122147367Y-135110828D01*
X122147367Y-135110828D02*
X123075938Y-135110828D01*
X124290224Y-134610828D02*
X124290224Y-135610828D01*
X123933081Y-134039400D02*
X123575938Y-135110828D01*
X123575938Y-135110828D02*
X124504509Y-135110828D01*
X125718795Y-135610828D02*
X125718795Y-134110828D01*
X125718795Y-135539400D02*
X125575937Y-135610828D01*
X125575937Y-135610828D02*
X125290223Y-135610828D01*
X125290223Y-135610828D02*
X125147366Y-135539400D01*
X125147366Y-135539400D02*
X125075937Y-135467971D01*
X125075937Y-135467971D02*
X125004509Y-135325114D01*
X125004509Y-135325114D02*
X125004509Y-134896542D01*
X125004509Y-134896542D02*
X125075937Y-134753685D01*
X125075937Y-134753685D02*
X125147366Y-134682257D01*
X125147366Y-134682257D02*
X125290223Y-134610828D01*
X125290223Y-134610828D02*
X125575937Y-134610828D01*
X125575937Y-134610828D02*
X125718795Y-134682257D01*
X126933080Y-134825114D02*
X127147366Y-134896542D01*
X127147366Y-134896542D02*
X127218795Y-134967971D01*
X127218795Y-134967971D02*
X127290223Y-135110828D01*
X127290223Y-135110828D02*
X127290223Y-135325114D01*
X127290223Y-135325114D02*
X127218795Y-135467971D01*
X127218795Y-135467971D02*
X127147366Y-135539400D01*
X127147366Y-135539400D02*
X127004509Y-135610828D01*
X127004509Y-135610828D02*
X126433080Y-135610828D01*
X126433080Y-135610828D02*
X126433080Y-134110828D01*
X126433080Y-134110828D02*
X126933080Y-134110828D01*
X126933080Y-134110828D02*
X127075938Y-134182257D01*
X127075938Y-134182257D02*
X127147366Y-134253685D01*
X127147366Y-134253685D02*
X127218795Y-134396542D01*
X127218795Y-134396542D02*
X127218795Y-134539400D01*
X127218795Y-134539400D02*
X127147366Y-134682257D01*
X127147366Y-134682257D02*
X127075938Y-134753685D01*
X127075938Y-134753685D02*
X126933080Y-134825114D01*
X126933080Y-134825114D02*
X126433080Y-134825114D01*
X129004509Y-135182257D02*
X129718795Y-135182257D01*
X128861652Y-135610828D02*
X129361652Y-134110828D01*
X129361652Y-134110828D02*
X129861652Y-135610828D01*
X130147366Y-134610828D02*
X130718794Y-134610828D01*
X130361651Y-134110828D02*
X130361651Y-135396542D01*
X130361651Y-135396542D02*
X130433080Y-135539400D01*
X130433080Y-135539400D02*
X130575937Y-135610828D01*
X130575937Y-135610828D02*
X130718794Y-135610828D01*
X131004509Y-134610828D02*
X131575937Y-134610828D01*
X131218794Y-134110828D02*
X131218794Y-135396542D01*
X131218794Y-135396542D02*
X131290223Y-135539400D01*
X131290223Y-135539400D02*
X131433080Y-135610828D01*
X131433080Y-135610828D02*
X131575937Y-135610828D01*
X132647366Y-135539400D02*
X132504509Y-135610828D01*
X132504509Y-135610828D02*
X132218795Y-135610828D01*
X132218795Y-135610828D02*
X132075937Y-135539400D01*
X132075937Y-135539400D02*
X132004509Y-135396542D01*
X132004509Y-135396542D02*
X132004509Y-134825114D01*
X132004509Y-134825114D02*
X132075937Y-134682257D01*
X132075937Y-134682257D02*
X132218795Y-134610828D01*
X132218795Y-134610828D02*
X132504509Y-134610828D01*
X132504509Y-134610828D02*
X132647366Y-134682257D01*
X132647366Y-134682257D02*
X132718795Y-134825114D01*
X132718795Y-134825114D02*
X132718795Y-134967971D01*
X132718795Y-134967971D02*
X132004509Y-135110828D01*
X133361651Y-134610828D02*
X133361651Y-135610828D01*
X133361651Y-134753685D02*
X133433080Y-134682257D01*
X133433080Y-134682257D02*
X133575937Y-134610828D01*
X133575937Y-134610828D02*
X133790223Y-134610828D01*
X133790223Y-134610828D02*
X133933080Y-134682257D01*
X133933080Y-134682257D02*
X134004509Y-134825114D01*
X134004509Y-134825114D02*
X134004509Y-135610828D01*
X135361652Y-134610828D02*
X135361652Y-135610828D01*
X134718794Y-134610828D02*
X134718794Y-135396542D01*
X134718794Y-135396542D02*
X134790223Y-135539400D01*
X134790223Y-135539400D02*
X134933080Y-135610828D01*
X134933080Y-135610828D02*
X135147366Y-135610828D01*
X135147366Y-135610828D02*
X135290223Y-135539400D01*
X135290223Y-135539400D02*
X135361652Y-135467971D01*
X136718795Y-135610828D02*
X136718795Y-134825114D01*
X136718795Y-134825114D02*
X136647366Y-134682257D01*
X136647366Y-134682257D02*
X136504509Y-134610828D01*
X136504509Y-134610828D02*
X136218795Y-134610828D01*
X136218795Y-134610828D02*
X136075937Y-134682257D01*
X136718795Y-135539400D02*
X136575937Y-135610828D01*
X136575937Y-135610828D02*
X136218795Y-135610828D01*
X136218795Y-135610828D02*
X136075937Y-135539400D01*
X136075937Y-135539400D02*
X136004509Y-135396542D01*
X136004509Y-135396542D02*
X136004509Y-135253685D01*
X136004509Y-135253685D02*
X136075937Y-135110828D01*
X136075937Y-135110828D02*
X136218795Y-135039400D01*
X136218795Y-135039400D02*
X136575937Y-135039400D01*
X136575937Y-135039400D02*
X136718795Y-134967971D01*
X137218795Y-134610828D02*
X137790223Y-134610828D01*
X137433080Y-134110828D02*
X137433080Y-135396542D01*
X137433080Y-135396542D02*
X137504509Y-135539400D01*
X137504509Y-135539400D02*
X137647366Y-135610828D01*
X137647366Y-135610828D02*
X137790223Y-135610828D01*
X138290223Y-135610828D02*
X138290223Y-134610828D01*
X138290223Y-134110828D02*
X138218795Y-134182257D01*
X138218795Y-134182257D02*
X138290223Y-134253685D01*
X138290223Y-134253685D02*
X138361652Y-134182257D01*
X138361652Y-134182257D02*
X138290223Y-134110828D01*
X138290223Y-134110828D02*
X138290223Y-134253685D01*
X139218795Y-135610828D02*
X139075938Y-135539400D01*
X139075938Y-135539400D02*
X139004509Y-135467971D01*
X139004509Y-135467971D02*
X138933081Y-135325114D01*
X138933081Y-135325114D02*
X138933081Y-134896542D01*
X138933081Y-134896542D02*
X139004509Y-134753685D01*
X139004509Y-134753685D02*
X139075938Y-134682257D01*
X139075938Y-134682257D02*
X139218795Y-134610828D01*
X139218795Y-134610828D02*
X139433081Y-134610828D01*
X139433081Y-134610828D02*
X139575938Y-134682257D01*
X139575938Y-134682257D02*
X139647367Y-134753685D01*
X139647367Y-134753685D02*
X139718795Y-134896542D01*
X139718795Y-134896542D02*
X139718795Y-135325114D01*
X139718795Y-135325114D02*
X139647367Y-135467971D01*
X139647367Y-135467971D02*
X139575938Y-135539400D01*
X139575938Y-135539400D02*
X139433081Y-135610828D01*
X139433081Y-135610828D02*
X139218795Y-135610828D01*
X140361652Y-134610828D02*
X140361652Y-135610828D01*
X140361652Y-134753685D02*
X140433081Y-134682257D01*
X140433081Y-134682257D02*
X140575938Y-134610828D01*
X140575938Y-134610828D02*
X140790224Y-134610828D01*
X140790224Y-134610828D02*
X140933081Y-134682257D01*
X140933081Y-134682257D02*
X141004510Y-134825114D01*
X141004510Y-134825114D02*
X141004510Y-135610828D01*
X141718795Y-135467971D02*
X141790224Y-135539400D01*
X141790224Y-135539400D02*
X141718795Y-135610828D01*
X141718795Y-135610828D02*
X141647367Y-135539400D01*
X141647367Y-135539400D02*
X141718795Y-135467971D01*
X141718795Y-135467971D02*
X141718795Y-135610828D01*
X143575938Y-134825114D02*
X144075938Y-134825114D01*
X144290224Y-135610828D02*
X143575938Y-135610828D01*
X143575938Y-135610828D02*
X143575938Y-134110828D01*
X143575938Y-134110828D02*
X144290224Y-134110828D01*
X145575939Y-135610828D02*
X145575939Y-134825114D01*
X145575939Y-134825114D02*
X145504510Y-134682257D01*
X145504510Y-134682257D02*
X145361653Y-134610828D01*
X145361653Y-134610828D02*
X145075939Y-134610828D01*
X145075939Y-134610828D02*
X144933081Y-134682257D01*
X145575939Y-135539400D02*
X145433081Y-135610828D01*
X145433081Y-135610828D02*
X145075939Y-135610828D01*
X145075939Y-135610828D02*
X144933081Y-135539400D01*
X144933081Y-135539400D02*
X144861653Y-135396542D01*
X144861653Y-135396542D02*
X144861653Y-135253685D01*
X144861653Y-135253685D02*
X144933081Y-135110828D01*
X144933081Y-135110828D02*
X145075939Y-135039400D01*
X145075939Y-135039400D02*
X145433081Y-135039400D01*
X145433081Y-135039400D02*
X145575939Y-134967971D01*
X146933082Y-135539400D02*
X146790224Y-135610828D01*
X146790224Y-135610828D02*
X146504510Y-135610828D01*
X146504510Y-135610828D02*
X146361653Y-135539400D01*
X146361653Y-135539400D02*
X146290224Y-135467971D01*
X146290224Y-135467971D02*
X146218796Y-135325114D01*
X146218796Y-135325114D02*
X146218796Y-134896542D01*
X146218796Y-134896542D02*
X146290224Y-134753685D01*
X146290224Y-134753685D02*
X146361653Y-134682257D01*
X146361653Y-134682257D02*
X146504510Y-134610828D01*
X146504510Y-134610828D02*
X146790224Y-134610828D01*
X146790224Y-134610828D02*
X146933082Y-134682257D01*
X147575938Y-135610828D02*
X147575938Y-134110828D01*
X148218796Y-135610828D02*
X148218796Y-134825114D01*
X148218796Y-134825114D02*
X148147367Y-134682257D01*
X148147367Y-134682257D02*
X148004510Y-134610828D01*
X148004510Y-134610828D02*
X147790224Y-134610828D01*
X147790224Y-134610828D02*
X147647367Y-134682257D01*
X147647367Y-134682257D02*
X147575938Y-134753685D01*
X149861653Y-134610828D02*
X150433081Y-134610828D01*
X150075938Y-134110828D02*
X150075938Y-135396542D01*
X150075938Y-135396542D02*
X150147367Y-135539400D01*
X150147367Y-135539400D02*
X150290224Y-135610828D01*
X150290224Y-135610828D02*
X150433081Y-135610828D01*
X151147367Y-135610828D02*
X151004510Y-135539400D01*
X151004510Y-135539400D02*
X150933081Y-135467971D01*
X150933081Y-135467971D02*
X150861653Y-135325114D01*
X150861653Y-135325114D02*
X150861653Y-134896542D01*
X150861653Y-134896542D02*
X150933081Y-134753685D01*
X150933081Y-134753685D02*
X151004510Y-134682257D01*
X151004510Y-134682257D02*
X151147367Y-134610828D01*
X151147367Y-134610828D02*
X151361653Y-134610828D01*
X151361653Y-134610828D02*
X151504510Y-134682257D01*
X151504510Y-134682257D02*
X151575939Y-134753685D01*
X151575939Y-134753685D02*
X151647367Y-134896542D01*
X151647367Y-134896542D02*
X151647367Y-135325114D01*
X151647367Y-135325114D02*
X151575939Y-135467971D01*
X151575939Y-135467971D02*
X151504510Y-135539400D01*
X151504510Y-135539400D02*
X151361653Y-135610828D01*
X151361653Y-135610828D02*
X151147367Y-135610828D01*
X152933082Y-134610828D02*
X152933082Y-135825114D01*
X152933082Y-135825114D02*
X152861653Y-135967971D01*
X152861653Y-135967971D02*
X152790224Y-136039400D01*
X152790224Y-136039400D02*
X152647367Y-136110828D01*
X152647367Y-136110828D02*
X152433082Y-136110828D01*
X152433082Y-136110828D02*
X152290224Y-136039400D01*
X152933082Y-135539400D02*
X152790224Y-135610828D01*
X152790224Y-135610828D02*
X152504510Y-135610828D01*
X152504510Y-135610828D02*
X152361653Y-135539400D01*
X152361653Y-135539400D02*
X152290224Y-135467971D01*
X152290224Y-135467971D02*
X152218796Y-135325114D01*
X152218796Y-135325114D02*
X152218796Y-134896542D01*
X152218796Y-134896542D02*
X152290224Y-134753685D01*
X152290224Y-134753685D02*
X152361653Y-134682257D01*
X152361653Y-134682257D02*
X152504510Y-134610828D01*
X152504510Y-134610828D02*
X152790224Y-134610828D01*
X152790224Y-134610828D02*
X152933082Y-134682257D01*
X154290225Y-134610828D02*
X154290225Y-135825114D01*
X154290225Y-135825114D02*
X154218796Y-135967971D01*
X154218796Y-135967971D02*
X154147367Y-136039400D01*
X154147367Y-136039400D02*
X154004510Y-136110828D01*
X154004510Y-136110828D02*
X153790225Y-136110828D01*
X153790225Y-136110828D02*
X153647367Y-136039400D01*
X154290225Y-135539400D02*
X154147367Y-135610828D01*
X154147367Y-135610828D02*
X153861653Y-135610828D01*
X153861653Y-135610828D02*
X153718796Y-135539400D01*
X153718796Y-135539400D02*
X153647367Y-135467971D01*
X153647367Y-135467971D02*
X153575939Y-135325114D01*
X153575939Y-135325114D02*
X153575939Y-134896542D01*
X153575939Y-134896542D02*
X153647367Y-134753685D01*
X153647367Y-134753685D02*
X153718796Y-134682257D01*
X153718796Y-134682257D02*
X153861653Y-134610828D01*
X153861653Y-134610828D02*
X154147367Y-134610828D01*
X154147367Y-134610828D02*
X154290225Y-134682257D01*
X155218796Y-135610828D02*
X155075939Y-135539400D01*
X155075939Y-135539400D02*
X155004510Y-135396542D01*
X155004510Y-135396542D02*
X155004510Y-134110828D01*
X156361653Y-135539400D02*
X156218796Y-135610828D01*
X156218796Y-135610828D02*
X155933082Y-135610828D01*
X155933082Y-135610828D02*
X155790224Y-135539400D01*
X155790224Y-135539400D02*
X155718796Y-135396542D01*
X155718796Y-135396542D02*
X155718796Y-134825114D01*
X155718796Y-134825114D02*
X155790224Y-134682257D01*
X155790224Y-134682257D02*
X155933082Y-134610828D01*
X155933082Y-134610828D02*
X156218796Y-134610828D01*
X156218796Y-134610828D02*
X156361653Y-134682257D01*
X156361653Y-134682257D02*
X156433082Y-134825114D01*
X156433082Y-134825114D02*
X156433082Y-134967971D01*
X156433082Y-134967971D02*
X155718796Y-135110828D01*
X158433081Y-135610828D02*
X158290224Y-135539400D01*
X158290224Y-135539400D02*
X158218795Y-135467971D01*
X158218795Y-135467971D02*
X158147367Y-135325114D01*
X158147367Y-135325114D02*
X158147367Y-134896542D01*
X158147367Y-134896542D02*
X158218795Y-134753685D01*
X158218795Y-134753685D02*
X158290224Y-134682257D01*
X158290224Y-134682257D02*
X158433081Y-134610828D01*
X158433081Y-134610828D02*
X158647367Y-134610828D01*
X158647367Y-134610828D02*
X158790224Y-134682257D01*
X158790224Y-134682257D02*
X158861653Y-134753685D01*
X158861653Y-134753685D02*
X158933081Y-134896542D01*
X158933081Y-134896542D02*
X158933081Y-135325114D01*
X158933081Y-135325114D02*
X158861653Y-135467971D01*
X158861653Y-135467971D02*
X158790224Y-135539400D01*
X158790224Y-135539400D02*
X158647367Y-135610828D01*
X158647367Y-135610828D02*
X158433081Y-135610828D01*
X159575938Y-134610828D02*
X159575938Y-135610828D01*
X159575938Y-134753685D02*
X159647367Y-134682257D01*
X159647367Y-134682257D02*
X159790224Y-134610828D01*
X159790224Y-134610828D02*
X160004510Y-134610828D01*
X160004510Y-134610828D02*
X160147367Y-134682257D01*
X160147367Y-134682257D02*
X160218796Y-134825114D01*
X160218796Y-134825114D02*
X160218796Y-135610828D01*
X161933081Y-134610828D02*
X162218796Y-135610828D01*
X162218796Y-135610828D02*
X162504510Y-134896542D01*
X162504510Y-134896542D02*
X162790224Y-135610828D01*
X162790224Y-135610828D02*
X163075938Y-134610828D01*
X163647367Y-135610828D02*
X163647367Y-134610828D01*
X163647367Y-134110828D02*
X163575939Y-134182257D01*
X163575939Y-134182257D02*
X163647367Y-134253685D01*
X163647367Y-134253685D02*
X163718796Y-134182257D01*
X163718796Y-134182257D02*
X163647367Y-134110828D01*
X163647367Y-134110828D02*
X163647367Y-134253685D01*
X164575939Y-135610828D02*
X164433082Y-135539400D01*
X164433082Y-135539400D02*
X164361653Y-135396542D01*
X164361653Y-135396542D02*
X164361653Y-134110828D01*
X165361653Y-135610828D02*
X165218796Y-135539400D01*
X165218796Y-135539400D02*
X165147367Y-135396542D01*
X165147367Y-135396542D02*
X165147367Y-134110828D01*
X167718796Y-134610828D02*
X167718796Y-135825114D01*
X167718796Y-135825114D02*
X167647367Y-135967971D01*
X167647367Y-135967971D02*
X167575938Y-136039400D01*
X167575938Y-136039400D02*
X167433081Y-136110828D01*
X167433081Y-136110828D02*
X167218796Y-136110828D01*
X167218796Y-136110828D02*
X167075938Y-136039400D01*
X167718796Y-135539400D02*
X167575938Y-135610828D01*
X167575938Y-135610828D02*
X167290224Y-135610828D01*
X167290224Y-135610828D02*
X167147367Y-135539400D01*
X167147367Y-135539400D02*
X167075938Y-135467971D01*
X167075938Y-135467971D02*
X167004510Y-135325114D01*
X167004510Y-135325114D02*
X167004510Y-134896542D01*
X167004510Y-134896542D02*
X167075938Y-134753685D01*
X167075938Y-134753685D02*
X167147367Y-134682257D01*
X167147367Y-134682257D02*
X167290224Y-134610828D01*
X167290224Y-134610828D02*
X167575938Y-134610828D01*
X167575938Y-134610828D02*
X167718796Y-134682257D01*
X168433081Y-135610828D02*
X168433081Y-134610828D01*
X168433081Y-134110828D02*
X168361653Y-134182257D01*
X168361653Y-134182257D02*
X168433081Y-134253685D01*
X168433081Y-134253685D02*
X168504510Y-134182257D01*
X168504510Y-134182257D02*
X168433081Y-134110828D01*
X168433081Y-134110828D02*
X168433081Y-134253685D01*
X169004510Y-134610828D02*
X169361653Y-135610828D01*
X169361653Y-135610828D02*
X169718796Y-134610828D01*
X170861653Y-135539400D02*
X170718796Y-135610828D01*
X170718796Y-135610828D02*
X170433082Y-135610828D01*
X170433082Y-135610828D02*
X170290224Y-135539400D01*
X170290224Y-135539400D02*
X170218796Y-135396542D01*
X170218796Y-135396542D02*
X170218796Y-134825114D01*
X170218796Y-134825114D02*
X170290224Y-134682257D01*
X170290224Y-134682257D02*
X170433082Y-134610828D01*
X170433082Y-134610828D02*
X170718796Y-134610828D01*
X170718796Y-134610828D02*
X170861653Y-134682257D01*
X170861653Y-134682257D02*
X170933082Y-134825114D01*
X170933082Y-134825114D02*
X170933082Y-134967971D01*
X170933082Y-134967971D02*
X170218796Y-135110828D01*
X173361653Y-135610828D02*
X173361653Y-134825114D01*
X173361653Y-134825114D02*
X173290224Y-134682257D01*
X173290224Y-134682257D02*
X173147367Y-134610828D01*
X173147367Y-134610828D02*
X172861653Y-134610828D01*
X172861653Y-134610828D02*
X172718795Y-134682257D01*
X173361653Y-135539400D02*
X173218795Y-135610828D01*
X173218795Y-135610828D02*
X172861653Y-135610828D01*
X172861653Y-135610828D02*
X172718795Y-135539400D01*
X172718795Y-135539400D02*
X172647367Y-135396542D01*
X172647367Y-135396542D02*
X172647367Y-135253685D01*
X172647367Y-135253685D02*
X172718795Y-135110828D01*
X172718795Y-135110828D02*
X172861653Y-135039400D01*
X172861653Y-135039400D02*
X173218795Y-135039400D01*
X173218795Y-135039400D02*
X173361653Y-134967971D01*
X174075938Y-134610828D02*
X174075938Y-135610828D01*
X174075938Y-134753685D02*
X174147367Y-134682257D01*
X174147367Y-134682257D02*
X174290224Y-134610828D01*
X174290224Y-134610828D02*
X174504510Y-134610828D01*
X174504510Y-134610828D02*
X174647367Y-134682257D01*
X174647367Y-134682257D02*
X174718796Y-134825114D01*
X174718796Y-134825114D02*
X174718796Y-135610828D01*
X177218796Y-135610828D02*
X177218796Y-134825114D01*
X177218796Y-134825114D02*
X177147367Y-134682257D01*
X177147367Y-134682257D02*
X177004510Y-134610828D01*
X177004510Y-134610828D02*
X176718796Y-134610828D01*
X176718796Y-134610828D02*
X176575938Y-134682257D01*
X177218796Y-135539400D02*
X177075938Y-135610828D01*
X177075938Y-135610828D02*
X176718796Y-135610828D01*
X176718796Y-135610828D02*
X176575938Y-135539400D01*
X176575938Y-135539400D02*
X176504510Y-135396542D01*
X176504510Y-135396542D02*
X176504510Y-135253685D01*
X176504510Y-135253685D02*
X176575938Y-135110828D01*
X176575938Y-135110828D02*
X176718796Y-135039400D01*
X176718796Y-135039400D02*
X177075938Y-135039400D01*
X177075938Y-135039400D02*
X177218796Y-134967971D01*
X178575939Y-135610828D02*
X178575939Y-134110828D01*
X178575939Y-135539400D02*
X178433081Y-135610828D01*
X178433081Y-135610828D02*
X178147367Y-135610828D01*
X178147367Y-135610828D02*
X178004510Y-135539400D01*
X178004510Y-135539400D02*
X177933081Y-135467971D01*
X177933081Y-135467971D02*
X177861653Y-135325114D01*
X177861653Y-135325114D02*
X177861653Y-134896542D01*
X177861653Y-134896542D02*
X177933081Y-134753685D01*
X177933081Y-134753685D02*
X178004510Y-134682257D01*
X178004510Y-134682257D02*
X178147367Y-134610828D01*
X178147367Y-134610828D02*
X178433081Y-134610828D01*
X178433081Y-134610828D02*
X178575939Y-134682257D01*
X179933082Y-135610828D02*
X179933082Y-134110828D01*
X179933082Y-135539400D02*
X179790224Y-135610828D01*
X179790224Y-135610828D02*
X179504510Y-135610828D01*
X179504510Y-135610828D02*
X179361653Y-135539400D01*
X179361653Y-135539400D02*
X179290224Y-135467971D01*
X179290224Y-135467971D02*
X179218796Y-135325114D01*
X179218796Y-135325114D02*
X179218796Y-134896542D01*
X179218796Y-134896542D02*
X179290224Y-134753685D01*
X179290224Y-134753685D02*
X179361653Y-134682257D01*
X179361653Y-134682257D02*
X179504510Y-134610828D01*
X179504510Y-134610828D02*
X179790224Y-134610828D01*
X179790224Y-134610828D02*
X179933082Y-134682257D01*
X180647367Y-135610828D02*
X180647367Y-134610828D01*
X180647367Y-134110828D02*
X180575939Y-134182257D01*
X180575939Y-134182257D02*
X180647367Y-134253685D01*
X180647367Y-134253685D02*
X180718796Y-134182257D01*
X180718796Y-134182257D02*
X180647367Y-134110828D01*
X180647367Y-134110828D02*
X180647367Y-134253685D01*
X181147368Y-134610828D02*
X181718796Y-134610828D01*
X181361653Y-134110828D02*
X181361653Y-135396542D01*
X181361653Y-135396542D02*
X181433082Y-135539400D01*
X181433082Y-135539400D02*
X181575939Y-135610828D01*
X181575939Y-135610828D02*
X181718796Y-135610828D01*
X182218796Y-135610828D02*
X182218796Y-134610828D01*
X182218796Y-134110828D02*
X182147368Y-134182257D01*
X182147368Y-134182257D02*
X182218796Y-134253685D01*
X182218796Y-134253685D02*
X182290225Y-134182257D01*
X182290225Y-134182257D02*
X182218796Y-134110828D01*
X182218796Y-134110828D02*
X182218796Y-134253685D01*
X183147368Y-135610828D02*
X183004511Y-135539400D01*
X183004511Y-135539400D02*
X182933082Y-135467971D01*
X182933082Y-135467971D02*
X182861654Y-135325114D01*
X182861654Y-135325114D02*
X182861654Y-134896542D01*
X182861654Y-134896542D02*
X182933082Y-134753685D01*
X182933082Y-134753685D02*
X183004511Y-134682257D01*
X183004511Y-134682257D02*
X183147368Y-134610828D01*
X183147368Y-134610828D02*
X183361654Y-134610828D01*
X183361654Y-134610828D02*
X183504511Y-134682257D01*
X183504511Y-134682257D02*
X183575940Y-134753685D01*
X183575940Y-134753685D02*
X183647368Y-134896542D01*
X183647368Y-134896542D02*
X183647368Y-135325114D01*
X183647368Y-135325114D02*
X183575940Y-135467971D01*
X183575940Y-135467971D02*
X183504511Y-135539400D01*
X183504511Y-135539400D02*
X183361654Y-135610828D01*
X183361654Y-135610828D02*
X183147368Y-135610828D01*
X184290225Y-134610828D02*
X184290225Y-135610828D01*
X184290225Y-134753685D02*
X184361654Y-134682257D01*
X184361654Y-134682257D02*
X184504511Y-134610828D01*
X184504511Y-134610828D02*
X184718797Y-134610828D01*
X184718797Y-134610828D02*
X184861654Y-134682257D01*
X184861654Y-134682257D02*
X184933083Y-134825114D01*
X184933083Y-134825114D02*
X184933083Y-135610828D01*
X186290226Y-135610828D02*
X186290226Y-134825114D01*
X186290226Y-134825114D02*
X186218797Y-134682257D01*
X186218797Y-134682257D02*
X186075940Y-134610828D01*
X186075940Y-134610828D02*
X185790226Y-134610828D01*
X185790226Y-134610828D02*
X185647368Y-134682257D01*
X186290226Y-135539400D02*
X186147368Y-135610828D01*
X186147368Y-135610828D02*
X185790226Y-135610828D01*
X185790226Y-135610828D02*
X185647368Y-135539400D01*
X185647368Y-135539400D02*
X185575940Y-135396542D01*
X185575940Y-135396542D02*
X185575940Y-135253685D01*
X185575940Y-135253685D02*
X185647368Y-135110828D01*
X185647368Y-135110828D02*
X185790226Y-135039400D01*
X185790226Y-135039400D02*
X186147368Y-135039400D01*
X186147368Y-135039400D02*
X186290226Y-134967971D01*
X187218797Y-135610828D02*
X187075940Y-135539400D01*
X187075940Y-135539400D02*
X187004511Y-135396542D01*
X187004511Y-135396542D02*
X187004511Y-134110828D01*
X189718797Y-135610828D02*
X188861654Y-135610828D01*
X189290225Y-135610828D02*
X189290225Y-134110828D01*
X189290225Y-134110828D02*
X189147368Y-134325114D01*
X189147368Y-134325114D02*
X189004511Y-134467971D01*
X189004511Y-134467971D02*
X188861654Y-134539400D01*
X190575939Y-134753685D02*
X190433082Y-134682257D01*
X190433082Y-134682257D02*
X190361653Y-134610828D01*
X190361653Y-134610828D02*
X190290225Y-134467971D01*
X190290225Y-134467971D02*
X190290225Y-134396542D01*
X190290225Y-134396542D02*
X190361653Y-134253685D01*
X190361653Y-134253685D02*
X190433082Y-134182257D01*
X190433082Y-134182257D02*
X190575939Y-134110828D01*
X190575939Y-134110828D02*
X190861653Y-134110828D01*
X190861653Y-134110828D02*
X191004511Y-134182257D01*
X191004511Y-134182257D02*
X191075939Y-134253685D01*
X191075939Y-134253685D02*
X191147368Y-134396542D01*
X191147368Y-134396542D02*
X191147368Y-134467971D01*
X191147368Y-134467971D02*
X191075939Y-134610828D01*
X191075939Y-134610828D02*
X191004511Y-134682257D01*
X191004511Y-134682257D02*
X190861653Y-134753685D01*
X190861653Y-134753685D02*
X190575939Y-134753685D01*
X190575939Y-134753685D02*
X190433082Y-134825114D01*
X190433082Y-134825114D02*
X190361653Y-134896542D01*
X190361653Y-134896542D02*
X190290225Y-135039400D01*
X190290225Y-135039400D02*
X190290225Y-135325114D01*
X190290225Y-135325114D02*
X190361653Y-135467971D01*
X190361653Y-135467971D02*
X190433082Y-135539400D01*
X190433082Y-135539400D02*
X190575939Y-135610828D01*
X190575939Y-135610828D02*
X190861653Y-135610828D01*
X190861653Y-135610828D02*
X191004511Y-135539400D01*
X191004511Y-135539400D02*
X191075939Y-135467971D01*
X191075939Y-135467971D02*
X191147368Y-135325114D01*
X191147368Y-135325114D02*
X191147368Y-135039400D01*
X191147368Y-135039400D02*
X191075939Y-134896542D01*
X191075939Y-134896542D02*
X191004511Y-134825114D01*
X191004511Y-134825114D02*
X190861653Y-134753685D01*
X192433082Y-135610828D02*
X192433082Y-134110828D01*
X192433082Y-135539400D02*
X192290224Y-135610828D01*
X192290224Y-135610828D02*
X192004510Y-135610828D01*
X192004510Y-135610828D02*
X191861653Y-135539400D01*
X191861653Y-135539400D02*
X191790224Y-135467971D01*
X191790224Y-135467971D02*
X191718796Y-135325114D01*
X191718796Y-135325114D02*
X191718796Y-134896542D01*
X191718796Y-134896542D02*
X191790224Y-134753685D01*
X191790224Y-134753685D02*
X191861653Y-134682257D01*
X191861653Y-134682257D02*
X192004510Y-134610828D01*
X192004510Y-134610828D02*
X192290224Y-134610828D01*
X192290224Y-134610828D02*
X192433082Y-134682257D01*
X193647367Y-134825114D02*
X193861653Y-134896542D01*
X193861653Y-134896542D02*
X193933082Y-134967971D01*
X193933082Y-134967971D02*
X194004510Y-135110828D01*
X194004510Y-135110828D02*
X194004510Y-135325114D01*
X194004510Y-135325114D02*
X193933082Y-135467971D01*
X193933082Y-135467971D02*
X193861653Y-135539400D01*
X193861653Y-135539400D02*
X193718796Y-135610828D01*
X193718796Y-135610828D02*
X193147367Y-135610828D01*
X193147367Y-135610828D02*
X193147367Y-134110828D01*
X193147367Y-134110828D02*
X193647367Y-134110828D01*
X193647367Y-134110828D02*
X193790225Y-134182257D01*
X193790225Y-134182257D02*
X193861653Y-134253685D01*
X193861653Y-134253685D02*
X193933082Y-134396542D01*
X193933082Y-134396542D02*
X193933082Y-134539400D01*
X193933082Y-134539400D02*
X193861653Y-134682257D01*
X193861653Y-134682257D02*
X193790225Y-134753685D01*
X193790225Y-134753685D02*
X193647367Y-134825114D01*
X193647367Y-134825114D02*
X193147367Y-134825114D01*
X196004510Y-135610828D02*
X195861653Y-135539400D01*
X195861653Y-135539400D02*
X195790224Y-135467971D01*
X195790224Y-135467971D02*
X195718796Y-135325114D01*
X195718796Y-135325114D02*
X195718796Y-134896542D01*
X195718796Y-134896542D02*
X195790224Y-134753685D01*
X195790224Y-134753685D02*
X195861653Y-134682257D01*
X195861653Y-134682257D02*
X196004510Y-134610828D01*
X196004510Y-134610828D02*
X196218796Y-134610828D01*
X196218796Y-134610828D02*
X196361653Y-134682257D01*
X196361653Y-134682257D02*
X196433082Y-134753685D01*
X196433082Y-134753685D02*
X196504510Y-134896542D01*
X196504510Y-134896542D02*
X196504510Y-135325114D01*
X196504510Y-135325114D02*
X196433082Y-135467971D01*
X196433082Y-135467971D02*
X196361653Y-135539400D01*
X196361653Y-135539400D02*
X196218796Y-135610828D01*
X196218796Y-135610828D02*
X196004510Y-135610828D01*
X196933082Y-134610828D02*
X197504510Y-134610828D01*
X197147367Y-135610828D02*
X197147367Y-134325114D01*
X197147367Y-134325114D02*
X197218796Y-134182257D01*
X197218796Y-134182257D02*
X197361653Y-134110828D01*
X197361653Y-134110828D02*
X197504510Y-134110828D01*
X199790225Y-135610828D02*
X199790225Y-134825114D01*
X199790225Y-134825114D02*
X199718796Y-134682257D01*
X199718796Y-134682257D02*
X199575939Y-134610828D01*
X199575939Y-134610828D02*
X199290225Y-134610828D01*
X199290225Y-134610828D02*
X199147367Y-134682257D01*
X199790225Y-135539400D02*
X199647367Y-135610828D01*
X199647367Y-135610828D02*
X199290225Y-135610828D01*
X199290225Y-135610828D02*
X199147367Y-135539400D01*
X199147367Y-135539400D02*
X199075939Y-135396542D01*
X199075939Y-135396542D02*
X199075939Y-135253685D01*
X199075939Y-135253685D02*
X199147367Y-135110828D01*
X199147367Y-135110828D02*
X199290225Y-135039400D01*
X199290225Y-135039400D02*
X199647367Y-135039400D01*
X199647367Y-135039400D02*
X199790225Y-134967971D01*
X200290225Y-134610828D02*
X200861653Y-134610828D01*
X200504510Y-134110828D02*
X200504510Y-135396542D01*
X200504510Y-135396542D02*
X200575939Y-135539400D01*
X200575939Y-135539400D02*
X200718796Y-135610828D01*
X200718796Y-135610828D02*
X200861653Y-135610828D01*
X201147368Y-134610828D02*
X201718796Y-134610828D01*
X201361653Y-134110828D02*
X201361653Y-135396542D01*
X201361653Y-135396542D02*
X201433082Y-135539400D01*
X201433082Y-135539400D02*
X201575939Y-135610828D01*
X201575939Y-135610828D02*
X201718796Y-135610828D01*
X202790225Y-135539400D02*
X202647368Y-135610828D01*
X202647368Y-135610828D02*
X202361654Y-135610828D01*
X202361654Y-135610828D02*
X202218796Y-135539400D01*
X202218796Y-135539400D02*
X202147368Y-135396542D01*
X202147368Y-135396542D02*
X202147368Y-134825114D01*
X202147368Y-134825114D02*
X202218796Y-134682257D01*
X202218796Y-134682257D02*
X202361654Y-134610828D01*
X202361654Y-134610828D02*
X202647368Y-134610828D01*
X202647368Y-134610828D02*
X202790225Y-134682257D01*
X202790225Y-134682257D02*
X202861654Y-134825114D01*
X202861654Y-134825114D02*
X202861654Y-134967971D01*
X202861654Y-134967971D02*
X202147368Y-135110828D01*
X203504510Y-134610828D02*
X203504510Y-135610828D01*
X203504510Y-134753685D02*
X203575939Y-134682257D01*
X203575939Y-134682257D02*
X203718796Y-134610828D01*
X203718796Y-134610828D02*
X203933082Y-134610828D01*
X203933082Y-134610828D02*
X204075939Y-134682257D01*
X204075939Y-134682257D02*
X204147368Y-134825114D01*
X204147368Y-134825114D02*
X204147368Y-135610828D01*
X205504511Y-134610828D02*
X205504511Y-135610828D01*
X204861653Y-134610828D02*
X204861653Y-135396542D01*
X204861653Y-135396542D02*
X204933082Y-135539400D01*
X204933082Y-135539400D02*
X205075939Y-135610828D01*
X205075939Y-135610828D02*
X205290225Y-135610828D01*
X205290225Y-135610828D02*
X205433082Y-135539400D01*
X205433082Y-135539400D02*
X205504511Y-135467971D01*
X206861654Y-135610828D02*
X206861654Y-134825114D01*
X206861654Y-134825114D02*
X206790225Y-134682257D01*
X206790225Y-134682257D02*
X206647368Y-134610828D01*
X206647368Y-134610828D02*
X206361654Y-134610828D01*
X206361654Y-134610828D02*
X206218796Y-134682257D01*
X206861654Y-135539400D02*
X206718796Y-135610828D01*
X206718796Y-135610828D02*
X206361654Y-135610828D01*
X206361654Y-135610828D02*
X206218796Y-135539400D01*
X206218796Y-135539400D02*
X206147368Y-135396542D01*
X206147368Y-135396542D02*
X206147368Y-135253685D01*
X206147368Y-135253685D02*
X206218796Y-135110828D01*
X206218796Y-135110828D02*
X206361654Y-135039400D01*
X206361654Y-135039400D02*
X206718796Y-135039400D01*
X206718796Y-135039400D02*
X206861654Y-134967971D01*
X207361654Y-134610828D02*
X207933082Y-134610828D01*
X207575939Y-134110828D02*
X207575939Y-135396542D01*
X207575939Y-135396542D02*
X207647368Y-135539400D01*
X207647368Y-135539400D02*
X207790225Y-135610828D01*
X207790225Y-135610828D02*
X207933082Y-135610828D01*
X208433082Y-135610828D02*
X208433082Y-134610828D01*
X208433082Y-134110828D02*
X208361654Y-134182257D01*
X208361654Y-134182257D02*
X208433082Y-134253685D01*
X208433082Y-134253685D02*
X208504511Y-134182257D01*
X208504511Y-134182257D02*
X208433082Y-134110828D01*
X208433082Y-134110828D02*
X208433082Y-134253685D01*
X209361654Y-135610828D02*
X209218797Y-135539400D01*
X209218797Y-135539400D02*
X209147368Y-135467971D01*
X209147368Y-135467971D02*
X209075940Y-135325114D01*
X209075940Y-135325114D02*
X209075940Y-134896542D01*
X209075940Y-134896542D02*
X209147368Y-134753685D01*
X209147368Y-134753685D02*
X209218797Y-134682257D01*
X209218797Y-134682257D02*
X209361654Y-134610828D01*
X209361654Y-134610828D02*
X209575940Y-134610828D01*
X209575940Y-134610828D02*
X209718797Y-134682257D01*
X209718797Y-134682257D02*
X209790226Y-134753685D01*
X209790226Y-134753685D02*
X209861654Y-134896542D01*
X209861654Y-134896542D02*
X209861654Y-135325114D01*
X209861654Y-135325114D02*
X209790226Y-135467971D01*
X209790226Y-135467971D02*
X209718797Y-135539400D01*
X209718797Y-135539400D02*
X209575940Y-135610828D01*
X209575940Y-135610828D02*
X209361654Y-135610828D01*
X210504511Y-134610828D02*
X210504511Y-135610828D01*
X210504511Y-134753685D02*
X210575940Y-134682257D01*
X210575940Y-134682257D02*
X210718797Y-134610828D01*
X210718797Y-134610828D02*
X210933083Y-134610828D01*
X210933083Y-134610828D02*
X211075940Y-134682257D01*
X211075940Y-134682257D02*
X211147369Y-134825114D01*
X211147369Y-134825114D02*
X211147369Y-135610828D01*
X211861654Y-135467971D02*
X211933083Y-135539400D01*
X211933083Y-135539400D02*
X211861654Y-135610828D01*
X211861654Y-135610828D02*
X211790226Y-135539400D01*
X211790226Y-135539400D02*
X211861654Y-135467971D01*
X211861654Y-135467971D02*
X211861654Y-135610828D01*
D11*
X97623333Y-127708819D02*
X97290000Y-127232628D01*
X97051905Y-127708819D02*
X97051905Y-126708819D01*
X97051905Y-126708819D02*
X97432857Y-126708819D01*
X97432857Y-126708819D02*
X97528095Y-126756438D01*
X97528095Y-126756438D02*
X97575714Y-126804057D01*
X97575714Y-126804057D02*
X97623333Y-126899295D01*
X97623333Y-126899295D02*
X97623333Y-127042152D01*
X97623333Y-127042152D02*
X97575714Y-127137390D01*
X97575714Y-127137390D02*
X97528095Y-127185009D01*
X97528095Y-127185009D02*
X97432857Y-127232628D01*
X97432857Y-127232628D02*
X97051905Y-127232628D01*
X98575714Y-127708819D02*
X98004286Y-127708819D01*
X98290000Y-127708819D02*
X98290000Y-126708819D01*
X98290000Y-126708819D02*
X98194762Y-126851676D01*
X98194762Y-126851676D02*
X98099524Y-126946914D01*
X98099524Y-126946914D02*
X98004286Y-126994533D01*
X219321142Y-112468819D02*
X218987809Y-111992628D01*
X218749714Y-112468819D02*
X218749714Y-111468819D01*
X218749714Y-111468819D02*
X219130666Y-111468819D01*
X219130666Y-111468819D02*
X219225904Y-111516438D01*
X219225904Y-111516438D02*
X219273523Y-111564057D01*
X219273523Y-111564057D02*
X219321142Y-111659295D01*
X219321142Y-111659295D02*
X219321142Y-111802152D01*
X219321142Y-111802152D02*
X219273523Y-111897390D01*
X219273523Y-111897390D02*
X219225904Y-111945009D01*
X219225904Y-111945009D02*
X219130666Y-111992628D01*
X219130666Y-111992628D02*
X218749714Y-111992628D01*
X219702095Y-111564057D02*
X219749714Y-111516438D01*
X219749714Y-111516438D02*
X219844952Y-111468819D01*
X219844952Y-111468819D02*
X220083047Y-111468819D01*
X220083047Y-111468819D02*
X220178285Y-111516438D01*
X220178285Y-111516438D02*
X220225904Y-111564057D01*
X220225904Y-111564057D02*
X220273523Y-111659295D01*
X220273523Y-111659295D02*
X220273523Y-111754533D01*
X220273523Y-111754533D02*
X220225904Y-111897390D01*
X220225904Y-111897390D02*
X219654476Y-112468819D01*
X219654476Y-112468819D02*
X220273523Y-112468819D01*
X220606857Y-111468819D02*
X221225904Y-111468819D01*
X221225904Y-111468819D02*
X220892571Y-111849771D01*
X220892571Y-111849771D02*
X221035428Y-111849771D01*
X221035428Y-111849771D02*
X221130666Y-111897390D01*
X221130666Y-111897390D02*
X221178285Y-111945009D01*
X221178285Y-111945009D02*
X221225904Y-112040247D01*
X221225904Y-112040247D02*
X221225904Y-112278342D01*
X221225904Y-112278342D02*
X221178285Y-112373580D01*
X221178285Y-112373580D02*
X221130666Y-112421200D01*
X221130666Y-112421200D02*
X221035428Y-112468819D01*
X221035428Y-112468819D02*
X220749714Y-112468819D01*
X220749714Y-112468819D02*
X220654476Y-112421200D01*
X220654476Y-112421200D02*
X220606857Y-112373580D01*
X209923142Y-127454819D02*
X209589809Y-126978628D01*
X209351714Y-127454819D02*
X209351714Y-126454819D01*
X209351714Y-126454819D02*
X209732666Y-126454819D01*
X209732666Y-126454819D02*
X209827904Y-126502438D01*
X209827904Y-126502438D02*
X209875523Y-126550057D01*
X209875523Y-126550057D02*
X209923142Y-126645295D01*
X209923142Y-126645295D02*
X209923142Y-126788152D01*
X209923142Y-126788152D02*
X209875523Y-126883390D01*
X209875523Y-126883390D02*
X209827904Y-126931009D01*
X209827904Y-126931009D02*
X209732666Y-126978628D01*
X209732666Y-126978628D02*
X209351714Y-126978628D01*
X210875523Y-127454819D02*
X210304095Y-127454819D01*
X210589809Y-127454819D02*
X210589809Y-126454819D01*
X210589809Y-126454819D02*
X210494571Y-126597676D01*
X210494571Y-126597676D02*
X210399333Y-126692914D01*
X210399333Y-126692914D02*
X210304095Y-126740533D01*
X211351714Y-127454819D02*
X211542190Y-127454819D01*
X211542190Y-127454819D02*
X211637428Y-127407200D01*
X211637428Y-127407200D02*
X211685047Y-127359580D01*
X211685047Y-127359580D02*
X211780285Y-127216723D01*
X211780285Y-127216723D02*
X211827904Y-127026247D01*
X211827904Y-127026247D02*
X211827904Y-126645295D01*
X211827904Y-126645295D02*
X211780285Y-126550057D01*
X211780285Y-126550057D02*
X211732666Y-126502438D01*
X211732666Y-126502438D02*
X211637428Y-126454819D01*
X211637428Y-126454819D02*
X211446952Y-126454819D01*
X211446952Y-126454819D02*
X211351714Y-126502438D01*
X211351714Y-126502438D02*
X211304095Y-126550057D01*
X211304095Y-126550057D02*
X211256476Y-126645295D01*
X211256476Y-126645295D02*
X211256476Y-126883390D01*
X211256476Y-126883390D02*
X211304095Y-126978628D01*
X211304095Y-126978628D02*
X211351714Y-127026247D01*
X211351714Y-127026247D02*
X211446952Y-127073866D01*
X211446952Y-127073866D02*
X211637428Y-127073866D01*
X211637428Y-127073866D02*
X211732666Y-127026247D01*
X211732666Y-127026247D02*
X211780285Y-126978628D01*
X211780285Y-126978628D02*
X211827904Y-126883390D01*
X210037142Y-108724819D02*
X209703809Y-108248628D01*
X209465714Y-108724819D02*
X209465714Y-107724819D01*
X209465714Y-107724819D02*
X209846666Y-107724819D01*
X209846666Y-107724819D02*
X209941904Y-107772438D01*
X209941904Y-107772438D02*
X209989523Y-107820057D01*
X209989523Y-107820057D02*
X210037142Y-107915295D01*
X210037142Y-107915295D02*
X210037142Y-108058152D01*
X210037142Y-108058152D02*
X209989523Y-108153390D01*
X209989523Y-108153390D02*
X209941904Y-108201009D01*
X209941904Y-108201009D02*
X209846666Y-108248628D01*
X209846666Y-108248628D02*
X209465714Y-108248628D01*
X210418095Y-107820057D02*
X210465714Y-107772438D01*
X210465714Y-107772438D02*
X210560952Y-107724819D01*
X210560952Y-107724819D02*
X210799047Y-107724819D01*
X210799047Y-107724819D02*
X210894285Y-107772438D01*
X210894285Y-107772438D02*
X210941904Y-107820057D01*
X210941904Y-107820057D02*
X210989523Y-107915295D01*
X210989523Y-107915295D02*
X210989523Y-108010533D01*
X210989523Y-108010533D02*
X210941904Y-108153390D01*
X210941904Y-108153390D02*
X210370476Y-108724819D01*
X210370476Y-108724819D02*
X210989523Y-108724819D01*
X211941904Y-108724819D02*
X211370476Y-108724819D01*
X211656190Y-108724819D02*
X211656190Y-107724819D01*
X211656190Y-107724819D02*
X211560952Y-107867676D01*
X211560952Y-107867676D02*
X211465714Y-107962914D01*
X211465714Y-107962914D02*
X211370476Y-108010533D01*
X181729142Y-112468819D02*
X181395809Y-111992628D01*
X181157714Y-112468819D02*
X181157714Y-111468819D01*
X181157714Y-111468819D02*
X181538666Y-111468819D01*
X181538666Y-111468819D02*
X181633904Y-111516438D01*
X181633904Y-111516438D02*
X181681523Y-111564057D01*
X181681523Y-111564057D02*
X181729142Y-111659295D01*
X181729142Y-111659295D02*
X181729142Y-111802152D01*
X181729142Y-111802152D02*
X181681523Y-111897390D01*
X181681523Y-111897390D02*
X181633904Y-111945009D01*
X181633904Y-111945009D02*
X181538666Y-111992628D01*
X181538666Y-111992628D02*
X181157714Y-111992628D01*
X182681523Y-112468819D02*
X182110095Y-112468819D01*
X182395809Y-112468819D02*
X182395809Y-111468819D01*
X182395809Y-111468819D02*
X182300571Y-111611676D01*
X182300571Y-111611676D02*
X182205333Y-111706914D01*
X182205333Y-111706914D02*
X182110095Y-111754533D01*
X183014857Y-111468819D02*
X183681523Y-111468819D01*
X183681523Y-111468819D02*
X183252952Y-112468819D01*
X97703333Y-108654819D02*
X97370000Y-108178628D01*
X97131905Y-108654819D02*
X97131905Y-107654819D01*
X97131905Y-107654819D02*
X97512857Y-107654819D01*
X97512857Y-107654819D02*
X97608095Y-107702438D01*
X97608095Y-107702438D02*
X97655714Y-107750057D01*
X97655714Y-107750057D02*
X97703333Y-107845295D01*
X97703333Y-107845295D02*
X97703333Y-107988152D01*
X97703333Y-107988152D02*
X97655714Y-108083390D01*
X97655714Y-108083390D02*
X97608095Y-108131009D01*
X97608095Y-108131009D02*
X97512857Y-108178628D01*
X97512857Y-108178628D02*
X97131905Y-108178628D01*
X98036667Y-107654819D02*
X98655714Y-107654819D01*
X98655714Y-107654819D02*
X98322381Y-108035771D01*
X98322381Y-108035771D02*
X98465238Y-108035771D01*
X98465238Y-108035771D02*
X98560476Y-108083390D01*
X98560476Y-108083390D02*
X98608095Y-108131009D01*
X98608095Y-108131009D02*
X98655714Y-108226247D01*
X98655714Y-108226247D02*
X98655714Y-108464342D01*
X98655714Y-108464342D02*
X98608095Y-108559580D01*
X98608095Y-108559580D02*
X98560476Y-108607200D01*
X98560476Y-108607200D02*
X98465238Y-108654819D01*
X98465238Y-108654819D02*
X98179524Y-108654819D01*
X98179524Y-108654819D02*
X98084286Y-108607200D01*
X98084286Y-108607200D02*
X98036667Y-108559580D01*
D12*
X77136666Y-111471419D02*
X77136666Y-112185704D01*
X77136666Y-112185704D02*
X77089047Y-112328561D01*
X77089047Y-112328561D02*
X76993809Y-112423800D01*
X76993809Y-112423800D02*
X76850952Y-112471419D01*
X76850952Y-112471419D02*
X76755714Y-112471419D01*
X78136666Y-112471419D02*
X77565238Y-112471419D01*
X77850952Y-112471419D02*
X77850952Y-111471419D01*
X77850952Y-111471419D02*
X77755714Y-111614276D01*
X77755714Y-111614276D02*
X77660476Y-111709514D01*
X77660476Y-111709514D02*
X77565238Y-111757133D01*
D11*
X144167142Y-112424819D02*
X143833809Y-111948628D01*
X143595714Y-112424819D02*
X143595714Y-111424819D01*
X143595714Y-111424819D02*
X143976666Y-111424819D01*
X143976666Y-111424819D02*
X144071904Y-111472438D01*
X144071904Y-111472438D02*
X144119523Y-111520057D01*
X144119523Y-111520057D02*
X144167142Y-111615295D01*
X144167142Y-111615295D02*
X144167142Y-111758152D01*
X144167142Y-111758152D02*
X144119523Y-111853390D01*
X144119523Y-111853390D02*
X144071904Y-111901009D01*
X144071904Y-111901009D02*
X143976666Y-111948628D01*
X143976666Y-111948628D02*
X143595714Y-111948628D01*
X145119523Y-112424819D02*
X144548095Y-112424819D01*
X144833809Y-112424819D02*
X144833809Y-111424819D01*
X144833809Y-111424819D02*
X144738571Y-111567676D01*
X144738571Y-111567676D02*
X144643333Y-111662914D01*
X144643333Y-111662914D02*
X144548095Y-111710533D01*
X146071904Y-112424819D02*
X145500476Y-112424819D01*
X145786190Y-112424819D02*
X145786190Y-111424819D01*
X145786190Y-111424819D02*
X145690952Y-111567676D01*
X145690952Y-111567676D02*
X145595714Y-111662914D01*
X145595714Y-111662914D02*
X145500476Y-111710533D01*
D12*
X153098667Y-116233800D02*
X153241524Y-116281419D01*
X153241524Y-116281419D02*
X153479619Y-116281419D01*
X153479619Y-116281419D02*
X153574857Y-116233800D01*
X153574857Y-116233800D02*
X153622476Y-116186180D01*
X153622476Y-116186180D02*
X153670095Y-116090942D01*
X153670095Y-116090942D02*
X153670095Y-115995704D01*
X153670095Y-115995704D02*
X153622476Y-115900466D01*
X153622476Y-115900466D02*
X153574857Y-115852847D01*
X153574857Y-115852847D02*
X153479619Y-115805228D01*
X153479619Y-115805228D02*
X153289143Y-115757609D01*
X153289143Y-115757609D02*
X153193905Y-115709990D01*
X153193905Y-115709990D02*
X153146286Y-115662371D01*
X153146286Y-115662371D02*
X153098667Y-115567133D01*
X153098667Y-115567133D02*
X153098667Y-115471895D01*
X153098667Y-115471895D02*
X153146286Y-115376657D01*
X153146286Y-115376657D02*
X153193905Y-115329038D01*
X153193905Y-115329038D02*
X153289143Y-115281419D01*
X153289143Y-115281419D02*
X153527238Y-115281419D01*
X153527238Y-115281419D02*
X153670095Y-115329038D01*
X154003429Y-115281419D02*
X154241524Y-116281419D01*
X154241524Y-116281419D02*
X154432000Y-115567133D01*
X154432000Y-115567133D02*
X154622476Y-116281419D01*
X154622476Y-116281419D02*
X154860572Y-115281419D01*
X155670095Y-115614752D02*
X155670095Y-116281419D01*
X155432000Y-115233800D02*
X155193905Y-115948085D01*
X155193905Y-115948085D02*
X155812952Y-115948085D01*
X157726360Y-123132419D02*
X157916836Y-123132419D01*
X157916836Y-123132419D02*
X158012074Y-123180038D01*
X158012074Y-123180038D02*
X158107312Y-123275276D01*
X158107312Y-123275276D02*
X158154931Y-123465752D01*
X158154931Y-123465752D02*
X158154931Y-123799085D01*
X158154931Y-123799085D02*
X158107312Y-123989561D01*
X158107312Y-123989561D02*
X158012074Y-124084800D01*
X158012074Y-124084800D02*
X157916836Y-124132419D01*
X157916836Y-124132419D02*
X157726360Y-124132419D01*
X157726360Y-124132419D02*
X157631122Y-124084800D01*
X157631122Y-124084800D02*
X157535884Y-123989561D01*
X157535884Y-123989561D02*
X157488265Y-123799085D01*
X157488265Y-123799085D02*
X157488265Y-123465752D01*
X157488265Y-123465752D02*
X157535884Y-123275276D01*
X157535884Y-123275276D02*
X157631122Y-123180038D01*
X157631122Y-123180038D02*
X157726360Y-123132419D01*
X158583503Y-124132419D02*
X158583503Y-123132419D01*
X158583503Y-123132419D02*
X159154931Y-124132419D01*
X159154931Y-124132419D02*
X159154931Y-123132419D01*
X157736360Y-118042419D02*
X157926836Y-118042419D01*
X157926836Y-118042419D02*
X158022074Y-118090038D01*
X158022074Y-118090038D02*
X158117312Y-118185276D01*
X158117312Y-118185276D02*
X158164931Y-118375752D01*
X158164931Y-118375752D02*
X158164931Y-118709085D01*
X158164931Y-118709085D02*
X158117312Y-118899561D01*
X158117312Y-118899561D02*
X158022074Y-118994800D01*
X158022074Y-118994800D02*
X157926836Y-119042419D01*
X157926836Y-119042419D02*
X157736360Y-119042419D01*
X157736360Y-119042419D02*
X157641122Y-118994800D01*
X157641122Y-118994800D02*
X157545884Y-118899561D01*
X157545884Y-118899561D02*
X157498265Y-118709085D01*
X157498265Y-118709085D02*
X157498265Y-118375752D01*
X157498265Y-118375752D02*
X157545884Y-118185276D01*
X157545884Y-118185276D02*
X157641122Y-118090038D01*
X157641122Y-118090038D02*
X157736360Y-118042419D01*
X158926836Y-118518609D02*
X158593503Y-118518609D01*
X158593503Y-119042419D02*
X158593503Y-118042419D01*
X158593503Y-118042419D02*
X159069693Y-118042419D01*
X159783979Y-118518609D02*
X159450646Y-118518609D01*
X159450646Y-119042419D02*
X159450646Y-118042419D01*
X159450646Y-118042419D02*
X159926836Y-118042419D01*
D11*
X191127142Y-127454819D02*
X190793809Y-126978628D01*
X190555714Y-127454819D02*
X190555714Y-126454819D01*
X190555714Y-126454819D02*
X190936666Y-126454819D01*
X190936666Y-126454819D02*
X191031904Y-126502438D01*
X191031904Y-126502438D02*
X191079523Y-126550057D01*
X191079523Y-126550057D02*
X191127142Y-126645295D01*
X191127142Y-126645295D02*
X191127142Y-126788152D01*
X191127142Y-126788152D02*
X191079523Y-126883390D01*
X191079523Y-126883390D02*
X191031904Y-126931009D01*
X191031904Y-126931009D02*
X190936666Y-126978628D01*
X190936666Y-126978628D02*
X190555714Y-126978628D01*
X192079523Y-127454819D02*
X191508095Y-127454819D01*
X191793809Y-127454819D02*
X191793809Y-126454819D01*
X191793809Y-126454819D02*
X191698571Y-126597676D01*
X191698571Y-126597676D02*
X191603333Y-126692914D01*
X191603333Y-126692914D02*
X191508095Y-126740533D01*
X192936666Y-126454819D02*
X192746190Y-126454819D01*
X192746190Y-126454819D02*
X192650952Y-126502438D01*
X192650952Y-126502438D02*
X192603333Y-126550057D01*
X192603333Y-126550057D02*
X192508095Y-126692914D01*
X192508095Y-126692914D02*
X192460476Y-126883390D01*
X192460476Y-126883390D02*
X192460476Y-127264342D01*
X192460476Y-127264342D02*
X192508095Y-127359580D01*
X192508095Y-127359580D02*
X192555714Y-127407200D01*
X192555714Y-127407200D02*
X192650952Y-127454819D01*
X192650952Y-127454819D02*
X192841428Y-127454819D01*
X192841428Y-127454819D02*
X192936666Y-127407200D01*
X192936666Y-127407200D02*
X192984285Y-127359580D01*
X192984285Y-127359580D02*
X193031904Y-127264342D01*
X193031904Y-127264342D02*
X193031904Y-127026247D01*
X193031904Y-127026247D02*
X192984285Y-126931009D01*
X192984285Y-126931009D02*
X192936666Y-126883390D01*
X192936666Y-126883390D02*
X192841428Y-126835771D01*
X192841428Y-126835771D02*
X192650952Y-126835771D01*
X192650952Y-126835771D02*
X192555714Y-126883390D01*
X192555714Y-126883390D02*
X192508095Y-126931009D01*
X192508095Y-126931009D02*
X192460476Y-127026247D01*
D12*
X171640667Y-116233800D02*
X171783524Y-116281419D01*
X171783524Y-116281419D02*
X172021619Y-116281419D01*
X172021619Y-116281419D02*
X172116857Y-116233800D01*
X172116857Y-116233800D02*
X172164476Y-116186180D01*
X172164476Y-116186180D02*
X172212095Y-116090942D01*
X172212095Y-116090942D02*
X172212095Y-115995704D01*
X172212095Y-115995704D02*
X172164476Y-115900466D01*
X172164476Y-115900466D02*
X172116857Y-115852847D01*
X172116857Y-115852847D02*
X172021619Y-115805228D01*
X172021619Y-115805228D02*
X171831143Y-115757609D01*
X171831143Y-115757609D02*
X171735905Y-115709990D01*
X171735905Y-115709990D02*
X171688286Y-115662371D01*
X171688286Y-115662371D02*
X171640667Y-115567133D01*
X171640667Y-115567133D02*
X171640667Y-115471895D01*
X171640667Y-115471895D02*
X171688286Y-115376657D01*
X171688286Y-115376657D02*
X171735905Y-115329038D01*
X171735905Y-115329038D02*
X171831143Y-115281419D01*
X171831143Y-115281419D02*
X172069238Y-115281419D01*
X172069238Y-115281419D02*
X172212095Y-115329038D01*
X172545429Y-115281419D02*
X172783524Y-116281419D01*
X172783524Y-116281419D02*
X172974000Y-115567133D01*
X172974000Y-115567133D02*
X173164476Y-116281419D01*
X173164476Y-116281419D02*
X173402572Y-115281419D01*
X174259714Y-115281419D02*
X173783524Y-115281419D01*
X173783524Y-115281419D02*
X173735905Y-115757609D01*
X173735905Y-115757609D02*
X173783524Y-115709990D01*
X173783524Y-115709990D02*
X173878762Y-115662371D01*
X173878762Y-115662371D02*
X174116857Y-115662371D01*
X174116857Y-115662371D02*
X174212095Y-115709990D01*
X174212095Y-115709990D02*
X174259714Y-115757609D01*
X174259714Y-115757609D02*
X174307333Y-115852847D01*
X174307333Y-115852847D02*
X174307333Y-116090942D01*
X174307333Y-116090942D02*
X174259714Y-116186180D01*
X174259714Y-116186180D02*
X174212095Y-116233800D01*
X174212095Y-116233800D02*
X174116857Y-116281419D01*
X174116857Y-116281419D02*
X173878762Y-116281419D01*
X173878762Y-116281419D02*
X173783524Y-116233800D01*
X173783524Y-116233800D02*
X173735905Y-116186180D01*
X176378360Y-117976419D02*
X176568836Y-117976419D01*
X176568836Y-117976419D02*
X176664074Y-118024038D01*
X176664074Y-118024038D02*
X176759312Y-118119276D01*
X176759312Y-118119276D02*
X176806931Y-118309752D01*
X176806931Y-118309752D02*
X176806931Y-118643085D01*
X176806931Y-118643085D02*
X176759312Y-118833561D01*
X176759312Y-118833561D02*
X176664074Y-118928800D01*
X176664074Y-118928800D02*
X176568836Y-118976419D01*
X176568836Y-118976419D02*
X176378360Y-118976419D01*
X176378360Y-118976419D02*
X176283122Y-118928800D01*
X176283122Y-118928800D02*
X176187884Y-118833561D01*
X176187884Y-118833561D02*
X176140265Y-118643085D01*
X176140265Y-118643085D02*
X176140265Y-118309752D01*
X176140265Y-118309752D02*
X176187884Y-118119276D01*
X176187884Y-118119276D02*
X176283122Y-118024038D01*
X176283122Y-118024038D02*
X176378360Y-117976419D01*
X177568836Y-118452609D02*
X177235503Y-118452609D01*
X177235503Y-118976419D02*
X177235503Y-117976419D01*
X177235503Y-117976419D02*
X177711693Y-117976419D01*
X178425979Y-118452609D02*
X178092646Y-118452609D01*
X178092646Y-118976419D02*
X178092646Y-117976419D01*
X178092646Y-117976419D02*
X178568836Y-117976419D01*
X176368360Y-123066419D02*
X176558836Y-123066419D01*
X176558836Y-123066419D02*
X176654074Y-123114038D01*
X176654074Y-123114038D02*
X176749312Y-123209276D01*
X176749312Y-123209276D02*
X176796931Y-123399752D01*
X176796931Y-123399752D02*
X176796931Y-123733085D01*
X176796931Y-123733085D02*
X176749312Y-123923561D01*
X176749312Y-123923561D02*
X176654074Y-124018800D01*
X176654074Y-124018800D02*
X176558836Y-124066419D01*
X176558836Y-124066419D02*
X176368360Y-124066419D01*
X176368360Y-124066419D02*
X176273122Y-124018800D01*
X176273122Y-124018800D02*
X176177884Y-123923561D01*
X176177884Y-123923561D02*
X176130265Y-123733085D01*
X176130265Y-123733085D02*
X176130265Y-123399752D01*
X176130265Y-123399752D02*
X176177884Y-123209276D01*
X176177884Y-123209276D02*
X176273122Y-123114038D01*
X176273122Y-123114038D02*
X176368360Y-123066419D01*
X177225503Y-124066419D02*
X177225503Y-123066419D01*
X177225503Y-123066419D02*
X177796931Y-124066419D01*
X177796931Y-124066419D02*
X177796931Y-123066419D01*
D11*
X153597142Y-108624819D02*
X153263809Y-108148628D01*
X153025714Y-108624819D02*
X153025714Y-107624819D01*
X153025714Y-107624819D02*
X153406666Y-107624819D01*
X153406666Y-107624819D02*
X153501904Y-107672438D01*
X153501904Y-107672438D02*
X153549523Y-107720057D01*
X153549523Y-107720057D02*
X153597142Y-107815295D01*
X153597142Y-107815295D02*
X153597142Y-107958152D01*
X153597142Y-107958152D02*
X153549523Y-108053390D01*
X153549523Y-108053390D02*
X153501904Y-108101009D01*
X153501904Y-108101009D02*
X153406666Y-108148628D01*
X153406666Y-108148628D02*
X153025714Y-108148628D01*
X154549523Y-108624819D02*
X153978095Y-108624819D01*
X154263809Y-108624819D02*
X154263809Y-107624819D01*
X154263809Y-107624819D02*
X154168571Y-107767676D01*
X154168571Y-107767676D02*
X154073333Y-107862914D01*
X154073333Y-107862914D02*
X153978095Y-107910533D01*
X154930476Y-107720057D02*
X154978095Y-107672438D01*
X154978095Y-107672438D02*
X155073333Y-107624819D01*
X155073333Y-107624819D02*
X155311428Y-107624819D01*
X155311428Y-107624819D02*
X155406666Y-107672438D01*
X155406666Y-107672438D02*
X155454285Y-107720057D01*
X155454285Y-107720057D02*
X155501904Y-107815295D01*
X155501904Y-107815295D02*
X155501904Y-107910533D01*
X155501904Y-107910533D02*
X155454285Y-108053390D01*
X155454285Y-108053390D02*
X154882857Y-108624819D01*
X154882857Y-108624819D02*
X155501904Y-108624819D01*
X200525142Y-112468819D02*
X200191809Y-111992628D01*
X199953714Y-112468819D02*
X199953714Y-111468819D01*
X199953714Y-111468819D02*
X200334666Y-111468819D01*
X200334666Y-111468819D02*
X200429904Y-111516438D01*
X200429904Y-111516438D02*
X200477523Y-111564057D01*
X200477523Y-111564057D02*
X200525142Y-111659295D01*
X200525142Y-111659295D02*
X200525142Y-111802152D01*
X200525142Y-111802152D02*
X200477523Y-111897390D01*
X200477523Y-111897390D02*
X200429904Y-111945009D01*
X200429904Y-111945009D02*
X200334666Y-111992628D01*
X200334666Y-111992628D02*
X199953714Y-111992628D01*
X200906095Y-111564057D02*
X200953714Y-111516438D01*
X200953714Y-111516438D02*
X201048952Y-111468819D01*
X201048952Y-111468819D02*
X201287047Y-111468819D01*
X201287047Y-111468819D02*
X201382285Y-111516438D01*
X201382285Y-111516438D02*
X201429904Y-111564057D01*
X201429904Y-111564057D02*
X201477523Y-111659295D01*
X201477523Y-111659295D02*
X201477523Y-111754533D01*
X201477523Y-111754533D02*
X201429904Y-111897390D01*
X201429904Y-111897390D02*
X200858476Y-112468819D01*
X200858476Y-112468819D02*
X201477523Y-112468819D01*
X202096571Y-111468819D02*
X202191809Y-111468819D01*
X202191809Y-111468819D02*
X202287047Y-111516438D01*
X202287047Y-111516438D02*
X202334666Y-111564057D01*
X202334666Y-111564057D02*
X202382285Y-111659295D01*
X202382285Y-111659295D02*
X202429904Y-111849771D01*
X202429904Y-111849771D02*
X202429904Y-112087866D01*
X202429904Y-112087866D02*
X202382285Y-112278342D01*
X202382285Y-112278342D02*
X202334666Y-112373580D01*
X202334666Y-112373580D02*
X202287047Y-112421200D01*
X202287047Y-112421200D02*
X202191809Y-112468819D01*
X202191809Y-112468819D02*
X202096571Y-112468819D01*
X202096571Y-112468819D02*
X202001333Y-112421200D01*
X202001333Y-112421200D02*
X201953714Y-112373580D01*
X201953714Y-112373580D02*
X201906095Y-112278342D01*
X201906095Y-112278342D02*
X201858476Y-112087866D01*
X201858476Y-112087866D02*
X201858476Y-111849771D01*
X201858476Y-111849771D02*
X201906095Y-111659295D01*
X201906095Y-111659295D02*
X201953714Y-111564057D01*
X201953714Y-111564057D02*
X202001333Y-111516438D01*
X202001333Y-111516438D02*
X202096571Y-111468819D01*
X153535142Y-127454819D02*
X153201809Y-126978628D01*
X152963714Y-127454819D02*
X152963714Y-126454819D01*
X152963714Y-126454819D02*
X153344666Y-126454819D01*
X153344666Y-126454819D02*
X153439904Y-126502438D01*
X153439904Y-126502438D02*
X153487523Y-126550057D01*
X153487523Y-126550057D02*
X153535142Y-126645295D01*
X153535142Y-126645295D02*
X153535142Y-126788152D01*
X153535142Y-126788152D02*
X153487523Y-126883390D01*
X153487523Y-126883390D02*
X153439904Y-126931009D01*
X153439904Y-126931009D02*
X153344666Y-126978628D01*
X153344666Y-126978628D02*
X152963714Y-126978628D01*
X154487523Y-127454819D02*
X153916095Y-127454819D01*
X154201809Y-127454819D02*
X154201809Y-126454819D01*
X154201809Y-126454819D02*
X154106571Y-126597676D01*
X154106571Y-126597676D02*
X154011333Y-126692914D01*
X154011333Y-126692914D02*
X153916095Y-126740533D01*
X155106571Y-126454819D02*
X155201809Y-126454819D01*
X155201809Y-126454819D02*
X155297047Y-126502438D01*
X155297047Y-126502438D02*
X155344666Y-126550057D01*
X155344666Y-126550057D02*
X155392285Y-126645295D01*
X155392285Y-126645295D02*
X155439904Y-126835771D01*
X155439904Y-126835771D02*
X155439904Y-127073866D01*
X155439904Y-127073866D02*
X155392285Y-127264342D01*
X155392285Y-127264342D02*
X155344666Y-127359580D01*
X155344666Y-127359580D02*
X155297047Y-127407200D01*
X155297047Y-127407200D02*
X155201809Y-127454819D01*
X155201809Y-127454819D02*
X155106571Y-127454819D01*
X155106571Y-127454819D02*
X155011333Y-127407200D01*
X155011333Y-127407200D02*
X154963714Y-127359580D01*
X154963714Y-127359580D02*
X154916095Y-127264342D01*
X154916095Y-127264342D02*
X154868476Y-127073866D01*
X154868476Y-127073866D02*
X154868476Y-126835771D01*
X154868476Y-126835771D02*
X154916095Y-126645295D01*
X154916095Y-126645295D02*
X154963714Y-126550057D01*
X154963714Y-126550057D02*
X155011333Y-126502438D01*
X155011333Y-126502438D02*
X155106571Y-126454819D01*
X162933142Y-112468819D02*
X162599809Y-111992628D01*
X162361714Y-112468819D02*
X162361714Y-111468819D01*
X162361714Y-111468819D02*
X162742666Y-111468819D01*
X162742666Y-111468819D02*
X162837904Y-111516438D01*
X162837904Y-111516438D02*
X162885523Y-111564057D01*
X162885523Y-111564057D02*
X162933142Y-111659295D01*
X162933142Y-111659295D02*
X162933142Y-111802152D01*
X162933142Y-111802152D02*
X162885523Y-111897390D01*
X162885523Y-111897390D02*
X162837904Y-111945009D01*
X162837904Y-111945009D02*
X162742666Y-111992628D01*
X162742666Y-111992628D02*
X162361714Y-111992628D01*
X163885523Y-112468819D02*
X163314095Y-112468819D01*
X163599809Y-112468819D02*
X163599809Y-111468819D01*
X163599809Y-111468819D02*
X163504571Y-111611676D01*
X163504571Y-111611676D02*
X163409333Y-111706914D01*
X163409333Y-111706914D02*
X163314095Y-111754533D01*
X164742666Y-111802152D02*
X164742666Y-112468819D01*
X164504571Y-111421200D02*
X164266476Y-112135485D01*
X164266476Y-112135485D02*
X164885523Y-112135485D01*
D12*
X228028667Y-116233800D02*
X228171524Y-116281419D01*
X228171524Y-116281419D02*
X228409619Y-116281419D01*
X228409619Y-116281419D02*
X228504857Y-116233800D01*
X228504857Y-116233800D02*
X228552476Y-116186180D01*
X228552476Y-116186180D02*
X228600095Y-116090942D01*
X228600095Y-116090942D02*
X228600095Y-115995704D01*
X228600095Y-115995704D02*
X228552476Y-115900466D01*
X228552476Y-115900466D02*
X228504857Y-115852847D01*
X228504857Y-115852847D02*
X228409619Y-115805228D01*
X228409619Y-115805228D02*
X228219143Y-115757609D01*
X228219143Y-115757609D02*
X228123905Y-115709990D01*
X228123905Y-115709990D02*
X228076286Y-115662371D01*
X228076286Y-115662371D02*
X228028667Y-115567133D01*
X228028667Y-115567133D02*
X228028667Y-115471895D01*
X228028667Y-115471895D02*
X228076286Y-115376657D01*
X228076286Y-115376657D02*
X228123905Y-115329038D01*
X228123905Y-115329038D02*
X228219143Y-115281419D01*
X228219143Y-115281419D02*
X228457238Y-115281419D01*
X228457238Y-115281419D02*
X228600095Y-115329038D01*
X228933429Y-115281419D02*
X229171524Y-116281419D01*
X229171524Y-116281419D02*
X229362000Y-115567133D01*
X229362000Y-115567133D02*
X229552476Y-116281419D01*
X229552476Y-116281419D02*
X229790572Y-115281419D01*
X230314381Y-115709990D02*
X230219143Y-115662371D01*
X230219143Y-115662371D02*
X230171524Y-115614752D01*
X230171524Y-115614752D02*
X230123905Y-115519514D01*
X230123905Y-115519514D02*
X230123905Y-115471895D01*
X230123905Y-115471895D02*
X230171524Y-115376657D01*
X230171524Y-115376657D02*
X230219143Y-115329038D01*
X230219143Y-115329038D02*
X230314381Y-115281419D01*
X230314381Y-115281419D02*
X230504857Y-115281419D01*
X230504857Y-115281419D02*
X230600095Y-115329038D01*
X230600095Y-115329038D02*
X230647714Y-115376657D01*
X230647714Y-115376657D02*
X230695333Y-115471895D01*
X230695333Y-115471895D02*
X230695333Y-115519514D01*
X230695333Y-115519514D02*
X230647714Y-115614752D01*
X230647714Y-115614752D02*
X230600095Y-115662371D01*
X230600095Y-115662371D02*
X230504857Y-115709990D01*
X230504857Y-115709990D02*
X230314381Y-115709990D01*
X230314381Y-115709990D02*
X230219143Y-115757609D01*
X230219143Y-115757609D02*
X230171524Y-115805228D01*
X230171524Y-115805228D02*
X230123905Y-115900466D01*
X230123905Y-115900466D02*
X230123905Y-116090942D01*
X230123905Y-116090942D02*
X230171524Y-116186180D01*
X230171524Y-116186180D02*
X230219143Y-116233800D01*
X230219143Y-116233800D02*
X230314381Y-116281419D01*
X230314381Y-116281419D02*
X230504857Y-116281419D01*
X230504857Y-116281419D02*
X230600095Y-116233800D01*
X230600095Y-116233800D02*
X230647714Y-116186180D01*
X230647714Y-116186180D02*
X230695333Y-116090942D01*
X230695333Y-116090942D02*
X230695333Y-115900466D01*
X230695333Y-115900466D02*
X230647714Y-115805228D01*
X230647714Y-115805228D02*
X230600095Y-115757609D01*
X230600095Y-115757609D02*
X230504857Y-115709990D01*
X232756360Y-123066419D02*
X232946836Y-123066419D01*
X232946836Y-123066419D02*
X233042074Y-123114038D01*
X233042074Y-123114038D02*
X233137312Y-123209276D01*
X233137312Y-123209276D02*
X233184931Y-123399752D01*
X233184931Y-123399752D02*
X233184931Y-123733085D01*
X233184931Y-123733085D02*
X233137312Y-123923561D01*
X233137312Y-123923561D02*
X233042074Y-124018800D01*
X233042074Y-124018800D02*
X232946836Y-124066419D01*
X232946836Y-124066419D02*
X232756360Y-124066419D01*
X232756360Y-124066419D02*
X232661122Y-124018800D01*
X232661122Y-124018800D02*
X232565884Y-123923561D01*
X232565884Y-123923561D02*
X232518265Y-123733085D01*
X232518265Y-123733085D02*
X232518265Y-123399752D01*
X232518265Y-123399752D02*
X232565884Y-123209276D01*
X232565884Y-123209276D02*
X232661122Y-123114038D01*
X232661122Y-123114038D02*
X232756360Y-123066419D01*
X233613503Y-124066419D02*
X233613503Y-123066419D01*
X233613503Y-123066419D02*
X234184931Y-124066419D01*
X234184931Y-124066419D02*
X234184931Y-123066419D01*
X232766360Y-117976419D02*
X232956836Y-117976419D01*
X232956836Y-117976419D02*
X233052074Y-118024038D01*
X233052074Y-118024038D02*
X233147312Y-118119276D01*
X233147312Y-118119276D02*
X233194931Y-118309752D01*
X233194931Y-118309752D02*
X233194931Y-118643085D01*
X233194931Y-118643085D02*
X233147312Y-118833561D01*
X233147312Y-118833561D02*
X233052074Y-118928800D01*
X233052074Y-118928800D02*
X232956836Y-118976419D01*
X232956836Y-118976419D02*
X232766360Y-118976419D01*
X232766360Y-118976419D02*
X232671122Y-118928800D01*
X232671122Y-118928800D02*
X232575884Y-118833561D01*
X232575884Y-118833561D02*
X232528265Y-118643085D01*
X232528265Y-118643085D02*
X232528265Y-118309752D01*
X232528265Y-118309752D02*
X232575884Y-118119276D01*
X232575884Y-118119276D02*
X232671122Y-118024038D01*
X232671122Y-118024038D02*
X232766360Y-117976419D01*
X233956836Y-118452609D02*
X233623503Y-118452609D01*
X233623503Y-118976419D02*
X233623503Y-117976419D01*
X233623503Y-117976419D02*
X234099693Y-117976419D01*
X234813979Y-118452609D02*
X234480646Y-118452609D01*
X234480646Y-118976419D02*
X234480646Y-117976419D01*
X234480646Y-117976419D02*
X234956836Y-117976419D01*
D11*
X125817333Y-112468819D02*
X125484000Y-111992628D01*
X125245905Y-112468819D02*
X125245905Y-111468819D01*
X125245905Y-111468819D02*
X125626857Y-111468819D01*
X125626857Y-111468819D02*
X125722095Y-111516438D01*
X125722095Y-111516438D02*
X125769714Y-111564057D01*
X125769714Y-111564057D02*
X125817333Y-111659295D01*
X125817333Y-111659295D02*
X125817333Y-111802152D01*
X125817333Y-111802152D02*
X125769714Y-111897390D01*
X125769714Y-111897390D02*
X125722095Y-111945009D01*
X125722095Y-111945009D02*
X125626857Y-111992628D01*
X125626857Y-111992628D02*
X125245905Y-111992628D01*
X126388762Y-111897390D02*
X126293524Y-111849771D01*
X126293524Y-111849771D02*
X126245905Y-111802152D01*
X126245905Y-111802152D02*
X126198286Y-111706914D01*
X126198286Y-111706914D02*
X126198286Y-111659295D01*
X126198286Y-111659295D02*
X126245905Y-111564057D01*
X126245905Y-111564057D02*
X126293524Y-111516438D01*
X126293524Y-111516438D02*
X126388762Y-111468819D01*
X126388762Y-111468819D02*
X126579238Y-111468819D01*
X126579238Y-111468819D02*
X126674476Y-111516438D01*
X126674476Y-111516438D02*
X126722095Y-111564057D01*
X126722095Y-111564057D02*
X126769714Y-111659295D01*
X126769714Y-111659295D02*
X126769714Y-111706914D01*
X126769714Y-111706914D02*
X126722095Y-111802152D01*
X126722095Y-111802152D02*
X126674476Y-111849771D01*
X126674476Y-111849771D02*
X126579238Y-111897390D01*
X126579238Y-111897390D02*
X126388762Y-111897390D01*
X126388762Y-111897390D02*
X126293524Y-111945009D01*
X126293524Y-111945009D02*
X126245905Y-111992628D01*
X126245905Y-111992628D02*
X126198286Y-112087866D01*
X126198286Y-112087866D02*
X126198286Y-112278342D01*
X126198286Y-112278342D02*
X126245905Y-112373580D01*
X126245905Y-112373580D02*
X126293524Y-112421200D01*
X126293524Y-112421200D02*
X126388762Y-112468819D01*
X126388762Y-112468819D02*
X126579238Y-112468819D01*
X126579238Y-112468819D02*
X126674476Y-112421200D01*
X126674476Y-112421200D02*
X126722095Y-112373580D01*
X126722095Y-112373580D02*
X126769714Y-112278342D01*
X126769714Y-112278342D02*
X126769714Y-112087866D01*
X126769714Y-112087866D02*
X126722095Y-111992628D01*
X126722095Y-111992628D02*
X126674476Y-111945009D01*
X126674476Y-111945009D02*
X126579238Y-111897390D01*
X107021333Y-129236819D02*
X106688000Y-128760628D01*
X106449905Y-129236819D02*
X106449905Y-128236819D01*
X106449905Y-128236819D02*
X106830857Y-128236819D01*
X106830857Y-128236819D02*
X106926095Y-128284438D01*
X106926095Y-128284438D02*
X106973714Y-128332057D01*
X106973714Y-128332057D02*
X107021333Y-128427295D01*
X107021333Y-128427295D02*
X107021333Y-128570152D01*
X107021333Y-128570152D02*
X106973714Y-128665390D01*
X106973714Y-128665390D02*
X106926095Y-128713009D01*
X106926095Y-128713009D02*
X106830857Y-128760628D01*
X106830857Y-128760628D02*
X106449905Y-128760628D01*
X107926095Y-128236819D02*
X107449905Y-128236819D01*
X107449905Y-128236819D02*
X107402286Y-128713009D01*
X107402286Y-128713009D02*
X107449905Y-128665390D01*
X107449905Y-128665390D02*
X107545143Y-128617771D01*
X107545143Y-128617771D02*
X107783238Y-128617771D01*
X107783238Y-128617771D02*
X107878476Y-128665390D01*
X107878476Y-128665390D02*
X107926095Y-128713009D01*
X107926095Y-128713009D02*
X107973714Y-128808247D01*
X107973714Y-128808247D02*
X107973714Y-129046342D01*
X107973714Y-129046342D02*
X107926095Y-129141580D01*
X107926095Y-129141580D02*
X107878476Y-129189200D01*
X107878476Y-129189200D02*
X107783238Y-129236819D01*
X107783238Y-129236819D02*
X107545143Y-129236819D01*
X107545143Y-129236819D02*
X107449905Y-129189200D01*
X107449905Y-129189200D02*
X107402286Y-129141580D01*
X88225333Y-112468819D02*
X87892000Y-111992628D01*
X87653905Y-112468819D02*
X87653905Y-111468819D01*
X87653905Y-111468819D02*
X88034857Y-111468819D01*
X88034857Y-111468819D02*
X88130095Y-111516438D01*
X88130095Y-111516438D02*
X88177714Y-111564057D01*
X88177714Y-111564057D02*
X88225333Y-111659295D01*
X88225333Y-111659295D02*
X88225333Y-111802152D01*
X88225333Y-111802152D02*
X88177714Y-111897390D01*
X88177714Y-111897390D02*
X88130095Y-111945009D01*
X88130095Y-111945009D02*
X88034857Y-111992628D01*
X88034857Y-111992628D02*
X87653905Y-111992628D01*
X88606286Y-111564057D02*
X88653905Y-111516438D01*
X88653905Y-111516438D02*
X88749143Y-111468819D01*
X88749143Y-111468819D02*
X88987238Y-111468819D01*
X88987238Y-111468819D02*
X89082476Y-111516438D01*
X89082476Y-111516438D02*
X89130095Y-111564057D01*
X89130095Y-111564057D02*
X89177714Y-111659295D01*
X89177714Y-111659295D02*
X89177714Y-111754533D01*
X89177714Y-111754533D02*
X89130095Y-111897390D01*
X89130095Y-111897390D02*
X88558667Y-112468819D01*
X88558667Y-112468819D02*
X89177714Y-112468819D01*
D12*
X209232667Y-116233800D02*
X209375524Y-116281419D01*
X209375524Y-116281419D02*
X209613619Y-116281419D01*
X209613619Y-116281419D02*
X209708857Y-116233800D01*
X209708857Y-116233800D02*
X209756476Y-116186180D01*
X209756476Y-116186180D02*
X209804095Y-116090942D01*
X209804095Y-116090942D02*
X209804095Y-115995704D01*
X209804095Y-115995704D02*
X209756476Y-115900466D01*
X209756476Y-115900466D02*
X209708857Y-115852847D01*
X209708857Y-115852847D02*
X209613619Y-115805228D01*
X209613619Y-115805228D02*
X209423143Y-115757609D01*
X209423143Y-115757609D02*
X209327905Y-115709990D01*
X209327905Y-115709990D02*
X209280286Y-115662371D01*
X209280286Y-115662371D02*
X209232667Y-115567133D01*
X209232667Y-115567133D02*
X209232667Y-115471895D01*
X209232667Y-115471895D02*
X209280286Y-115376657D01*
X209280286Y-115376657D02*
X209327905Y-115329038D01*
X209327905Y-115329038D02*
X209423143Y-115281419D01*
X209423143Y-115281419D02*
X209661238Y-115281419D01*
X209661238Y-115281419D02*
X209804095Y-115329038D01*
X210137429Y-115281419D02*
X210375524Y-116281419D01*
X210375524Y-116281419D02*
X210566000Y-115567133D01*
X210566000Y-115567133D02*
X210756476Y-116281419D01*
X210756476Y-116281419D02*
X210994572Y-115281419D01*
X211280286Y-115281419D02*
X211946952Y-115281419D01*
X211946952Y-115281419D02*
X211518381Y-116281419D01*
X213870360Y-118042419D02*
X214060836Y-118042419D01*
X214060836Y-118042419D02*
X214156074Y-118090038D01*
X214156074Y-118090038D02*
X214251312Y-118185276D01*
X214251312Y-118185276D02*
X214298931Y-118375752D01*
X214298931Y-118375752D02*
X214298931Y-118709085D01*
X214298931Y-118709085D02*
X214251312Y-118899561D01*
X214251312Y-118899561D02*
X214156074Y-118994800D01*
X214156074Y-118994800D02*
X214060836Y-119042419D01*
X214060836Y-119042419D02*
X213870360Y-119042419D01*
X213870360Y-119042419D02*
X213775122Y-118994800D01*
X213775122Y-118994800D02*
X213679884Y-118899561D01*
X213679884Y-118899561D02*
X213632265Y-118709085D01*
X213632265Y-118709085D02*
X213632265Y-118375752D01*
X213632265Y-118375752D02*
X213679884Y-118185276D01*
X213679884Y-118185276D02*
X213775122Y-118090038D01*
X213775122Y-118090038D02*
X213870360Y-118042419D01*
X215060836Y-118518609D02*
X214727503Y-118518609D01*
X214727503Y-119042419D02*
X214727503Y-118042419D01*
X214727503Y-118042419D02*
X215203693Y-118042419D01*
X215917979Y-118518609D02*
X215584646Y-118518609D01*
X215584646Y-119042419D02*
X215584646Y-118042419D01*
X215584646Y-118042419D02*
X216060836Y-118042419D01*
X213860360Y-123132419D02*
X214050836Y-123132419D01*
X214050836Y-123132419D02*
X214146074Y-123180038D01*
X214146074Y-123180038D02*
X214241312Y-123275276D01*
X214241312Y-123275276D02*
X214288931Y-123465752D01*
X214288931Y-123465752D02*
X214288931Y-123799085D01*
X214288931Y-123799085D02*
X214241312Y-123989561D01*
X214241312Y-123989561D02*
X214146074Y-124084800D01*
X214146074Y-124084800D02*
X214050836Y-124132419D01*
X214050836Y-124132419D02*
X213860360Y-124132419D01*
X213860360Y-124132419D02*
X213765122Y-124084800D01*
X213765122Y-124084800D02*
X213669884Y-123989561D01*
X213669884Y-123989561D02*
X213622265Y-123799085D01*
X213622265Y-123799085D02*
X213622265Y-123465752D01*
X213622265Y-123465752D02*
X213669884Y-123275276D01*
X213669884Y-123275276D02*
X213765122Y-123180038D01*
X213765122Y-123180038D02*
X213860360Y-123132419D01*
X214717503Y-124132419D02*
X214717503Y-123132419D01*
X214717503Y-123132419D02*
X215288931Y-124132419D01*
X215288931Y-124132419D02*
X215288931Y-123132419D01*
X190436667Y-116233800D02*
X190579524Y-116281419D01*
X190579524Y-116281419D02*
X190817619Y-116281419D01*
X190817619Y-116281419D02*
X190912857Y-116233800D01*
X190912857Y-116233800D02*
X190960476Y-116186180D01*
X190960476Y-116186180D02*
X191008095Y-116090942D01*
X191008095Y-116090942D02*
X191008095Y-115995704D01*
X191008095Y-115995704D02*
X190960476Y-115900466D01*
X190960476Y-115900466D02*
X190912857Y-115852847D01*
X190912857Y-115852847D02*
X190817619Y-115805228D01*
X190817619Y-115805228D02*
X190627143Y-115757609D01*
X190627143Y-115757609D02*
X190531905Y-115709990D01*
X190531905Y-115709990D02*
X190484286Y-115662371D01*
X190484286Y-115662371D02*
X190436667Y-115567133D01*
X190436667Y-115567133D02*
X190436667Y-115471895D01*
X190436667Y-115471895D02*
X190484286Y-115376657D01*
X190484286Y-115376657D02*
X190531905Y-115329038D01*
X190531905Y-115329038D02*
X190627143Y-115281419D01*
X190627143Y-115281419D02*
X190865238Y-115281419D01*
X190865238Y-115281419D02*
X191008095Y-115329038D01*
X191341429Y-115281419D02*
X191579524Y-116281419D01*
X191579524Y-116281419D02*
X191770000Y-115567133D01*
X191770000Y-115567133D02*
X191960476Y-116281419D01*
X191960476Y-116281419D02*
X192198572Y-115281419D01*
X193008095Y-115281419D02*
X192817619Y-115281419D01*
X192817619Y-115281419D02*
X192722381Y-115329038D01*
X192722381Y-115329038D02*
X192674762Y-115376657D01*
X192674762Y-115376657D02*
X192579524Y-115519514D01*
X192579524Y-115519514D02*
X192531905Y-115709990D01*
X192531905Y-115709990D02*
X192531905Y-116090942D01*
X192531905Y-116090942D02*
X192579524Y-116186180D01*
X192579524Y-116186180D02*
X192627143Y-116233800D01*
X192627143Y-116233800D02*
X192722381Y-116281419D01*
X192722381Y-116281419D02*
X192912857Y-116281419D01*
X192912857Y-116281419D02*
X193008095Y-116233800D01*
X193008095Y-116233800D02*
X193055714Y-116186180D01*
X193055714Y-116186180D02*
X193103333Y-116090942D01*
X193103333Y-116090942D02*
X193103333Y-115852847D01*
X193103333Y-115852847D02*
X193055714Y-115757609D01*
X193055714Y-115757609D02*
X193008095Y-115709990D01*
X193008095Y-115709990D02*
X192912857Y-115662371D01*
X192912857Y-115662371D02*
X192722381Y-115662371D01*
X192722381Y-115662371D02*
X192627143Y-115709990D01*
X192627143Y-115709990D02*
X192579524Y-115757609D01*
X192579524Y-115757609D02*
X192531905Y-115852847D01*
X195174360Y-117976419D02*
X195364836Y-117976419D01*
X195364836Y-117976419D02*
X195460074Y-118024038D01*
X195460074Y-118024038D02*
X195555312Y-118119276D01*
X195555312Y-118119276D02*
X195602931Y-118309752D01*
X195602931Y-118309752D02*
X195602931Y-118643085D01*
X195602931Y-118643085D02*
X195555312Y-118833561D01*
X195555312Y-118833561D02*
X195460074Y-118928800D01*
X195460074Y-118928800D02*
X195364836Y-118976419D01*
X195364836Y-118976419D02*
X195174360Y-118976419D01*
X195174360Y-118976419D02*
X195079122Y-118928800D01*
X195079122Y-118928800D02*
X194983884Y-118833561D01*
X194983884Y-118833561D02*
X194936265Y-118643085D01*
X194936265Y-118643085D02*
X194936265Y-118309752D01*
X194936265Y-118309752D02*
X194983884Y-118119276D01*
X194983884Y-118119276D02*
X195079122Y-118024038D01*
X195079122Y-118024038D02*
X195174360Y-117976419D01*
X196364836Y-118452609D02*
X196031503Y-118452609D01*
X196031503Y-118976419D02*
X196031503Y-117976419D01*
X196031503Y-117976419D02*
X196507693Y-117976419D01*
X197221979Y-118452609D02*
X196888646Y-118452609D01*
X196888646Y-118976419D02*
X196888646Y-117976419D01*
X196888646Y-117976419D02*
X197364836Y-117976419D01*
X195164360Y-123066419D02*
X195354836Y-123066419D01*
X195354836Y-123066419D02*
X195450074Y-123114038D01*
X195450074Y-123114038D02*
X195545312Y-123209276D01*
X195545312Y-123209276D02*
X195592931Y-123399752D01*
X195592931Y-123399752D02*
X195592931Y-123733085D01*
X195592931Y-123733085D02*
X195545312Y-123923561D01*
X195545312Y-123923561D02*
X195450074Y-124018800D01*
X195450074Y-124018800D02*
X195354836Y-124066419D01*
X195354836Y-124066419D02*
X195164360Y-124066419D01*
X195164360Y-124066419D02*
X195069122Y-124018800D01*
X195069122Y-124018800D02*
X194973884Y-123923561D01*
X194973884Y-123923561D02*
X194926265Y-123733085D01*
X194926265Y-123733085D02*
X194926265Y-123399752D01*
X194926265Y-123399752D02*
X194973884Y-123209276D01*
X194973884Y-123209276D02*
X195069122Y-123114038D01*
X195069122Y-123114038D02*
X195164360Y-123066419D01*
X196021503Y-124066419D02*
X196021503Y-123066419D01*
X196021503Y-123066419D02*
X196592931Y-124066419D01*
X196592931Y-124066419D02*
X196592931Y-123066419D01*
X248840666Y-111725419D02*
X248840666Y-112439704D01*
X248840666Y-112439704D02*
X248793047Y-112582561D01*
X248793047Y-112582561D02*
X248697809Y-112677800D01*
X248697809Y-112677800D02*
X248554952Y-112725419D01*
X248554952Y-112725419D02*
X248459714Y-112725419D01*
X249269238Y-111820657D02*
X249316857Y-111773038D01*
X249316857Y-111773038D02*
X249412095Y-111725419D01*
X249412095Y-111725419D02*
X249650190Y-111725419D01*
X249650190Y-111725419D02*
X249745428Y-111773038D01*
X249745428Y-111773038D02*
X249793047Y-111820657D01*
X249793047Y-111820657D02*
X249840666Y-111915895D01*
X249840666Y-111915895D02*
X249840666Y-112011133D01*
X249840666Y-112011133D02*
X249793047Y-112153990D01*
X249793047Y-112153990D02*
X249221619Y-112725419D01*
X249221619Y-112725419D02*
X249840666Y-112725419D01*
X96456667Y-116219800D02*
X96599524Y-116267419D01*
X96599524Y-116267419D02*
X96837619Y-116267419D01*
X96837619Y-116267419D02*
X96932857Y-116219800D01*
X96932857Y-116219800D02*
X96980476Y-116172180D01*
X96980476Y-116172180D02*
X97028095Y-116076942D01*
X97028095Y-116076942D02*
X97028095Y-115981704D01*
X97028095Y-115981704D02*
X96980476Y-115886466D01*
X96980476Y-115886466D02*
X96932857Y-115838847D01*
X96932857Y-115838847D02*
X96837619Y-115791228D01*
X96837619Y-115791228D02*
X96647143Y-115743609D01*
X96647143Y-115743609D02*
X96551905Y-115695990D01*
X96551905Y-115695990D02*
X96504286Y-115648371D01*
X96504286Y-115648371D02*
X96456667Y-115553133D01*
X96456667Y-115553133D02*
X96456667Y-115457895D01*
X96456667Y-115457895D02*
X96504286Y-115362657D01*
X96504286Y-115362657D02*
X96551905Y-115315038D01*
X96551905Y-115315038D02*
X96647143Y-115267419D01*
X96647143Y-115267419D02*
X96885238Y-115267419D01*
X96885238Y-115267419D02*
X97028095Y-115315038D01*
X97361429Y-115267419D02*
X97599524Y-116267419D01*
X97599524Y-116267419D02*
X97790000Y-115553133D01*
X97790000Y-115553133D02*
X97980476Y-116267419D01*
X97980476Y-116267419D02*
X98218572Y-115267419D01*
X99123333Y-116267419D02*
X98551905Y-116267419D01*
X98837619Y-116267419D02*
X98837619Y-115267419D01*
X98837619Y-115267419D02*
X98742381Y-115410276D01*
X98742381Y-115410276D02*
X98647143Y-115505514D01*
X98647143Y-115505514D02*
X98551905Y-115553133D01*
X101194360Y-117976419D02*
X101384836Y-117976419D01*
X101384836Y-117976419D02*
X101480074Y-118024038D01*
X101480074Y-118024038D02*
X101575312Y-118119276D01*
X101575312Y-118119276D02*
X101622931Y-118309752D01*
X101622931Y-118309752D02*
X101622931Y-118643085D01*
X101622931Y-118643085D02*
X101575312Y-118833561D01*
X101575312Y-118833561D02*
X101480074Y-118928800D01*
X101480074Y-118928800D02*
X101384836Y-118976419D01*
X101384836Y-118976419D02*
X101194360Y-118976419D01*
X101194360Y-118976419D02*
X101099122Y-118928800D01*
X101099122Y-118928800D02*
X101003884Y-118833561D01*
X101003884Y-118833561D02*
X100956265Y-118643085D01*
X100956265Y-118643085D02*
X100956265Y-118309752D01*
X100956265Y-118309752D02*
X101003884Y-118119276D01*
X101003884Y-118119276D02*
X101099122Y-118024038D01*
X101099122Y-118024038D02*
X101194360Y-117976419D01*
X102384836Y-118452609D02*
X102051503Y-118452609D01*
X102051503Y-118976419D02*
X102051503Y-117976419D01*
X102051503Y-117976419D02*
X102527693Y-117976419D01*
X103241979Y-118452609D02*
X102908646Y-118452609D01*
X102908646Y-118976419D02*
X102908646Y-117976419D01*
X102908646Y-117976419D02*
X103384836Y-117976419D01*
X101184360Y-123066419D02*
X101374836Y-123066419D01*
X101374836Y-123066419D02*
X101470074Y-123114038D01*
X101470074Y-123114038D02*
X101565312Y-123209276D01*
X101565312Y-123209276D02*
X101612931Y-123399752D01*
X101612931Y-123399752D02*
X101612931Y-123733085D01*
X101612931Y-123733085D02*
X101565312Y-123923561D01*
X101565312Y-123923561D02*
X101470074Y-124018800D01*
X101470074Y-124018800D02*
X101374836Y-124066419D01*
X101374836Y-124066419D02*
X101184360Y-124066419D01*
X101184360Y-124066419D02*
X101089122Y-124018800D01*
X101089122Y-124018800D02*
X100993884Y-123923561D01*
X100993884Y-123923561D02*
X100946265Y-123733085D01*
X100946265Y-123733085D02*
X100946265Y-123399752D01*
X100946265Y-123399752D02*
X100993884Y-123209276D01*
X100993884Y-123209276D02*
X101089122Y-123114038D01*
X101089122Y-123114038D02*
X101184360Y-123066419D01*
X102041503Y-124066419D02*
X102041503Y-123066419D01*
X102041503Y-123066419D02*
X102612931Y-124066419D01*
X102612931Y-124066419D02*
X102612931Y-123066419D01*
D11*
X116419333Y-108658819D02*
X116086000Y-108182628D01*
X115847905Y-108658819D02*
X115847905Y-107658819D01*
X115847905Y-107658819D02*
X116228857Y-107658819D01*
X116228857Y-107658819D02*
X116324095Y-107706438D01*
X116324095Y-107706438D02*
X116371714Y-107754057D01*
X116371714Y-107754057D02*
X116419333Y-107849295D01*
X116419333Y-107849295D02*
X116419333Y-107992152D01*
X116419333Y-107992152D02*
X116371714Y-108087390D01*
X116371714Y-108087390D02*
X116324095Y-108135009D01*
X116324095Y-108135009D02*
X116228857Y-108182628D01*
X116228857Y-108182628D02*
X115847905Y-108182628D01*
X117276476Y-107658819D02*
X117086000Y-107658819D01*
X117086000Y-107658819D02*
X116990762Y-107706438D01*
X116990762Y-107706438D02*
X116943143Y-107754057D01*
X116943143Y-107754057D02*
X116847905Y-107896914D01*
X116847905Y-107896914D02*
X116800286Y-108087390D01*
X116800286Y-108087390D02*
X116800286Y-108468342D01*
X116800286Y-108468342D02*
X116847905Y-108563580D01*
X116847905Y-108563580D02*
X116895524Y-108611200D01*
X116895524Y-108611200D02*
X116990762Y-108658819D01*
X116990762Y-108658819D02*
X117181238Y-108658819D01*
X117181238Y-108658819D02*
X117276476Y-108611200D01*
X117276476Y-108611200D02*
X117324095Y-108563580D01*
X117324095Y-108563580D02*
X117371714Y-108468342D01*
X117371714Y-108468342D02*
X117371714Y-108230247D01*
X117371714Y-108230247D02*
X117324095Y-108135009D01*
X117324095Y-108135009D02*
X117276476Y-108087390D01*
X117276476Y-108087390D02*
X117181238Y-108039771D01*
X117181238Y-108039771D02*
X116990762Y-108039771D01*
X116990762Y-108039771D02*
X116895524Y-108087390D01*
X116895524Y-108087390D02*
X116847905Y-108135009D01*
X116847905Y-108135009D02*
X116800286Y-108230247D01*
X228637142Y-108664819D02*
X228303809Y-108188628D01*
X228065714Y-108664819D02*
X228065714Y-107664819D01*
X228065714Y-107664819D02*
X228446666Y-107664819D01*
X228446666Y-107664819D02*
X228541904Y-107712438D01*
X228541904Y-107712438D02*
X228589523Y-107760057D01*
X228589523Y-107760057D02*
X228637142Y-107855295D01*
X228637142Y-107855295D02*
X228637142Y-107998152D01*
X228637142Y-107998152D02*
X228589523Y-108093390D01*
X228589523Y-108093390D02*
X228541904Y-108141009D01*
X228541904Y-108141009D02*
X228446666Y-108188628D01*
X228446666Y-108188628D02*
X228065714Y-108188628D01*
X229018095Y-107760057D02*
X229065714Y-107712438D01*
X229065714Y-107712438D02*
X229160952Y-107664819D01*
X229160952Y-107664819D02*
X229399047Y-107664819D01*
X229399047Y-107664819D02*
X229494285Y-107712438D01*
X229494285Y-107712438D02*
X229541904Y-107760057D01*
X229541904Y-107760057D02*
X229589523Y-107855295D01*
X229589523Y-107855295D02*
X229589523Y-107950533D01*
X229589523Y-107950533D02*
X229541904Y-108093390D01*
X229541904Y-108093390D02*
X228970476Y-108664819D01*
X228970476Y-108664819D02*
X229589523Y-108664819D01*
X230446666Y-107998152D02*
X230446666Y-108664819D01*
X230208571Y-107617200D02*
X229970476Y-108331485D01*
X229970476Y-108331485D02*
X230589523Y-108331485D01*
X135233333Y-127474819D02*
X134900000Y-126998628D01*
X134661905Y-127474819D02*
X134661905Y-126474819D01*
X134661905Y-126474819D02*
X135042857Y-126474819D01*
X135042857Y-126474819D02*
X135138095Y-126522438D01*
X135138095Y-126522438D02*
X135185714Y-126570057D01*
X135185714Y-126570057D02*
X135233333Y-126665295D01*
X135233333Y-126665295D02*
X135233333Y-126808152D01*
X135233333Y-126808152D02*
X135185714Y-126903390D01*
X135185714Y-126903390D02*
X135138095Y-126951009D01*
X135138095Y-126951009D02*
X135042857Y-126998628D01*
X135042857Y-126998628D02*
X134661905Y-126998628D01*
X135566667Y-126474819D02*
X136233333Y-126474819D01*
X136233333Y-126474819D02*
X135804762Y-127474819D01*
X116419333Y-127528819D02*
X116086000Y-127052628D01*
X115847905Y-127528819D02*
X115847905Y-126528819D01*
X115847905Y-126528819D02*
X116228857Y-126528819D01*
X116228857Y-126528819D02*
X116324095Y-126576438D01*
X116324095Y-126576438D02*
X116371714Y-126624057D01*
X116371714Y-126624057D02*
X116419333Y-126719295D01*
X116419333Y-126719295D02*
X116419333Y-126862152D01*
X116419333Y-126862152D02*
X116371714Y-126957390D01*
X116371714Y-126957390D02*
X116324095Y-127005009D01*
X116324095Y-127005009D02*
X116228857Y-127052628D01*
X116228857Y-127052628D02*
X115847905Y-127052628D01*
X117276476Y-126862152D02*
X117276476Y-127528819D01*
X117038381Y-126481200D02*
X116800286Y-127195485D01*
X116800286Y-127195485D02*
X117419333Y-127195485D01*
X228719142Y-127454819D02*
X228385809Y-126978628D01*
X228147714Y-127454819D02*
X228147714Y-126454819D01*
X228147714Y-126454819D02*
X228528666Y-126454819D01*
X228528666Y-126454819D02*
X228623904Y-126502438D01*
X228623904Y-126502438D02*
X228671523Y-126550057D01*
X228671523Y-126550057D02*
X228719142Y-126645295D01*
X228719142Y-126645295D02*
X228719142Y-126788152D01*
X228719142Y-126788152D02*
X228671523Y-126883390D01*
X228671523Y-126883390D02*
X228623904Y-126931009D01*
X228623904Y-126931009D02*
X228528666Y-126978628D01*
X228528666Y-126978628D02*
X228147714Y-126978628D01*
X229100095Y-126550057D02*
X229147714Y-126502438D01*
X229147714Y-126502438D02*
X229242952Y-126454819D01*
X229242952Y-126454819D02*
X229481047Y-126454819D01*
X229481047Y-126454819D02*
X229576285Y-126502438D01*
X229576285Y-126502438D02*
X229623904Y-126550057D01*
X229623904Y-126550057D02*
X229671523Y-126645295D01*
X229671523Y-126645295D02*
X229671523Y-126740533D01*
X229671523Y-126740533D02*
X229623904Y-126883390D01*
X229623904Y-126883390D02*
X229052476Y-127454819D01*
X229052476Y-127454819D02*
X229671523Y-127454819D01*
X230052476Y-126550057D02*
X230100095Y-126502438D01*
X230100095Y-126502438D02*
X230195333Y-126454819D01*
X230195333Y-126454819D02*
X230433428Y-126454819D01*
X230433428Y-126454819D02*
X230528666Y-126502438D01*
X230528666Y-126502438D02*
X230576285Y-126550057D01*
X230576285Y-126550057D02*
X230623904Y-126645295D01*
X230623904Y-126645295D02*
X230623904Y-126740533D01*
X230623904Y-126740533D02*
X230576285Y-126883390D01*
X230576285Y-126883390D02*
X230004857Y-127454819D01*
X230004857Y-127454819D02*
X230623904Y-127454819D01*
X172331142Y-127454819D02*
X171997809Y-126978628D01*
X171759714Y-127454819D02*
X171759714Y-126454819D01*
X171759714Y-126454819D02*
X172140666Y-126454819D01*
X172140666Y-126454819D02*
X172235904Y-126502438D01*
X172235904Y-126502438D02*
X172283523Y-126550057D01*
X172283523Y-126550057D02*
X172331142Y-126645295D01*
X172331142Y-126645295D02*
X172331142Y-126788152D01*
X172331142Y-126788152D02*
X172283523Y-126883390D01*
X172283523Y-126883390D02*
X172235904Y-126931009D01*
X172235904Y-126931009D02*
X172140666Y-126978628D01*
X172140666Y-126978628D02*
X171759714Y-126978628D01*
X173283523Y-127454819D02*
X172712095Y-127454819D01*
X172997809Y-127454819D02*
X172997809Y-126454819D01*
X172997809Y-126454819D02*
X172902571Y-126597676D01*
X172902571Y-126597676D02*
X172807333Y-126692914D01*
X172807333Y-126692914D02*
X172712095Y-126740533D01*
X173616857Y-126454819D02*
X174235904Y-126454819D01*
X174235904Y-126454819D02*
X173902571Y-126835771D01*
X173902571Y-126835771D02*
X174045428Y-126835771D01*
X174045428Y-126835771D02*
X174140666Y-126883390D01*
X174140666Y-126883390D02*
X174188285Y-126931009D01*
X174188285Y-126931009D02*
X174235904Y-127026247D01*
X174235904Y-127026247D02*
X174235904Y-127264342D01*
X174235904Y-127264342D02*
X174188285Y-127359580D01*
X174188285Y-127359580D02*
X174140666Y-127407200D01*
X174140666Y-127407200D02*
X174045428Y-127454819D01*
X174045428Y-127454819D02*
X173759714Y-127454819D01*
X173759714Y-127454819D02*
X173664476Y-127407200D01*
X173664476Y-127407200D02*
X173616857Y-127359580D01*
D12*
X115252667Y-116233800D02*
X115395524Y-116281419D01*
X115395524Y-116281419D02*
X115633619Y-116281419D01*
X115633619Y-116281419D02*
X115728857Y-116233800D01*
X115728857Y-116233800D02*
X115776476Y-116186180D01*
X115776476Y-116186180D02*
X115824095Y-116090942D01*
X115824095Y-116090942D02*
X115824095Y-115995704D01*
X115824095Y-115995704D02*
X115776476Y-115900466D01*
X115776476Y-115900466D02*
X115728857Y-115852847D01*
X115728857Y-115852847D02*
X115633619Y-115805228D01*
X115633619Y-115805228D02*
X115443143Y-115757609D01*
X115443143Y-115757609D02*
X115347905Y-115709990D01*
X115347905Y-115709990D02*
X115300286Y-115662371D01*
X115300286Y-115662371D02*
X115252667Y-115567133D01*
X115252667Y-115567133D02*
X115252667Y-115471895D01*
X115252667Y-115471895D02*
X115300286Y-115376657D01*
X115300286Y-115376657D02*
X115347905Y-115329038D01*
X115347905Y-115329038D02*
X115443143Y-115281419D01*
X115443143Y-115281419D02*
X115681238Y-115281419D01*
X115681238Y-115281419D02*
X115824095Y-115329038D01*
X116157429Y-115281419D02*
X116395524Y-116281419D01*
X116395524Y-116281419D02*
X116586000Y-115567133D01*
X116586000Y-115567133D02*
X116776476Y-116281419D01*
X116776476Y-116281419D02*
X117014572Y-115281419D01*
X117347905Y-115376657D02*
X117395524Y-115329038D01*
X117395524Y-115329038D02*
X117490762Y-115281419D01*
X117490762Y-115281419D02*
X117728857Y-115281419D01*
X117728857Y-115281419D02*
X117824095Y-115329038D01*
X117824095Y-115329038D02*
X117871714Y-115376657D01*
X117871714Y-115376657D02*
X117919333Y-115471895D01*
X117919333Y-115471895D02*
X117919333Y-115567133D01*
X117919333Y-115567133D02*
X117871714Y-115709990D01*
X117871714Y-115709990D02*
X117300286Y-116281419D01*
X117300286Y-116281419D02*
X117919333Y-116281419D01*
X119890360Y-117976419D02*
X120080836Y-117976419D01*
X120080836Y-117976419D02*
X120176074Y-118024038D01*
X120176074Y-118024038D02*
X120271312Y-118119276D01*
X120271312Y-118119276D02*
X120318931Y-118309752D01*
X120318931Y-118309752D02*
X120318931Y-118643085D01*
X120318931Y-118643085D02*
X120271312Y-118833561D01*
X120271312Y-118833561D02*
X120176074Y-118928800D01*
X120176074Y-118928800D02*
X120080836Y-118976419D01*
X120080836Y-118976419D02*
X119890360Y-118976419D01*
X119890360Y-118976419D02*
X119795122Y-118928800D01*
X119795122Y-118928800D02*
X119699884Y-118833561D01*
X119699884Y-118833561D02*
X119652265Y-118643085D01*
X119652265Y-118643085D02*
X119652265Y-118309752D01*
X119652265Y-118309752D02*
X119699884Y-118119276D01*
X119699884Y-118119276D02*
X119795122Y-118024038D01*
X119795122Y-118024038D02*
X119890360Y-117976419D01*
X121080836Y-118452609D02*
X120747503Y-118452609D01*
X120747503Y-118976419D02*
X120747503Y-117976419D01*
X120747503Y-117976419D02*
X121223693Y-117976419D01*
X121937979Y-118452609D02*
X121604646Y-118452609D01*
X121604646Y-118976419D02*
X121604646Y-117976419D01*
X121604646Y-117976419D02*
X122080836Y-117976419D01*
X119880360Y-123066419D02*
X120070836Y-123066419D01*
X120070836Y-123066419D02*
X120166074Y-123114038D01*
X120166074Y-123114038D02*
X120261312Y-123209276D01*
X120261312Y-123209276D02*
X120308931Y-123399752D01*
X120308931Y-123399752D02*
X120308931Y-123733085D01*
X120308931Y-123733085D02*
X120261312Y-123923561D01*
X120261312Y-123923561D02*
X120166074Y-124018800D01*
X120166074Y-124018800D02*
X120070836Y-124066419D01*
X120070836Y-124066419D02*
X119880360Y-124066419D01*
X119880360Y-124066419D02*
X119785122Y-124018800D01*
X119785122Y-124018800D02*
X119689884Y-123923561D01*
X119689884Y-123923561D02*
X119642265Y-123733085D01*
X119642265Y-123733085D02*
X119642265Y-123399752D01*
X119642265Y-123399752D02*
X119689884Y-123209276D01*
X119689884Y-123209276D02*
X119785122Y-123114038D01*
X119785122Y-123114038D02*
X119880360Y-123066419D01*
X120737503Y-124066419D02*
X120737503Y-123066419D01*
X120737503Y-123066419D02*
X121308931Y-124066419D01*
X121308931Y-124066419D02*
X121308931Y-123066419D01*
X134048667Y-116233800D02*
X134191524Y-116281419D01*
X134191524Y-116281419D02*
X134429619Y-116281419D01*
X134429619Y-116281419D02*
X134524857Y-116233800D01*
X134524857Y-116233800D02*
X134572476Y-116186180D01*
X134572476Y-116186180D02*
X134620095Y-116090942D01*
X134620095Y-116090942D02*
X134620095Y-115995704D01*
X134620095Y-115995704D02*
X134572476Y-115900466D01*
X134572476Y-115900466D02*
X134524857Y-115852847D01*
X134524857Y-115852847D02*
X134429619Y-115805228D01*
X134429619Y-115805228D02*
X134239143Y-115757609D01*
X134239143Y-115757609D02*
X134143905Y-115709990D01*
X134143905Y-115709990D02*
X134096286Y-115662371D01*
X134096286Y-115662371D02*
X134048667Y-115567133D01*
X134048667Y-115567133D02*
X134048667Y-115471895D01*
X134048667Y-115471895D02*
X134096286Y-115376657D01*
X134096286Y-115376657D02*
X134143905Y-115329038D01*
X134143905Y-115329038D02*
X134239143Y-115281419D01*
X134239143Y-115281419D02*
X134477238Y-115281419D01*
X134477238Y-115281419D02*
X134620095Y-115329038D01*
X134953429Y-115281419D02*
X135191524Y-116281419D01*
X135191524Y-116281419D02*
X135382000Y-115567133D01*
X135382000Y-115567133D02*
X135572476Y-116281419D01*
X135572476Y-116281419D02*
X135810572Y-115281419D01*
X136096286Y-115281419D02*
X136715333Y-115281419D01*
X136715333Y-115281419D02*
X136382000Y-115662371D01*
X136382000Y-115662371D02*
X136524857Y-115662371D01*
X136524857Y-115662371D02*
X136620095Y-115709990D01*
X136620095Y-115709990D02*
X136667714Y-115757609D01*
X136667714Y-115757609D02*
X136715333Y-115852847D01*
X136715333Y-115852847D02*
X136715333Y-116090942D01*
X136715333Y-116090942D02*
X136667714Y-116186180D01*
X136667714Y-116186180D02*
X136620095Y-116233800D01*
X136620095Y-116233800D02*
X136524857Y-116281419D01*
X136524857Y-116281419D02*
X136239143Y-116281419D01*
X136239143Y-116281419D02*
X136143905Y-116233800D01*
X136143905Y-116233800D02*
X136096286Y-116186180D01*
X138786360Y-117976419D02*
X138976836Y-117976419D01*
X138976836Y-117976419D02*
X139072074Y-118024038D01*
X139072074Y-118024038D02*
X139167312Y-118119276D01*
X139167312Y-118119276D02*
X139214931Y-118309752D01*
X139214931Y-118309752D02*
X139214931Y-118643085D01*
X139214931Y-118643085D02*
X139167312Y-118833561D01*
X139167312Y-118833561D02*
X139072074Y-118928800D01*
X139072074Y-118928800D02*
X138976836Y-118976419D01*
X138976836Y-118976419D02*
X138786360Y-118976419D01*
X138786360Y-118976419D02*
X138691122Y-118928800D01*
X138691122Y-118928800D02*
X138595884Y-118833561D01*
X138595884Y-118833561D02*
X138548265Y-118643085D01*
X138548265Y-118643085D02*
X138548265Y-118309752D01*
X138548265Y-118309752D02*
X138595884Y-118119276D01*
X138595884Y-118119276D02*
X138691122Y-118024038D01*
X138691122Y-118024038D02*
X138786360Y-117976419D01*
X139976836Y-118452609D02*
X139643503Y-118452609D01*
X139643503Y-118976419D02*
X139643503Y-117976419D01*
X139643503Y-117976419D02*
X140119693Y-117976419D01*
X140833979Y-118452609D02*
X140500646Y-118452609D01*
X140500646Y-118976419D02*
X140500646Y-117976419D01*
X140500646Y-117976419D02*
X140976836Y-117976419D01*
X138776360Y-123066419D02*
X138966836Y-123066419D01*
X138966836Y-123066419D02*
X139062074Y-123114038D01*
X139062074Y-123114038D02*
X139157312Y-123209276D01*
X139157312Y-123209276D02*
X139204931Y-123399752D01*
X139204931Y-123399752D02*
X139204931Y-123733085D01*
X139204931Y-123733085D02*
X139157312Y-123923561D01*
X139157312Y-123923561D02*
X139062074Y-124018800D01*
X139062074Y-124018800D02*
X138966836Y-124066419D01*
X138966836Y-124066419D02*
X138776360Y-124066419D01*
X138776360Y-124066419D02*
X138681122Y-124018800D01*
X138681122Y-124018800D02*
X138585884Y-123923561D01*
X138585884Y-123923561D02*
X138538265Y-123733085D01*
X138538265Y-123733085D02*
X138538265Y-123399752D01*
X138538265Y-123399752D02*
X138585884Y-123209276D01*
X138585884Y-123209276D02*
X138681122Y-123114038D01*
X138681122Y-123114038D02*
X138776360Y-123066419D01*
X139633503Y-124066419D02*
X139633503Y-123066419D01*
X139633503Y-123066419D02*
X140204931Y-124066419D01*
X140204931Y-124066419D02*
X140204931Y-123066419D01*
D11*
X135477333Y-108660819D02*
X135144000Y-108184628D01*
X134905905Y-108660819D02*
X134905905Y-107660819D01*
X134905905Y-107660819D02*
X135286857Y-107660819D01*
X135286857Y-107660819D02*
X135382095Y-107708438D01*
X135382095Y-107708438D02*
X135429714Y-107756057D01*
X135429714Y-107756057D02*
X135477333Y-107851295D01*
X135477333Y-107851295D02*
X135477333Y-107994152D01*
X135477333Y-107994152D02*
X135429714Y-108089390D01*
X135429714Y-108089390D02*
X135382095Y-108137009D01*
X135382095Y-108137009D02*
X135286857Y-108184628D01*
X135286857Y-108184628D02*
X134905905Y-108184628D01*
X135953524Y-108660819D02*
X136144000Y-108660819D01*
X136144000Y-108660819D02*
X136239238Y-108613200D01*
X136239238Y-108613200D02*
X136286857Y-108565580D01*
X136286857Y-108565580D02*
X136382095Y-108422723D01*
X136382095Y-108422723D02*
X136429714Y-108232247D01*
X136429714Y-108232247D02*
X136429714Y-107851295D01*
X136429714Y-107851295D02*
X136382095Y-107756057D01*
X136382095Y-107756057D02*
X136334476Y-107708438D01*
X136334476Y-107708438D02*
X136239238Y-107660819D01*
X136239238Y-107660819D02*
X136048762Y-107660819D01*
X136048762Y-107660819D02*
X135953524Y-107708438D01*
X135953524Y-107708438D02*
X135905905Y-107756057D01*
X135905905Y-107756057D02*
X135858286Y-107851295D01*
X135858286Y-107851295D02*
X135858286Y-108089390D01*
X135858286Y-108089390D02*
X135905905Y-108184628D01*
X135905905Y-108184628D02*
X135953524Y-108232247D01*
X135953524Y-108232247D02*
X136048762Y-108279866D01*
X136048762Y-108279866D02*
X136239238Y-108279866D01*
X136239238Y-108279866D02*
X136334476Y-108232247D01*
X136334476Y-108232247D02*
X136382095Y-108184628D01*
X136382095Y-108184628D02*
X136429714Y-108089390D01*
X190987142Y-108694819D02*
X190653809Y-108218628D01*
X190415714Y-108694819D02*
X190415714Y-107694819D01*
X190415714Y-107694819D02*
X190796666Y-107694819D01*
X190796666Y-107694819D02*
X190891904Y-107742438D01*
X190891904Y-107742438D02*
X190939523Y-107790057D01*
X190939523Y-107790057D02*
X190987142Y-107885295D01*
X190987142Y-107885295D02*
X190987142Y-108028152D01*
X190987142Y-108028152D02*
X190939523Y-108123390D01*
X190939523Y-108123390D02*
X190891904Y-108171009D01*
X190891904Y-108171009D02*
X190796666Y-108218628D01*
X190796666Y-108218628D02*
X190415714Y-108218628D01*
X191939523Y-108694819D02*
X191368095Y-108694819D01*
X191653809Y-108694819D02*
X191653809Y-107694819D01*
X191653809Y-107694819D02*
X191558571Y-107837676D01*
X191558571Y-107837676D02*
X191463333Y-107932914D01*
X191463333Y-107932914D02*
X191368095Y-107980533D01*
X192510952Y-108123390D02*
X192415714Y-108075771D01*
X192415714Y-108075771D02*
X192368095Y-108028152D01*
X192368095Y-108028152D02*
X192320476Y-107932914D01*
X192320476Y-107932914D02*
X192320476Y-107885295D01*
X192320476Y-107885295D02*
X192368095Y-107790057D01*
X192368095Y-107790057D02*
X192415714Y-107742438D01*
X192415714Y-107742438D02*
X192510952Y-107694819D01*
X192510952Y-107694819D02*
X192701428Y-107694819D01*
X192701428Y-107694819D02*
X192796666Y-107742438D01*
X192796666Y-107742438D02*
X192844285Y-107790057D01*
X192844285Y-107790057D02*
X192891904Y-107885295D01*
X192891904Y-107885295D02*
X192891904Y-107932914D01*
X192891904Y-107932914D02*
X192844285Y-108028152D01*
X192844285Y-108028152D02*
X192796666Y-108075771D01*
X192796666Y-108075771D02*
X192701428Y-108123390D01*
X192701428Y-108123390D02*
X192510952Y-108123390D01*
X192510952Y-108123390D02*
X192415714Y-108171009D01*
X192415714Y-108171009D02*
X192368095Y-108218628D01*
X192368095Y-108218628D02*
X192320476Y-108313866D01*
X192320476Y-108313866D02*
X192320476Y-108504342D01*
X192320476Y-108504342D02*
X192368095Y-108599580D01*
X192368095Y-108599580D02*
X192415714Y-108647200D01*
X192415714Y-108647200D02*
X192510952Y-108694819D01*
X192510952Y-108694819D02*
X192701428Y-108694819D01*
X192701428Y-108694819D02*
X192796666Y-108647200D01*
X192796666Y-108647200D02*
X192844285Y-108599580D01*
X192844285Y-108599580D02*
X192891904Y-108504342D01*
X192891904Y-108504342D02*
X192891904Y-108313866D01*
X192891904Y-108313866D02*
X192844285Y-108218628D01*
X192844285Y-108218628D02*
X192796666Y-108171009D01*
X192796666Y-108171009D02*
X192701428Y-108123390D01*
X172227142Y-108654819D02*
X171893809Y-108178628D01*
X171655714Y-108654819D02*
X171655714Y-107654819D01*
X171655714Y-107654819D02*
X172036666Y-107654819D01*
X172036666Y-107654819D02*
X172131904Y-107702438D01*
X172131904Y-107702438D02*
X172179523Y-107750057D01*
X172179523Y-107750057D02*
X172227142Y-107845295D01*
X172227142Y-107845295D02*
X172227142Y-107988152D01*
X172227142Y-107988152D02*
X172179523Y-108083390D01*
X172179523Y-108083390D02*
X172131904Y-108131009D01*
X172131904Y-108131009D02*
X172036666Y-108178628D01*
X172036666Y-108178628D02*
X171655714Y-108178628D01*
X173179523Y-108654819D02*
X172608095Y-108654819D01*
X172893809Y-108654819D02*
X172893809Y-107654819D01*
X172893809Y-107654819D02*
X172798571Y-107797676D01*
X172798571Y-107797676D02*
X172703333Y-107892914D01*
X172703333Y-107892914D02*
X172608095Y-107940533D01*
X174084285Y-107654819D02*
X173608095Y-107654819D01*
X173608095Y-107654819D02*
X173560476Y-108131009D01*
X173560476Y-108131009D02*
X173608095Y-108083390D01*
X173608095Y-108083390D02*
X173703333Y-108035771D01*
X173703333Y-108035771D02*
X173941428Y-108035771D01*
X173941428Y-108035771D02*
X174036666Y-108083390D01*
X174036666Y-108083390D02*
X174084285Y-108131009D01*
X174084285Y-108131009D02*
X174131904Y-108226247D01*
X174131904Y-108226247D02*
X174131904Y-108464342D01*
X174131904Y-108464342D02*
X174084285Y-108559580D01*
X174084285Y-108559580D02*
X174036666Y-108607200D01*
X174036666Y-108607200D02*
X173941428Y-108654819D01*
X173941428Y-108654819D02*
X173703333Y-108654819D01*
X173703333Y-108654819D02*
X173608095Y-108607200D01*
X173608095Y-108607200D02*
X173560476Y-108559580D01*
D13*
%TO.C,R1*%
X92480000Y-129794000D02*
X93170000Y-129794000D01*
X93170000Y-128074000D02*
X93170000Y-131514000D01*
X93170000Y-131514000D02*
X102410000Y-131514000D01*
X102410000Y-128074000D02*
X93170000Y-128074000D01*
X102410000Y-131514000D02*
X102410000Y-128074000D01*
X103100000Y-129794000D02*
X102410000Y-129794000D01*
%TO.C,R23*%
X218244000Y-115776000D02*
X218244000Y-125016000D01*
X218244000Y-125016000D02*
X221684000Y-125016000D01*
X219964000Y-115086000D02*
X219964000Y-115776000D01*
X219964000Y-125706000D02*
X219964000Y-125016000D01*
X221684000Y-115776000D02*
X218244000Y-115776000D01*
X221684000Y-125016000D02*
X221684000Y-115776000D01*
%TO.C,R19*%
X205256000Y-129794000D02*
X205946000Y-129794000D01*
X205946000Y-128074000D02*
X205946000Y-131514000D01*
X205946000Y-131514000D02*
X215186000Y-131514000D01*
X215186000Y-128074000D02*
X205946000Y-128074000D01*
X215186000Y-131514000D02*
X215186000Y-128074000D01*
X215876000Y-129794000D02*
X215186000Y-129794000D01*
%TO.C,R21*%
X205256000Y-110998000D02*
X205946000Y-110998000D01*
X205946000Y-109278000D02*
X205946000Y-112718000D01*
X205946000Y-112718000D02*
X215186000Y-112718000D01*
X215186000Y-109278000D02*
X205946000Y-109278000D01*
X215186000Y-112718000D02*
X215186000Y-109278000D01*
X215876000Y-110998000D02*
X215186000Y-110998000D01*
%TO.C,R17*%
X180652000Y-115776000D02*
X180652000Y-125016000D01*
X180652000Y-125016000D02*
X184092000Y-125016000D01*
X182372000Y-115086000D02*
X182372000Y-115776000D01*
X182372000Y-125706000D02*
X182372000Y-125016000D01*
X184092000Y-115776000D02*
X180652000Y-115776000D01*
X184092000Y-125016000D02*
X184092000Y-115776000D01*
%TO.C,R3*%
X92480000Y-110998000D02*
X93170000Y-110998000D01*
X93170000Y-109278000D02*
X93170000Y-112718000D01*
X93170000Y-112718000D02*
X102410000Y-112718000D01*
X102410000Y-109278000D02*
X93170000Y-109278000D01*
X102410000Y-112718000D02*
X102410000Y-109278000D01*
X103100000Y-110998000D02*
X102410000Y-110998000D01*
%TO.C,J1*%
D12*
X69822000Y-127856000D02*
X84722000Y-127856000D01*
X84722000Y-112956000D01*
X69822000Y-112956000D01*
X69822000Y-127856000D01*
D13*
%TO.C,R11*%
X143070000Y-115790000D02*
X143070000Y-125030000D01*
X143070000Y-125030000D02*
X146510000Y-125030000D01*
X144790000Y-115100000D02*
X144790000Y-115790000D01*
X144790000Y-125720000D02*
X144790000Y-125030000D01*
X146510000Y-115790000D02*
X143070000Y-115790000D01*
X146510000Y-125030000D02*
X146510000Y-115790000D01*
%TO.C,SW4*%
D12*
X151732000Y-125070000D02*
X156932000Y-125070000D01*
X156932000Y-116870000D01*
X151732000Y-116870000D01*
X151732000Y-125070000D01*
D13*
%TO.C,R16*%
X186460000Y-129794000D02*
X187150000Y-129794000D01*
X187150000Y-128074000D02*
X187150000Y-131514000D01*
X187150000Y-131514000D02*
X196390000Y-131514000D01*
X196390000Y-128074000D02*
X187150000Y-128074000D01*
X196390000Y-131514000D02*
X196390000Y-128074000D01*
X197080000Y-129794000D02*
X196390000Y-129794000D01*
%TO.C,SW5*%
D12*
X170374000Y-125004000D02*
X175574000Y-125004000D01*
X175574000Y-116804000D01*
X170374000Y-116804000D01*
X170374000Y-125004000D01*
D13*
%TO.C,R12*%
X148868000Y-110998000D02*
X149558000Y-110998000D01*
X149558000Y-109278000D02*
X149558000Y-112718000D01*
X149558000Y-112718000D02*
X158798000Y-112718000D01*
X158798000Y-109278000D02*
X149558000Y-109278000D01*
X158798000Y-112718000D02*
X158798000Y-109278000D01*
X159488000Y-110998000D02*
X158798000Y-110998000D01*
%TO.C,R20*%
X199448000Y-115776000D02*
X199448000Y-125016000D01*
X199448000Y-125016000D02*
X202888000Y-125016000D01*
X201168000Y-115086000D02*
X201168000Y-115776000D01*
X201168000Y-125706000D02*
X201168000Y-125016000D01*
X202888000Y-115776000D02*
X199448000Y-115776000D01*
X202888000Y-125016000D02*
X202888000Y-115776000D01*
%TO.C,R10*%
X148868000Y-129794000D02*
X149558000Y-129794000D01*
X149558000Y-128074000D02*
X149558000Y-131514000D01*
X149558000Y-131514000D02*
X158798000Y-131514000D01*
X158798000Y-128074000D02*
X149558000Y-128074000D01*
X158798000Y-131514000D02*
X158798000Y-128074000D01*
X159488000Y-129794000D02*
X158798000Y-129794000D01*
%TO.C,R14*%
X161856000Y-115776000D02*
X161856000Y-125016000D01*
X161856000Y-125016000D02*
X165296000Y-125016000D01*
X163576000Y-115086000D02*
X163576000Y-115776000D01*
X163576000Y-125706000D02*
X163576000Y-125016000D01*
X165296000Y-115776000D02*
X161856000Y-115776000D01*
X165296000Y-125016000D02*
X165296000Y-115776000D01*
%TO.C,SW8*%
D12*
X226762000Y-125004000D02*
X231962000Y-125004000D01*
X231962000Y-116804000D01*
X226762000Y-116804000D01*
X226762000Y-125004000D01*
D13*
%TO.C,R8*%
X124264000Y-115776000D02*
X124264000Y-125016000D01*
X124264000Y-125016000D02*
X127704000Y-125016000D01*
X125984000Y-115086000D02*
X125984000Y-115776000D01*
X125984000Y-125706000D02*
X125984000Y-125016000D01*
X127704000Y-115776000D02*
X124264000Y-115776000D01*
X127704000Y-125016000D02*
X127704000Y-115776000D01*
%TO.C,R5*%
X105468000Y-115780000D02*
X105468000Y-125020000D01*
X105468000Y-125020000D02*
X108908000Y-125020000D01*
X107188000Y-115090000D02*
X107188000Y-115780000D01*
X107188000Y-125710000D02*
X107188000Y-125020000D01*
X108908000Y-115780000D02*
X105468000Y-115780000D01*
X108908000Y-125020000D02*
X108908000Y-115780000D01*
%TO.C,R2*%
X86672000Y-115776000D02*
X86672000Y-125016000D01*
X86672000Y-125016000D02*
X90112000Y-125016000D01*
X88392000Y-115086000D02*
X88392000Y-115776000D01*
X88392000Y-125706000D02*
X88392000Y-125016000D01*
X90112000Y-115776000D02*
X86672000Y-115776000D01*
X90112000Y-125016000D02*
X90112000Y-115776000D01*
%TO.C,SW7*%
D12*
X207866000Y-125070000D02*
X213066000Y-125070000D01*
X213066000Y-116870000D01*
X207866000Y-116870000D01*
X207866000Y-125070000D01*
%TO.C,SW6*%
X189170000Y-125004000D02*
X194370000Y-125004000D01*
X194370000Y-116804000D01*
X189170000Y-116804000D01*
X189170000Y-125004000D01*
%TO.C,J2*%
X257076000Y-113190000D02*
X242176000Y-113190000D01*
X242176000Y-128090000D01*
X257076000Y-128090000D01*
X257076000Y-113190000D01*
%TO.C,SW1*%
X95190000Y-125004000D02*
X100390000Y-125004000D01*
X100390000Y-116804000D01*
X95190000Y-116804000D01*
X95190000Y-125004000D01*
D13*
%TO.C,R6*%
X111276000Y-110998000D02*
X111966000Y-110998000D01*
X111966000Y-109278000D02*
X111966000Y-112718000D01*
X111966000Y-112718000D02*
X121206000Y-112718000D01*
X121206000Y-109278000D02*
X111966000Y-109278000D01*
X121206000Y-112718000D02*
X121206000Y-109278000D01*
X121896000Y-110998000D02*
X121206000Y-110998000D01*
%TO.C,R24*%
X224052000Y-110998000D02*
X224742000Y-110998000D01*
X224742000Y-109278000D02*
X224742000Y-112718000D01*
X224742000Y-112718000D02*
X233982000Y-112718000D01*
X233982000Y-109278000D02*
X224742000Y-109278000D01*
X233982000Y-112718000D02*
X233982000Y-109278000D01*
X234672000Y-110998000D02*
X233982000Y-110998000D01*
%TO.C,R7*%
X130070000Y-129790000D02*
X130760000Y-129790000D01*
X130760000Y-128070000D02*
X130760000Y-131510000D01*
X130760000Y-131510000D02*
X140000000Y-131510000D01*
X140000000Y-128070000D02*
X130760000Y-128070000D01*
X140000000Y-131510000D02*
X140000000Y-128070000D01*
X140690000Y-129790000D02*
X140000000Y-129790000D01*
%TO.C,R4*%
X111276000Y-129794000D02*
X111966000Y-129794000D01*
X111966000Y-128074000D02*
X111966000Y-131514000D01*
X111966000Y-131514000D02*
X121206000Y-131514000D01*
X121206000Y-128074000D02*
X111966000Y-128074000D01*
X121206000Y-131514000D02*
X121206000Y-128074000D01*
X121896000Y-129794000D02*
X121206000Y-129794000D01*
%TO.C,R22*%
X224052000Y-129794000D02*
X224742000Y-129794000D01*
X224742000Y-128074000D02*
X224742000Y-131514000D01*
X224742000Y-131514000D02*
X233982000Y-131514000D01*
X233982000Y-128074000D02*
X224742000Y-128074000D01*
X233982000Y-131514000D02*
X233982000Y-128074000D01*
X234672000Y-129794000D02*
X233982000Y-129794000D01*
%TO.C,R13*%
X167664000Y-129794000D02*
X168354000Y-129794000D01*
X168354000Y-128074000D02*
X168354000Y-131514000D01*
X168354000Y-131514000D02*
X177594000Y-131514000D01*
X177594000Y-128074000D02*
X168354000Y-128074000D01*
X177594000Y-131514000D02*
X177594000Y-128074000D01*
X178284000Y-129794000D02*
X177594000Y-129794000D01*
%TO.C,SW2*%
D12*
X113886000Y-125004000D02*
X119086000Y-125004000D01*
X119086000Y-116804000D01*
X113886000Y-116804000D01*
X113886000Y-125004000D01*
%TO.C,SW3*%
X132782000Y-125004000D02*
X137982000Y-125004000D01*
X137982000Y-116804000D01*
X132782000Y-116804000D01*
X132782000Y-125004000D01*
D13*
%TO.C,R9*%
X130080000Y-111000000D02*
X130770000Y-111000000D01*
X130770000Y-109280000D02*
X130770000Y-112720000D01*
X130770000Y-112720000D02*
X140010000Y-112720000D01*
X140010000Y-109280000D02*
X130770000Y-109280000D01*
X140010000Y-112720000D02*
X140010000Y-109280000D01*
X140700000Y-111000000D02*
X140010000Y-111000000D01*
%TO.C,R18*%
X186460000Y-110998000D02*
X187150000Y-110998000D01*
X187150000Y-109278000D02*
X187150000Y-112718000D01*
X187150000Y-112718000D02*
X196390000Y-112718000D01*
X196390000Y-109278000D02*
X187150000Y-109278000D01*
X196390000Y-112718000D02*
X196390000Y-109278000D01*
X197080000Y-110998000D02*
X196390000Y-110998000D01*
%TO.C,R15*%
X167664000Y-110998000D02*
X168354000Y-110998000D01*
X168354000Y-109278000D02*
X168354000Y-112718000D01*
X168354000Y-112718000D02*
X177594000Y-112718000D01*
X177594000Y-109278000D02*
X168354000Y-109278000D01*
X177594000Y-112718000D02*
X177594000Y-109278000D01*
X178284000Y-110998000D02*
X177594000Y-110998000D01*
%TD*%
%LPC*%
D14*
%TO.C,R1*%
X104140000Y-129794000D03*
D15*
X91440000Y-129794000D03*
%TD*%
D14*
%TO.C,R23*%
X219964000Y-126746000D03*
D15*
X219964000Y-114046000D03*
%TD*%
D14*
%TO.C,R19*%
X216916000Y-129794000D03*
D15*
X204216000Y-129794000D03*
%TD*%
D14*
%TO.C,R21*%
X216916000Y-110998000D03*
D15*
X204216000Y-110998000D03*
%TD*%
D14*
%TO.C,R17*%
X182372000Y-126746000D03*
D15*
X182372000Y-114046000D03*
%TD*%
D14*
%TO.C,R3*%
X104140000Y-110998000D03*
D15*
X91440000Y-110998000D03*
%TD*%
D16*
%TO.C,J1*%
X79512000Y-125456000D03*
X79502000Y-115316000D03*
X84582000Y-120396000D03*
X84572000Y-122946000D03*
%TD*%
D14*
%TO.C,R11*%
X144790000Y-126760000D03*
D15*
X144790000Y-114060000D03*
%TD*%
D17*
%TO.C,SW4*%
X154432000Y-123140000D03*
X154432000Y-120650000D03*
%TD*%
D14*
%TO.C,R16*%
X198120000Y-129794000D03*
D15*
X185420000Y-129794000D03*
%TD*%
D17*
%TO.C,SW5*%
X173074000Y-123074000D03*
X173074000Y-120584000D03*
%TD*%
D14*
%TO.C,R12*%
X160528000Y-110998000D03*
D15*
X147828000Y-110998000D03*
%TD*%
D14*
%TO.C,R20*%
X201168000Y-126746000D03*
D15*
X201168000Y-114046000D03*
%TD*%
D14*
%TO.C,R10*%
X160528000Y-129794000D03*
D15*
X147828000Y-129794000D03*
%TD*%
D14*
%TO.C,R14*%
X163576000Y-126746000D03*
D15*
X163576000Y-114046000D03*
%TD*%
D17*
%TO.C,SW8*%
X229462000Y-123074000D03*
X229462000Y-120584000D03*
%TD*%
D14*
%TO.C,R8*%
X125984000Y-126746000D03*
D15*
X125984000Y-114046000D03*
%TD*%
D14*
%TO.C,R5*%
X107188000Y-126750000D03*
D15*
X107188000Y-114050000D03*
%TD*%
D14*
%TO.C,R2*%
X88392000Y-126746000D03*
D15*
X88392000Y-114046000D03*
%TD*%
D17*
%TO.C,SW7*%
X210566000Y-123140000D03*
X210566000Y-120650000D03*
%TD*%
%TO.C,SW6*%
X191870000Y-123074000D03*
X191870000Y-120584000D03*
%TD*%
D18*
%TO.C,H1*%
X253800000Y-105400000D03*
%TD*%
D16*
%TO.C,J2*%
X247386000Y-115590000D03*
X247396000Y-125730000D03*
X242316000Y-120650000D03*
X242326000Y-118100000D03*
%TD*%
D17*
%TO.C,SW1*%
X97890000Y-123074000D03*
X97890000Y-120584000D03*
%TD*%
D18*
%TO.C,H2*%
X253800000Y-135400000D03*
%TD*%
D14*
%TO.C,R6*%
X122936000Y-110998000D03*
D15*
X110236000Y-110998000D03*
%TD*%
D14*
%TO.C,R24*%
X235712000Y-110998000D03*
D15*
X223012000Y-110998000D03*
%TD*%
D14*
%TO.C,R7*%
X141730000Y-129790000D03*
D15*
X129030000Y-129790000D03*
%TD*%
D14*
%TO.C,R4*%
X110236000Y-129794000D03*
D15*
X122936000Y-129794000D03*
%TD*%
D14*
%TO.C,R22*%
X235712000Y-129794000D03*
D15*
X223012000Y-129794000D03*
%TD*%
D14*
%TO.C,R13*%
X179324000Y-129794000D03*
D15*
X166624000Y-129794000D03*
%TD*%
D17*
%TO.C,SW2*%
X116586000Y-123074000D03*
X116586000Y-120584000D03*
%TD*%
%TO.C,SW3*%
X135482000Y-123074000D03*
X135482000Y-120584000D03*
%TD*%
D18*
%TO.C,H3*%
X73100000Y-135400000D03*
%TD*%
D14*
%TO.C,R9*%
X141740000Y-111000000D03*
D15*
X129040000Y-111000000D03*
%TD*%
D14*
%TO.C,R18*%
X198120000Y-110998000D03*
D15*
X185420000Y-110998000D03*
%TD*%
D14*
%TO.C,R15*%
X179324000Y-110998000D03*
D15*
X166624000Y-110998000D03*
%TD*%
D18*
%TO.C,H4*%
X73100000Y-105400000D03*
%TD*%
%LPD*%
M02*
