%TF.GenerationSoftware,KiCad,Pcbnew,9.0.0*%
%TF.CreationDate,2025-08-17T09:20:06-07:00*%
%TF.ProjectId,FoxHuntAttenuator,466f7848-756e-4744-9174-74656e756174,rev?*%
%TF.SameCoordinates,Original*%
%TF.FileFunction,Copper,L2,Bot*%
%TF.FilePolarity,Positive*%
%FSLAX46Y46*%
G04 Gerber Fmt 4.6, Leading zero omitted, Abs format (unit mm)*
G04 Created by KiCad (PCBNEW 9.0.0) date 2025-08-17 09:20:06*
%MOMM*%
%LPD*%
G01*
G04 APERTURE LIST*
%TA.AperFunction,ComponentPad*%
%ADD10C,1.600000*%
%TD*%
%TA.AperFunction,ComponentPad*%
%ADD11O,1.600000X1.600000*%
%TD*%
%TA.AperFunction,ComponentPad*%
%ADD12C,2.000000*%
%TD*%
%TA.AperFunction,ComponentPad*%
%ADD13C,2.100000*%
%TD*%
G04 APERTURE END LIST*
D10*
%TO.P,R1,1*%
%TO.N,Net-(J1-In)*%
X104140000Y-129794000D03*
D11*
%TO.P,R1,2*%
%TO.N,GND*%
X91440000Y-129794000D03*
%TD*%
D10*
%TO.P,R23,1*%
%TO.N,Net-(SW7-B)*%
X219964000Y-126746000D03*
D11*
%TO.P,R23,2*%
%TO.N,Net-(J2-In)*%
X219964000Y-114046000D03*
%TD*%
D10*
%TO.P,R19,1*%
%TO.N,Net-(SW6-B)*%
X216916000Y-129794000D03*
D11*
%TO.P,R19,2*%
%TO.N,GND*%
X204216000Y-129794000D03*
%TD*%
D10*
%TO.P,R21,1*%
%TO.N,Net-(SW7-B)*%
X216916000Y-110998000D03*
D11*
%TO.P,R21,2*%
%TO.N,GND*%
X204216000Y-110998000D03*
%TD*%
D10*
%TO.P,R17,1*%
%TO.N,Net-(SW5-B)*%
X182372000Y-126746000D03*
D11*
%TO.P,R17,2*%
%TO.N,Net-(SW6-B)*%
X182372000Y-114046000D03*
%TD*%
D10*
%TO.P,R3,1*%
%TO.N,Net-(SW1-B)*%
X104140000Y-110998000D03*
D11*
%TO.P,R3,2*%
%TO.N,GND*%
X91440000Y-110998000D03*
%TD*%
D12*
%TO.P,J1,1,In*%
%TO.N,Net-(J1-In)*%
X84582000Y-120396000D03*
%TO.P,J1,2,Ext*%
%TO.N,GND*%
X84572000Y-122946000D03*
%TD*%
D10*
%TO.P,R11,1*%
%TO.N,Net-(SW3-B)*%
X144790000Y-126760000D03*
D11*
%TO.P,R11,2*%
%TO.N,Net-(SW4-B)*%
X144790000Y-114060000D03*
%TD*%
D13*
%TO.P,SW4,1,A*%
%TO.N,Net-(SW3-B)*%
X154432000Y-123140000D03*
%TO.P,SW4,2,B*%
%TO.N,Net-(SW4-B)*%
X154432000Y-120650000D03*
%TD*%
D10*
%TO.P,R16,1*%
%TO.N,Net-(SW5-B)*%
X198120000Y-129794000D03*
D11*
%TO.P,R16,2*%
%TO.N,GND*%
X185420000Y-129794000D03*
%TD*%
D13*
%TO.P,SW5,1,A*%
%TO.N,Net-(SW4-B)*%
X173074000Y-123074000D03*
%TO.P,SW5,2,B*%
%TO.N,Net-(SW5-B)*%
X173074000Y-120584000D03*
%TD*%
D10*
%TO.P,R12,1*%
%TO.N,Net-(SW4-B)*%
X160528000Y-110998000D03*
D11*
%TO.P,R12,2*%
%TO.N,GND*%
X147828000Y-110998000D03*
%TD*%
D10*
%TO.P,R20,1*%
%TO.N,Net-(SW6-B)*%
X201168000Y-126746000D03*
D11*
%TO.P,R20,2*%
%TO.N,Net-(SW7-B)*%
X201168000Y-114046000D03*
%TD*%
D10*
%TO.P,R10,1*%
%TO.N,Net-(SW3-B)*%
X160528000Y-129794000D03*
D11*
%TO.P,R10,2*%
%TO.N,GND*%
X147828000Y-129794000D03*
%TD*%
D10*
%TO.P,R14,1*%
%TO.N,Net-(SW4-B)*%
X163576000Y-126746000D03*
D11*
%TO.P,R14,2*%
%TO.N,Net-(SW5-B)*%
X163576000Y-114046000D03*
%TD*%
D13*
%TO.P,SW8,1,A*%
%TO.N,Net-(SW7-B)*%
X229462000Y-123074000D03*
%TO.P,SW8,2,B*%
%TO.N,Net-(J2-In)*%
X229462000Y-120584000D03*
%TD*%
D10*
%TO.P,R8,1*%
%TO.N,Net-(SW2-B)*%
X125984000Y-126746000D03*
D11*
%TO.P,R8,2*%
%TO.N,Net-(SW3-B)*%
X125984000Y-114046000D03*
%TD*%
D10*
%TO.P,R5,1*%
%TO.N,Net-(SW1-B)*%
X107188000Y-126750000D03*
D11*
%TO.P,R5,2*%
%TO.N,Net-(SW2-B)*%
X107188000Y-114050000D03*
%TD*%
D10*
%TO.P,R2,1*%
%TO.N,Net-(J1-In)*%
X88392000Y-126746000D03*
D11*
%TO.P,R2,2*%
%TO.N,Net-(SW1-B)*%
X88392000Y-114046000D03*
%TD*%
D13*
%TO.P,SW7,1,A*%
%TO.N,Net-(SW6-B)*%
X210566000Y-123140000D03*
%TO.P,SW7,2,B*%
%TO.N,Net-(SW7-B)*%
X210566000Y-120650000D03*
%TD*%
%TO.P,SW6,1,A*%
%TO.N,Net-(SW5-B)*%
X191870000Y-123074000D03*
%TO.P,SW6,2,B*%
%TO.N,Net-(SW6-B)*%
X191870000Y-120584000D03*
%TD*%
D12*
%TO.P,J2,1,In*%
%TO.N,Net-(J2-In)*%
X242316000Y-120650000D03*
%TO.P,J2,2,Ext*%
%TO.N,GND*%
X242326000Y-118100000D03*
%TD*%
D13*
%TO.P,SW1,1,A*%
%TO.N,Net-(J1-In)*%
X97890000Y-123074000D03*
%TO.P,SW1,2,B*%
%TO.N,Net-(SW1-B)*%
X97890000Y-120584000D03*
%TD*%
D10*
%TO.P,R6,1*%
%TO.N,Net-(SW2-B)*%
X122936000Y-110998000D03*
D11*
%TO.P,R6,2*%
%TO.N,GND*%
X110236000Y-110998000D03*
%TD*%
D10*
%TO.P,R24,1*%
%TO.N,Net-(J2-In)*%
X235712000Y-110998000D03*
D11*
%TO.P,R24,2*%
%TO.N,GND*%
X223012000Y-110998000D03*
%TD*%
D10*
%TO.P,R7,1*%
%TO.N,Net-(SW2-B)*%
X141730000Y-129790000D03*
D11*
%TO.P,R7,2*%
%TO.N,GND*%
X129030000Y-129790000D03*
%TD*%
D10*
%TO.P,R4,1*%
%TO.N,Net-(SW1-B)*%
X110236000Y-129794000D03*
D11*
%TO.P,R4,2*%
%TO.N,GND*%
X122936000Y-129794000D03*
%TD*%
D10*
%TO.P,R22,1*%
%TO.N,Net-(SW7-B)*%
X235712000Y-129794000D03*
D11*
%TO.P,R22,2*%
%TO.N,GND*%
X223012000Y-129794000D03*
%TD*%
D10*
%TO.P,R13,1*%
%TO.N,Net-(SW4-B)*%
X179324000Y-129794000D03*
D11*
%TO.P,R13,2*%
%TO.N,GND*%
X166624000Y-129794000D03*
%TD*%
D13*
%TO.P,SW2,1,A*%
%TO.N,Net-(SW1-B)*%
X116586000Y-123074000D03*
%TO.P,SW2,2,B*%
%TO.N,Net-(SW2-B)*%
X116586000Y-120584000D03*
%TD*%
%TO.P,SW3,1,A*%
%TO.N,Net-(SW2-B)*%
X135482000Y-123074000D03*
%TO.P,SW3,2,B*%
%TO.N,Net-(SW3-B)*%
X135482000Y-120584000D03*
%TD*%
D10*
%TO.P,R9,1*%
%TO.N,Net-(SW3-B)*%
X141740000Y-111000000D03*
D11*
%TO.P,R9,2*%
%TO.N,GND*%
X129040000Y-111000000D03*
%TD*%
D10*
%TO.P,R18,1*%
%TO.N,Net-(SW6-B)*%
X198120000Y-110998000D03*
D11*
%TO.P,R18,2*%
%TO.N,GND*%
X185420000Y-110998000D03*
%TD*%
D10*
%TO.P,R15,1*%
%TO.N,Net-(SW5-B)*%
X179324000Y-110998000D03*
D11*
%TO.P,R15,2*%
%TO.N,GND*%
X166624000Y-110998000D03*
%TD*%
%TA.AperFunction,Conductor*%
%TO.N,GND*%
G36*
X256490539Y-102628185D02*
G01*
X256536294Y-102680989D01*
X256547500Y-102732500D01*
X256547500Y-138059500D01*
X256527815Y-138126539D01*
X256475011Y-138172294D01*
X256423500Y-138183500D01*
X70474500Y-138183500D01*
X70407461Y-138163815D01*
X70361706Y-138111011D01*
X70350500Y-138059500D01*
X70350500Y-135274038D01*
X71499500Y-135274038D01*
X71499500Y-135525961D01*
X71538910Y-135774785D01*
X71616760Y-136014383D01*
X71731132Y-136238848D01*
X71879201Y-136442649D01*
X71879205Y-136442654D01*
X72057345Y-136620794D01*
X72057350Y-136620798D01*
X72235117Y-136749952D01*
X72261155Y-136768870D01*
X72404184Y-136841747D01*
X72485616Y-136883239D01*
X72485618Y-136883239D01*
X72485621Y-136883241D01*
X72725215Y-136961090D01*
X72974038Y-137000500D01*
X72974039Y-137000500D01*
X73225961Y-137000500D01*
X73225962Y-137000500D01*
X73474785Y-136961090D01*
X73714379Y-136883241D01*
X73938845Y-136768870D01*
X74142656Y-136620793D01*
X74320793Y-136442656D01*
X74468870Y-136238845D01*
X74583241Y-136014379D01*
X74661090Y-135774785D01*
X74700500Y-135525962D01*
X74700500Y-135274038D01*
X252199500Y-135274038D01*
X252199500Y-135525961D01*
X252238910Y-135774785D01*
X252316760Y-136014383D01*
X252431132Y-136238848D01*
X252579201Y-136442649D01*
X252579205Y-136442654D01*
X252757345Y-136620794D01*
X252757350Y-136620798D01*
X252935117Y-136749952D01*
X252961155Y-136768870D01*
X253104184Y-136841747D01*
X253185616Y-136883239D01*
X253185618Y-136883239D01*
X253185621Y-136883241D01*
X253425215Y-136961090D01*
X253674038Y-137000500D01*
X253674039Y-137000500D01*
X253925961Y-137000500D01*
X253925962Y-137000500D01*
X254174785Y-136961090D01*
X254414379Y-136883241D01*
X254638845Y-136768870D01*
X254842656Y-136620793D01*
X255020793Y-136442656D01*
X255168870Y-136238845D01*
X255283241Y-136014379D01*
X255361090Y-135774785D01*
X255400500Y-135525962D01*
X255400500Y-135274038D01*
X255361090Y-135025215D01*
X255283241Y-134785621D01*
X255283239Y-134785618D01*
X255283239Y-134785616D01*
X255241747Y-134704184D01*
X255168870Y-134561155D01*
X255149952Y-134535117D01*
X255020798Y-134357350D01*
X255020794Y-134357345D01*
X254842654Y-134179205D01*
X254842649Y-134179201D01*
X254638848Y-134031132D01*
X254638847Y-134031131D01*
X254638845Y-134031130D01*
X254568747Y-133995413D01*
X254414383Y-133916760D01*
X254174785Y-133838910D01*
X253925962Y-133799500D01*
X253674038Y-133799500D01*
X253549626Y-133819205D01*
X253425214Y-133838910D01*
X253185616Y-133916760D01*
X252961151Y-134031132D01*
X252757350Y-134179201D01*
X252757345Y-134179205D01*
X252579205Y-134357345D01*
X252579201Y-134357350D01*
X252431132Y-134561151D01*
X252316760Y-134785616D01*
X252238910Y-135025214D01*
X252199500Y-135274038D01*
X74700500Y-135274038D01*
X74661090Y-135025215D01*
X74583241Y-134785621D01*
X74583239Y-134785618D01*
X74583239Y-134785616D01*
X74541747Y-134704184D01*
X74468870Y-134561155D01*
X74449952Y-134535117D01*
X74320798Y-134357350D01*
X74320794Y-134357345D01*
X74142654Y-134179205D01*
X74142649Y-134179201D01*
X73938848Y-134031132D01*
X73938847Y-134031131D01*
X73938845Y-134031130D01*
X73868747Y-133995413D01*
X73714383Y-133916760D01*
X73474785Y-133838910D01*
X73225962Y-133799500D01*
X72974038Y-133799500D01*
X72849626Y-133819205D01*
X72725214Y-133838910D01*
X72485616Y-133916760D01*
X72261151Y-134031132D01*
X72057350Y-134179201D01*
X72057345Y-134179205D01*
X71879205Y-134357345D01*
X71879201Y-134357350D01*
X71731132Y-134561151D01*
X71616760Y-134785616D01*
X71538910Y-135025214D01*
X71499500Y-135274038D01*
X70350500Y-135274038D01*
X70350500Y-129544000D01*
X90163391Y-129544000D01*
X91124314Y-129544000D01*
X91119920Y-129548394D01*
X91067259Y-129639606D01*
X91040000Y-129741339D01*
X91040000Y-129846661D01*
X91067259Y-129948394D01*
X91119920Y-130039606D01*
X91124314Y-130044000D01*
X90163391Y-130044000D01*
X90172009Y-130098413D01*
X90235244Y-130293029D01*
X90328140Y-130475349D01*
X90448417Y-130640894D01*
X90448417Y-130640895D01*
X90593104Y-130785582D01*
X90758650Y-130905859D01*
X90940968Y-130998754D01*
X91135578Y-131061988D01*
X91190000Y-131070607D01*
X91190000Y-130109686D01*
X91194394Y-130114080D01*
X91285606Y-130166741D01*
X91387339Y-130194000D01*
X91492661Y-130194000D01*
X91594394Y-130166741D01*
X91685606Y-130114080D01*
X91690000Y-130109686D01*
X91690000Y-131070606D01*
X91744421Y-131061988D01*
X91939031Y-130998754D01*
X92121349Y-130905859D01*
X92286894Y-130785582D01*
X92286895Y-130785582D01*
X92431582Y-130640895D01*
X92431582Y-130640894D01*
X92551859Y-130475349D01*
X92644755Y-130293029D01*
X92707990Y-130098413D01*
X92716609Y-130044000D01*
X91755686Y-130044000D01*
X91760080Y-130039606D01*
X91812741Y-129948394D01*
X91840000Y-129846661D01*
X91840000Y-129741339D01*
X91826685Y-129691648D01*
X102839500Y-129691648D01*
X102839500Y-129896351D01*
X102871522Y-130098534D01*
X102934781Y-130293223D01*
X102998691Y-130418653D01*
X103025676Y-130471613D01*
X103027715Y-130475613D01*
X103148028Y-130641213D01*
X103292786Y-130785971D01*
X103447749Y-130898556D01*
X103458390Y-130906287D01*
X103574607Y-130965503D01*
X103640776Y-130999218D01*
X103640778Y-130999218D01*
X103640781Y-130999220D01*
X103745137Y-131033127D01*
X103835465Y-131062477D01*
X103936557Y-131078488D01*
X104037648Y-131094500D01*
X104037649Y-131094500D01*
X104242351Y-131094500D01*
X104242352Y-131094500D01*
X104444534Y-131062477D01*
X104639219Y-130999220D01*
X104821610Y-130906287D01*
X104914590Y-130838732D01*
X104987213Y-130785971D01*
X104987215Y-130785968D01*
X104987219Y-130785966D01*
X105131966Y-130641219D01*
X105131968Y-130641215D01*
X105131971Y-130641213D01*
X105184732Y-130568590D01*
X105252287Y-130475610D01*
X105345220Y-130293219D01*
X105408477Y-130098534D01*
X105440500Y-129896352D01*
X105440500Y-129691648D01*
X108935500Y-129691648D01*
X108935500Y-129896351D01*
X108967522Y-130098534D01*
X109030781Y-130293223D01*
X109094691Y-130418653D01*
X109121676Y-130471613D01*
X109123715Y-130475613D01*
X109244028Y-130641213D01*
X109388786Y-130785971D01*
X109543749Y-130898556D01*
X109554390Y-130906287D01*
X109670607Y-130965503D01*
X109736776Y-130999218D01*
X109736778Y-130999218D01*
X109736781Y-130999220D01*
X109841137Y-131033127D01*
X109931465Y-131062477D01*
X110032557Y-131078488D01*
X110133648Y-131094500D01*
X110133649Y-131094500D01*
X110338351Y-131094500D01*
X110338352Y-131094500D01*
X110540534Y-131062477D01*
X110735219Y-130999220D01*
X110917610Y-130906287D01*
X111010590Y-130838732D01*
X111083213Y-130785971D01*
X111083215Y-130785968D01*
X111083219Y-130785966D01*
X111227966Y-130641219D01*
X111227968Y-130641215D01*
X111227971Y-130641213D01*
X111280732Y-130568590D01*
X111348287Y-130475610D01*
X111441220Y-130293219D01*
X111504477Y-130098534D01*
X111536500Y-129896352D01*
X111536500Y-129691648D01*
X111513114Y-129544000D01*
X121659391Y-129544000D01*
X122620314Y-129544000D01*
X122615920Y-129548394D01*
X122563259Y-129639606D01*
X122536000Y-129741339D01*
X122536000Y-129846661D01*
X122563259Y-129948394D01*
X122615920Y-130039606D01*
X122620314Y-130044000D01*
X121659391Y-130044000D01*
X121668009Y-130098413D01*
X121731244Y-130293029D01*
X121824140Y-130475349D01*
X121944417Y-130640894D01*
X121944417Y-130640895D01*
X122089104Y-130785582D01*
X122254650Y-130905859D01*
X122436968Y-130998754D01*
X122631578Y-131061988D01*
X122686000Y-131070607D01*
X122686000Y-130109686D01*
X122690394Y-130114080D01*
X122781606Y-130166741D01*
X122883339Y-130194000D01*
X122988661Y-130194000D01*
X123090394Y-130166741D01*
X123181606Y-130114080D01*
X123186000Y-130109686D01*
X123186000Y-131070606D01*
X123240421Y-131061988D01*
X123435031Y-130998754D01*
X123617349Y-130905859D01*
X123782894Y-130785582D01*
X123782895Y-130785582D01*
X123927582Y-130640895D01*
X123927582Y-130640894D01*
X124047859Y-130475349D01*
X124140755Y-130293029D01*
X124203990Y-130098413D01*
X124212609Y-130044000D01*
X123251686Y-130044000D01*
X123256080Y-130039606D01*
X123308741Y-129948394D01*
X123336000Y-129846661D01*
X123336000Y-129741339D01*
X123308741Y-129639606D01*
X123256080Y-129548394D01*
X123251686Y-129544000D01*
X124212609Y-129544000D01*
X124211975Y-129540000D01*
X127753391Y-129540000D01*
X128714314Y-129540000D01*
X128709920Y-129544394D01*
X128657259Y-129635606D01*
X128630000Y-129737339D01*
X128630000Y-129842661D01*
X128657259Y-129944394D01*
X128709920Y-130035606D01*
X128714314Y-130040000D01*
X127753391Y-130040000D01*
X127762009Y-130094413D01*
X127825244Y-130289029D01*
X127918140Y-130471349D01*
X128038417Y-130636894D01*
X128038417Y-130636895D01*
X128183104Y-130781582D01*
X128348650Y-130901859D01*
X128530968Y-130994754D01*
X128725578Y-131057988D01*
X128780000Y-131066607D01*
X128780000Y-130105686D01*
X128784394Y-130110080D01*
X128875606Y-130162741D01*
X128977339Y-130190000D01*
X129082661Y-130190000D01*
X129184394Y-130162741D01*
X129275606Y-130110080D01*
X129280000Y-130105686D01*
X129280000Y-131066606D01*
X129334421Y-131057988D01*
X129529031Y-130994754D01*
X129711349Y-130901859D01*
X129876894Y-130781582D01*
X129876895Y-130781582D01*
X130021582Y-130636895D01*
X130021582Y-130636894D01*
X130141859Y-130471349D01*
X130234755Y-130289029D01*
X130297990Y-130094413D01*
X130306609Y-130040000D01*
X129345686Y-130040000D01*
X129350080Y-130035606D01*
X129402741Y-129944394D01*
X129430000Y-129842661D01*
X129430000Y-129737339D01*
X129416685Y-129687648D01*
X140429500Y-129687648D01*
X140429500Y-129892352D01*
X140430134Y-129896352D01*
X140461522Y-130094534D01*
X140524781Y-130289223D01*
X140617715Y-130471613D01*
X140738028Y-130637213D01*
X140882786Y-130781971D01*
X141037749Y-130894556D01*
X141048390Y-130902287D01*
X141164607Y-130961503D01*
X141230776Y-130995218D01*
X141230778Y-130995218D01*
X141230781Y-130995220D01*
X141335137Y-131029127D01*
X141425465Y-131058477D01*
X141526557Y-131074488D01*
X141627648Y-131090500D01*
X141627649Y-131090500D01*
X141832351Y-131090500D01*
X141832352Y-131090500D01*
X142034534Y-131058477D01*
X142229219Y-130995220D01*
X142411610Y-130902287D01*
X142571707Y-130785971D01*
X142577213Y-130781971D01*
X142577215Y-130781968D01*
X142577219Y-130781966D01*
X142721966Y-130637219D01*
X142721968Y-130637215D01*
X142721971Y-130637213D01*
X142774732Y-130564590D01*
X142842287Y-130471610D01*
X142935220Y-130289219D01*
X142998477Y-130094534D01*
X143006481Y-130044000D01*
X143015424Y-129987539D01*
X143029866Y-129896352D01*
X143030500Y-129892352D01*
X143030500Y-129687648D01*
X143007748Y-129544000D01*
X146551391Y-129544000D01*
X147512314Y-129544000D01*
X147507920Y-129548394D01*
X147455259Y-129639606D01*
X147428000Y-129741339D01*
X147428000Y-129846661D01*
X147455259Y-129948394D01*
X147507920Y-130039606D01*
X147512314Y-130044000D01*
X146551391Y-130044000D01*
X146560009Y-130098413D01*
X146623244Y-130293029D01*
X146716140Y-130475349D01*
X146836417Y-130640894D01*
X146836417Y-130640895D01*
X146981104Y-130785582D01*
X147146650Y-130905859D01*
X147328968Y-130998754D01*
X147523578Y-131061988D01*
X147578000Y-131070607D01*
X147578000Y-130109686D01*
X147582394Y-130114080D01*
X147673606Y-130166741D01*
X147775339Y-130194000D01*
X147880661Y-130194000D01*
X147982394Y-130166741D01*
X148073606Y-130114080D01*
X148078000Y-130109686D01*
X148078000Y-131070606D01*
X148132421Y-131061988D01*
X148327031Y-130998754D01*
X148509349Y-130905859D01*
X148674894Y-130785582D01*
X148674895Y-130785582D01*
X148819582Y-130640895D01*
X148819582Y-130640894D01*
X148939859Y-130475349D01*
X149032755Y-130293029D01*
X149095990Y-130098413D01*
X149104609Y-130044000D01*
X148143686Y-130044000D01*
X148148080Y-130039606D01*
X148200741Y-129948394D01*
X148228000Y-129846661D01*
X148228000Y-129741339D01*
X148214685Y-129691648D01*
X159227500Y-129691648D01*
X159227500Y-129896351D01*
X159259522Y-130098534D01*
X159322781Y-130293223D01*
X159386691Y-130418653D01*
X159413676Y-130471613D01*
X159415715Y-130475613D01*
X159536028Y-130641213D01*
X159680786Y-130785971D01*
X159835749Y-130898556D01*
X159846390Y-130906287D01*
X159962607Y-130965503D01*
X160028776Y-130999218D01*
X160028778Y-130999218D01*
X160028781Y-130999220D01*
X160133137Y-131033127D01*
X160223465Y-131062477D01*
X160324557Y-131078488D01*
X160425648Y-131094500D01*
X160425649Y-131094500D01*
X160630351Y-131094500D01*
X160630352Y-131094500D01*
X160832534Y-131062477D01*
X161027219Y-130999220D01*
X161209610Y-130906287D01*
X161302590Y-130838732D01*
X161375213Y-130785971D01*
X161375215Y-130785968D01*
X161375219Y-130785966D01*
X161519966Y-130641219D01*
X161519968Y-130641215D01*
X161519971Y-130641213D01*
X161572732Y-130568590D01*
X161640287Y-130475610D01*
X161733220Y-130293219D01*
X161796477Y-130098534D01*
X161828500Y-129896352D01*
X161828500Y-129691648D01*
X161805114Y-129544000D01*
X165347391Y-129544000D01*
X166308314Y-129544000D01*
X166303920Y-129548394D01*
X166251259Y-129639606D01*
X166224000Y-129741339D01*
X166224000Y-129846661D01*
X166251259Y-129948394D01*
X166303920Y-130039606D01*
X166308314Y-130044000D01*
X165347391Y-130044000D01*
X165356009Y-130098413D01*
X165419244Y-130293029D01*
X165512140Y-130475349D01*
X165632417Y-130640894D01*
X165632417Y-130640895D01*
X165777104Y-130785582D01*
X165942650Y-130905859D01*
X166124968Y-130998754D01*
X166319578Y-131061988D01*
X166374000Y-131070607D01*
X166374000Y-130109686D01*
X166378394Y-130114080D01*
X166469606Y-130166741D01*
X166571339Y-130194000D01*
X166676661Y-130194000D01*
X166778394Y-130166741D01*
X166869606Y-130114080D01*
X166874000Y-130109686D01*
X166874000Y-131070606D01*
X166928421Y-131061988D01*
X167123031Y-130998754D01*
X167305349Y-130905859D01*
X167470894Y-130785582D01*
X167470895Y-130785582D01*
X167615582Y-130640895D01*
X167615582Y-130640894D01*
X167735859Y-130475349D01*
X167828755Y-130293029D01*
X167891990Y-130098413D01*
X167900609Y-130044000D01*
X166939686Y-130044000D01*
X166944080Y-130039606D01*
X166996741Y-129948394D01*
X167024000Y-129846661D01*
X167024000Y-129741339D01*
X167010685Y-129691648D01*
X178023500Y-129691648D01*
X178023500Y-129896351D01*
X178055522Y-130098534D01*
X178118781Y-130293223D01*
X178182691Y-130418653D01*
X178209676Y-130471613D01*
X178211715Y-130475613D01*
X178332028Y-130641213D01*
X178476786Y-130785971D01*
X178631749Y-130898556D01*
X178642390Y-130906287D01*
X178758607Y-130965503D01*
X178824776Y-130999218D01*
X178824778Y-130999218D01*
X178824781Y-130999220D01*
X178929137Y-131033127D01*
X179019465Y-131062477D01*
X179120557Y-131078488D01*
X179221648Y-131094500D01*
X179221649Y-131094500D01*
X179426351Y-131094500D01*
X179426352Y-131094500D01*
X179628534Y-131062477D01*
X179823219Y-130999220D01*
X180005610Y-130906287D01*
X180098590Y-130838732D01*
X180171213Y-130785971D01*
X180171215Y-130785968D01*
X180171219Y-130785966D01*
X180315966Y-130641219D01*
X180315968Y-130641215D01*
X180315971Y-130641213D01*
X180368732Y-130568590D01*
X180436287Y-130475610D01*
X180529220Y-130293219D01*
X180592477Y-130098534D01*
X180624500Y-129896352D01*
X180624500Y-129691648D01*
X180601114Y-129544000D01*
X184143391Y-129544000D01*
X185104314Y-129544000D01*
X185099920Y-129548394D01*
X185047259Y-129639606D01*
X185020000Y-129741339D01*
X185020000Y-129846661D01*
X185047259Y-129948394D01*
X185099920Y-130039606D01*
X185104314Y-130044000D01*
X184143391Y-130044000D01*
X184152009Y-130098413D01*
X184215244Y-130293029D01*
X184308140Y-130475349D01*
X184428417Y-130640894D01*
X184428417Y-130640895D01*
X184573104Y-130785582D01*
X184738650Y-130905859D01*
X184920968Y-130998754D01*
X185115578Y-131061988D01*
X185170000Y-131070607D01*
X185170000Y-130109686D01*
X185174394Y-130114080D01*
X185265606Y-130166741D01*
X185367339Y-130194000D01*
X185472661Y-130194000D01*
X185574394Y-130166741D01*
X185665606Y-130114080D01*
X185670000Y-130109686D01*
X185670000Y-131070606D01*
X185724421Y-131061988D01*
X185919031Y-130998754D01*
X186101349Y-130905859D01*
X186266894Y-130785582D01*
X186266895Y-130785582D01*
X186411582Y-130640895D01*
X186411582Y-130640894D01*
X186531859Y-130475349D01*
X186624755Y-130293029D01*
X186687990Y-130098413D01*
X186696609Y-130044000D01*
X185735686Y-130044000D01*
X185740080Y-130039606D01*
X185792741Y-129948394D01*
X185820000Y-129846661D01*
X185820000Y-129741339D01*
X185806685Y-129691648D01*
X196819500Y-129691648D01*
X196819500Y-129896351D01*
X196851522Y-130098534D01*
X196914781Y-130293223D01*
X196978691Y-130418653D01*
X197005676Y-130471613D01*
X197007715Y-130475613D01*
X197128028Y-130641213D01*
X197272786Y-130785971D01*
X197427749Y-130898556D01*
X197438390Y-130906287D01*
X197554607Y-130965503D01*
X197620776Y-130999218D01*
X197620778Y-130999218D01*
X197620781Y-130999220D01*
X197725137Y-131033127D01*
X197815465Y-131062477D01*
X197916557Y-131078488D01*
X198017648Y-131094500D01*
X198017649Y-131094500D01*
X198222351Y-131094500D01*
X198222352Y-131094500D01*
X198424534Y-131062477D01*
X198619219Y-130999220D01*
X198801610Y-130906287D01*
X198894590Y-130838732D01*
X198967213Y-130785971D01*
X198967215Y-130785968D01*
X198967219Y-130785966D01*
X199111966Y-130641219D01*
X199111968Y-130641215D01*
X199111971Y-130641213D01*
X199164732Y-130568590D01*
X199232287Y-130475610D01*
X199325220Y-130293219D01*
X199388477Y-130098534D01*
X199420500Y-129896352D01*
X199420500Y-129691648D01*
X199397114Y-129544000D01*
X202939391Y-129544000D01*
X203900314Y-129544000D01*
X203895920Y-129548394D01*
X203843259Y-129639606D01*
X203816000Y-129741339D01*
X203816000Y-129846661D01*
X203843259Y-129948394D01*
X203895920Y-130039606D01*
X203900314Y-130044000D01*
X202939391Y-130044000D01*
X202948009Y-130098413D01*
X203011244Y-130293029D01*
X203104140Y-130475349D01*
X203224417Y-130640894D01*
X203224417Y-130640895D01*
X203369104Y-130785582D01*
X203534650Y-130905859D01*
X203716968Y-130998754D01*
X203911578Y-131061988D01*
X203966000Y-131070607D01*
X203966000Y-130109686D01*
X203970394Y-130114080D01*
X204061606Y-130166741D01*
X204163339Y-130194000D01*
X204268661Y-130194000D01*
X204370394Y-130166741D01*
X204461606Y-130114080D01*
X204466000Y-130109686D01*
X204466000Y-131070607D01*
X204520421Y-131061988D01*
X204715031Y-130998754D01*
X204897349Y-130905859D01*
X205062894Y-130785582D01*
X205062895Y-130785582D01*
X205207582Y-130640895D01*
X205207582Y-130640894D01*
X205327859Y-130475349D01*
X205420755Y-130293029D01*
X205483990Y-130098413D01*
X205492609Y-130044000D01*
X204531686Y-130044000D01*
X204536080Y-130039606D01*
X204588741Y-129948394D01*
X204616000Y-129846661D01*
X204616000Y-129741339D01*
X204602685Y-129691648D01*
X215615500Y-129691648D01*
X215615500Y-129896351D01*
X215647522Y-130098534D01*
X215710781Y-130293223D01*
X215774691Y-130418653D01*
X215801676Y-130471613D01*
X215803715Y-130475613D01*
X215924028Y-130641213D01*
X216068786Y-130785971D01*
X216223749Y-130898556D01*
X216234390Y-130906287D01*
X216350607Y-130965503D01*
X216416776Y-130999218D01*
X216416778Y-130999218D01*
X216416781Y-130999220D01*
X216521137Y-131033127D01*
X216611465Y-131062477D01*
X216712557Y-131078488D01*
X216813648Y-131094500D01*
X216813649Y-131094500D01*
X217018351Y-131094500D01*
X217018352Y-131094500D01*
X217220534Y-131062477D01*
X217415219Y-130999220D01*
X217597610Y-130906287D01*
X217690590Y-130838732D01*
X217763213Y-130785971D01*
X217763215Y-130785968D01*
X217763219Y-130785966D01*
X217907966Y-130641219D01*
X217907968Y-130641215D01*
X217907971Y-130641213D01*
X217960732Y-130568590D01*
X218028287Y-130475610D01*
X218121220Y-130293219D01*
X218184477Y-130098534D01*
X218216500Y-129896352D01*
X218216500Y-129691648D01*
X218193114Y-129544000D01*
X221735391Y-129544000D01*
X222696314Y-129544000D01*
X222691920Y-129548394D01*
X222639259Y-129639606D01*
X222612000Y-129741339D01*
X222612000Y-129846661D01*
X222639259Y-129948394D01*
X222691920Y-130039606D01*
X222696314Y-130044000D01*
X221735391Y-130044000D01*
X221744009Y-130098413D01*
X221807244Y-130293029D01*
X221900140Y-130475349D01*
X222020417Y-130640894D01*
X222020417Y-130640895D01*
X222165104Y-130785582D01*
X222330650Y-130905859D01*
X222512968Y-130998754D01*
X222707578Y-131061988D01*
X222762000Y-131070607D01*
X222762000Y-130109686D01*
X222766394Y-130114080D01*
X222857606Y-130166741D01*
X222959339Y-130194000D01*
X223064661Y-130194000D01*
X223166394Y-130166741D01*
X223257606Y-130114080D01*
X223262000Y-130109686D01*
X223262000Y-131070607D01*
X223316421Y-131061988D01*
X223511031Y-130998754D01*
X223693349Y-130905859D01*
X223858894Y-130785582D01*
X223858895Y-130785582D01*
X224003582Y-130640895D01*
X224003582Y-130640894D01*
X224123859Y-130475349D01*
X224216755Y-130293029D01*
X224279990Y-130098413D01*
X224288609Y-130044000D01*
X223327686Y-130044000D01*
X223332080Y-130039606D01*
X223384741Y-129948394D01*
X223412000Y-129846661D01*
X223412000Y-129741339D01*
X223398685Y-129691648D01*
X234411500Y-129691648D01*
X234411500Y-129896351D01*
X234443522Y-130098534D01*
X234506781Y-130293223D01*
X234570691Y-130418653D01*
X234597676Y-130471613D01*
X234599715Y-130475613D01*
X234720028Y-130641213D01*
X234864786Y-130785971D01*
X235019749Y-130898556D01*
X235030390Y-130906287D01*
X235146607Y-130965503D01*
X235212776Y-130999218D01*
X235212778Y-130999218D01*
X235212781Y-130999220D01*
X235317137Y-131033127D01*
X235407465Y-131062477D01*
X235508557Y-131078488D01*
X235609648Y-131094500D01*
X235609649Y-131094500D01*
X235814351Y-131094500D01*
X235814352Y-131094500D01*
X236016534Y-131062477D01*
X236211219Y-130999220D01*
X236393610Y-130906287D01*
X236486590Y-130838732D01*
X236559213Y-130785971D01*
X236559215Y-130785968D01*
X236559219Y-130785966D01*
X236703966Y-130641219D01*
X236703968Y-130641215D01*
X236703971Y-130641213D01*
X236756732Y-130568590D01*
X236824287Y-130475610D01*
X236917220Y-130293219D01*
X236980477Y-130098534D01*
X237012500Y-129896352D01*
X237012500Y-129691648D01*
X236997931Y-129599664D01*
X236980477Y-129489465D01*
X236917218Y-129294776D01*
X236824419Y-129112650D01*
X236824287Y-129112390D01*
X236816556Y-129101749D01*
X236703971Y-128946786D01*
X236559213Y-128802028D01*
X236393613Y-128681715D01*
X236393612Y-128681714D01*
X236393610Y-128681713D01*
X236336653Y-128652691D01*
X236211223Y-128588781D01*
X236016534Y-128525522D01*
X235841995Y-128497878D01*
X235814352Y-128493500D01*
X235609648Y-128493500D01*
X235585329Y-128497351D01*
X235407465Y-128525522D01*
X235212776Y-128588781D01*
X235030386Y-128681715D01*
X234864786Y-128802028D01*
X234720028Y-128946786D01*
X234599715Y-129112386D01*
X234506781Y-129294776D01*
X234443522Y-129489465D01*
X234411500Y-129691648D01*
X223398685Y-129691648D01*
X223384741Y-129639606D01*
X223332080Y-129548394D01*
X223327686Y-129544000D01*
X224288609Y-129544000D01*
X224279990Y-129489586D01*
X224216755Y-129294970D01*
X224123859Y-129112650D01*
X224003582Y-128947105D01*
X224003582Y-128947104D01*
X223858895Y-128802417D01*
X223693349Y-128682140D01*
X223511029Y-128589244D01*
X223316413Y-128526009D01*
X223262000Y-128517390D01*
X223262000Y-129478314D01*
X223257606Y-129473920D01*
X223166394Y-129421259D01*
X223064661Y-129394000D01*
X222959339Y-129394000D01*
X222857606Y-129421259D01*
X222766394Y-129473920D01*
X222762000Y-129478314D01*
X222762000Y-128517390D01*
X222707586Y-128526009D01*
X222512970Y-128589244D01*
X222330650Y-128682140D01*
X222165105Y-128802417D01*
X222165104Y-128802417D01*
X222020417Y-128947104D01*
X222020417Y-128947105D01*
X221900140Y-129112650D01*
X221807244Y-129294970D01*
X221744009Y-129489586D01*
X221735391Y-129544000D01*
X218193114Y-129544000D01*
X218184477Y-129489466D01*
X218121220Y-129294781D01*
X218121218Y-129294778D01*
X218121218Y-129294776D01*
X218028419Y-129112650D01*
X218028287Y-129112390D01*
X218020556Y-129101749D01*
X217907971Y-128946786D01*
X217763213Y-128802028D01*
X217597613Y-128681715D01*
X217597612Y-128681714D01*
X217597610Y-128681713D01*
X217540653Y-128652691D01*
X217415223Y-128588781D01*
X217220534Y-128525522D01*
X217045995Y-128497878D01*
X217018352Y-128493500D01*
X216813648Y-128493500D01*
X216789329Y-128497351D01*
X216611465Y-128525522D01*
X216416776Y-128588781D01*
X216234386Y-128681715D01*
X216068786Y-128802028D01*
X215924028Y-128946786D01*
X215803715Y-129112386D01*
X215710781Y-129294776D01*
X215647522Y-129489465D01*
X215615500Y-129691648D01*
X204602685Y-129691648D01*
X204588741Y-129639606D01*
X204536080Y-129548394D01*
X204531686Y-129544000D01*
X205492609Y-129544000D01*
X205483990Y-129489586D01*
X205420755Y-129294970D01*
X205327859Y-129112650D01*
X205207582Y-128947105D01*
X205207582Y-128947104D01*
X205062895Y-128802417D01*
X204897349Y-128682140D01*
X204715029Y-128589244D01*
X204520413Y-128526009D01*
X204466000Y-128517390D01*
X204466000Y-129478314D01*
X204461606Y-129473920D01*
X204370394Y-129421259D01*
X204268661Y-129394000D01*
X204163339Y-129394000D01*
X204061606Y-129421259D01*
X203970394Y-129473920D01*
X203966000Y-129478314D01*
X203966000Y-128517390D01*
X203911586Y-128526009D01*
X203716970Y-128589244D01*
X203534650Y-128682140D01*
X203369105Y-128802417D01*
X203369104Y-128802417D01*
X203224417Y-128947104D01*
X203224417Y-128947105D01*
X203104140Y-129112650D01*
X203011244Y-129294970D01*
X202948009Y-129489586D01*
X202939391Y-129544000D01*
X199397114Y-129544000D01*
X199388477Y-129489466D01*
X199325220Y-129294781D01*
X199325218Y-129294778D01*
X199325218Y-129294776D01*
X199232419Y-129112650D01*
X199232287Y-129112390D01*
X199224556Y-129101749D01*
X199111971Y-128946786D01*
X198967213Y-128802028D01*
X198801613Y-128681715D01*
X198801612Y-128681714D01*
X198801610Y-128681713D01*
X198744653Y-128652691D01*
X198619223Y-128588781D01*
X198424534Y-128525522D01*
X198249995Y-128497878D01*
X198222352Y-128493500D01*
X198017648Y-128493500D01*
X197993329Y-128497351D01*
X197815465Y-128525522D01*
X197620776Y-128588781D01*
X197438386Y-128681715D01*
X197272786Y-128802028D01*
X197128028Y-128946786D01*
X197007715Y-129112386D01*
X196914781Y-129294776D01*
X196851522Y-129489465D01*
X196819500Y-129691648D01*
X185806685Y-129691648D01*
X185792741Y-129639606D01*
X185740080Y-129548394D01*
X185735686Y-129544000D01*
X186696609Y-129544000D01*
X186687990Y-129489586D01*
X186624755Y-129294970D01*
X186531859Y-129112650D01*
X186411582Y-128947105D01*
X186411582Y-128947104D01*
X186266895Y-128802417D01*
X186101349Y-128682140D01*
X185919029Y-128589244D01*
X185724413Y-128526009D01*
X185670000Y-128517390D01*
X185670000Y-129478314D01*
X185665606Y-129473920D01*
X185574394Y-129421259D01*
X185472661Y-129394000D01*
X185367339Y-129394000D01*
X185265606Y-129421259D01*
X185174394Y-129473920D01*
X185170000Y-129478314D01*
X185170000Y-128517390D01*
X185115586Y-128526009D01*
X184920970Y-128589244D01*
X184738650Y-128682140D01*
X184573105Y-128802417D01*
X184573104Y-128802417D01*
X184428417Y-128947104D01*
X184428417Y-128947105D01*
X184308140Y-129112650D01*
X184215244Y-129294970D01*
X184152009Y-129489586D01*
X184143391Y-129544000D01*
X180601114Y-129544000D01*
X180592477Y-129489466D01*
X180529220Y-129294781D01*
X180529218Y-129294778D01*
X180529218Y-129294776D01*
X180436419Y-129112650D01*
X180436287Y-129112390D01*
X180428556Y-129101749D01*
X180315971Y-128946786D01*
X180171213Y-128802028D01*
X180005613Y-128681715D01*
X180005612Y-128681714D01*
X180005610Y-128681713D01*
X179948653Y-128652691D01*
X179823223Y-128588781D01*
X179628534Y-128525522D01*
X179453995Y-128497878D01*
X179426352Y-128493500D01*
X179221648Y-128493500D01*
X179197329Y-128497351D01*
X179019465Y-128525522D01*
X178824776Y-128588781D01*
X178642386Y-128681715D01*
X178476786Y-128802028D01*
X178332028Y-128946786D01*
X178211715Y-129112386D01*
X178118781Y-129294776D01*
X178055522Y-129489465D01*
X178023500Y-129691648D01*
X167010685Y-129691648D01*
X166996741Y-129639606D01*
X166944080Y-129548394D01*
X166939686Y-129544000D01*
X167900609Y-129544000D01*
X167891990Y-129489586D01*
X167828755Y-129294970D01*
X167735859Y-129112650D01*
X167615582Y-128947105D01*
X167615582Y-128947104D01*
X167470895Y-128802417D01*
X167305349Y-128682140D01*
X167123029Y-128589244D01*
X166928413Y-128526009D01*
X166874000Y-128517390D01*
X166874000Y-129478314D01*
X166869606Y-129473920D01*
X166778394Y-129421259D01*
X166676661Y-129394000D01*
X166571339Y-129394000D01*
X166469606Y-129421259D01*
X166378394Y-129473920D01*
X166374000Y-129478314D01*
X166374000Y-128517390D01*
X166319586Y-128526009D01*
X166124970Y-128589244D01*
X165942650Y-128682140D01*
X165777105Y-128802417D01*
X165777104Y-128802417D01*
X165632417Y-128947104D01*
X165632417Y-128947105D01*
X165512140Y-129112650D01*
X165419244Y-129294970D01*
X165356009Y-129489586D01*
X165347391Y-129544000D01*
X161805114Y-129544000D01*
X161796477Y-129489466D01*
X161733220Y-129294781D01*
X161733218Y-129294778D01*
X161733218Y-129294776D01*
X161640419Y-129112650D01*
X161640287Y-129112390D01*
X161632556Y-129101749D01*
X161519971Y-128946786D01*
X161375213Y-128802028D01*
X161209613Y-128681715D01*
X161209612Y-128681714D01*
X161209610Y-128681713D01*
X161152653Y-128652691D01*
X161027223Y-128588781D01*
X160832534Y-128525522D01*
X160657995Y-128497878D01*
X160630352Y-128493500D01*
X160425648Y-128493500D01*
X160401329Y-128497351D01*
X160223465Y-128525522D01*
X160028776Y-128588781D01*
X159846386Y-128681715D01*
X159680786Y-128802028D01*
X159536028Y-128946786D01*
X159415715Y-129112386D01*
X159322781Y-129294776D01*
X159259522Y-129489465D01*
X159227500Y-129691648D01*
X148214685Y-129691648D01*
X148200741Y-129639606D01*
X148148080Y-129548394D01*
X148143686Y-129544000D01*
X149104609Y-129544000D01*
X149095990Y-129489586D01*
X149032755Y-129294970D01*
X148939859Y-129112650D01*
X148819582Y-128947105D01*
X148819582Y-128947104D01*
X148674895Y-128802417D01*
X148509349Y-128682140D01*
X148327029Y-128589244D01*
X148132413Y-128526009D01*
X148078000Y-128517390D01*
X148078000Y-129478314D01*
X148073606Y-129473920D01*
X147982394Y-129421259D01*
X147880661Y-129394000D01*
X147775339Y-129394000D01*
X147673606Y-129421259D01*
X147582394Y-129473920D01*
X147578000Y-129478314D01*
X147578000Y-128517390D01*
X147523586Y-128526009D01*
X147328970Y-128589244D01*
X147146650Y-128682140D01*
X146981105Y-128802417D01*
X146981104Y-128802417D01*
X146836417Y-128947104D01*
X146836417Y-128947105D01*
X146716140Y-129112650D01*
X146623244Y-129294970D01*
X146560009Y-129489586D01*
X146551391Y-129544000D01*
X143007748Y-129544000D01*
X142999111Y-129489466D01*
X142998477Y-129485465D01*
X142936581Y-129294970D01*
X142935220Y-129290781D01*
X142935218Y-129290778D01*
X142935218Y-129290776D01*
X142901503Y-129224607D01*
X142842287Y-129108390D01*
X142834556Y-129097749D01*
X142721971Y-128942786D01*
X142577213Y-128798028D01*
X142411613Y-128677715D01*
X142411612Y-128677714D01*
X142411610Y-128677713D01*
X142354653Y-128648691D01*
X142229223Y-128584781D01*
X142034534Y-128521522D01*
X141857607Y-128493500D01*
X141832352Y-128489500D01*
X141627648Y-128489500D01*
X141603329Y-128493351D01*
X141425465Y-128521522D01*
X141230776Y-128584781D01*
X141048386Y-128677715D01*
X140882786Y-128798028D01*
X140738028Y-128942786D01*
X140617715Y-129108386D01*
X140524781Y-129290776D01*
X140461522Y-129485465D01*
X140437109Y-129639606D01*
X140429500Y-129687648D01*
X129416685Y-129687648D01*
X129402741Y-129635606D01*
X129350080Y-129544394D01*
X129345686Y-129540000D01*
X130306609Y-129540000D01*
X130297990Y-129485586D01*
X130234755Y-129290970D01*
X130141859Y-129108650D01*
X130021582Y-128943105D01*
X130021582Y-128943104D01*
X129876895Y-128798417D01*
X129711349Y-128678140D01*
X129529029Y-128585244D01*
X129334413Y-128522009D01*
X129280000Y-128513390D01*
X129280000Y-129474314D01*
X129275606Y-129469920D01*
X129184394Y-129417259D01*
X129082661Y-129390000D01*
X128977339Y-129390000D01*
X128875606Y-129417259D01*
X128784394Y-129469920D01*
X128780000Y-129474314D01*
X128780000Y-128513390D01*
X128725586Y-128522009D01*
X128530970Y-128585244D01*
X128348650Y-128678140D01*
X128183105Y-128798417D01*
X128183104Y-128798417D01*
X128038417Y-128943104D01*
X128038417Y-128943105D01*
X127918140Y-129108650D01*
X127825244Y-129290970D01*
X127762009Y-129485586D01*
X127753391Y-129540000D01*
X124211975Y-129540000D01*
X124203990Y-129489586D01*
X124140755Y-129294970D01*
X124047859Y-129112650D01*
X123927582Y-128947105D01*
X123927582Y-128947104D01*
X123782895Y-128802417D01*
X123617349Y-128682140D01*
X123435029Y-128589244D01*
X123240413Y-128526009D01*
X123186000Y-128517390D01*
X123186000Y-129478314D01*
X123181606Y-129473920D01*
X123090394Y-129421259D01*
X122988661Y-129394000D01*
X122883339Y-129394000D01*
X122781606Y-129421259D01*
X122690394Y-129473920D01*
X122686000Y-129478314D01*
X122686000Y-128517390D01*
X122631586Y-128526009D01*
X122436970Y-128589244D01*
X122254650Y-128682140D01*
X122089105Y-128802417D01*
X122089104Y-128802417D01*
X121944417Y-128947104D01*
X121944417Y-128947105D01*
X121824140Y-129112650D01*
X121731244Y-129294970D01*
X121668009Y-129489586D01*
X121659391Y-129544000D01*
X111513114Y-129544000D01*
X111504477Y-129489466D01*
X111441220Y-129294781D01*
X111441218Y-129294778D01*
X111441218Y-129294776D01*
X111348419Y-129112650D01*
X111348287Y-129112390D01*
X111340556Y-129101749D01*
X111227971Y-128946786D01*
X111083213Y-128802028D01*
X110917613Y-128681715D01*
X110917612Y-128681714D01*
X110917610Y-128681713D01*
X110860653Y-128652691D01*
X110735223Y-128588781D01*
X110540534Y-128525522D01*
X110365995Y-128497878D01*
X110338352Y-128493500D01*
X110133648Y-128493500D01*
X110109329Y-128497351D01*
X109931465Y-128525522D01*
X109736776Y-128588781D01*
X109554386Y-128681715D01*
X109388786Y-128802028D01*
X109244028Y-128946786D01*
X109123715Y-129112386D01*
X109030781Y-129294776D01*
X108967522Y-129489465D01*
X108935500Y-129691648D01*
X105440500Y-129691648D01*
X105425931Y-129599664D01*
X105408477Y-129489465D01*
X105345218Y-129294776D01*
X105252419Y-129112650D01*
X105252287Y-129112390D01*
X105244556Y-129101749D01*
X105131971Y-128946786D01*
X104987213Y-128802028D01*
X104821613Y-128681715D01*
X104821612Y-128681714D01*
X104821610Y-128681713D01*
X104764653Y-128652691D01*
X104639223Y-128588781D01*
X104444534Y-128525522D01*
X104269995Y-128497878D01*
X104242352Y-128493500D01*
X104037648Y-128493500D01*
X104013329Y-128497351D01*
X103835465Y-128525522D01*
X103640776Y-128588781D01*
X103458386Y-128681715D01*
X103292786Y-128802028D01*
X103148028Y-128946786D01*
X103027715Y-129112386D01*
X102934781Y-129294776D01*
X102871522Y-129489465D01*
X102839500Y-129691648D01*
X91826685Y-129691648D01*
X91812741Y-129639606D01*
X91760080Y-129548394D01*
X91755686Y-129544000D01*
X92716609Y-129544000D01*
X92707990Y-129489586D01*
X92644755Y-129294970D01*
X92551859Y-129112650D01*
X92431582Y-128947105D01*
X92431582Y-128947104D01*
X92286895Y-128802417D01*
X92121349Y-128682140D01*
X91939029Y-128589244D01*
X91744413Y-128526009D01*
X91690000Y-128517390D01*
X91690000Y-129478314D01*
X91685606Y-129473920D01*
X91594394Y-129421259D01*
X91492661Y-129394000D01*
X91387339Y-129394000D01*
X91285606Y-129421259D01*
X91194394Y-129473920D01*
X91190000Y-129478314D01*
X91190000Y-128517390D01*
X91135586Y-128526009D01*
X90940970Y-128589244D01*
X90758650Y-128682140D01*
X90593105Y-128802417D01*
X90593104Y-128802417D01*
X90448417Y-128947104D01*
X90448417Y-128947105D01*
X90328140Y-129112650D01*
X90235244Y-129294970D01*
X90172009Y-129489586D01*
X90163391Y-129544000D01*
X70350500Y-129544000D01*
X70350500Y-125357577D01*
X78261500Y-125357577D01*
X78261500Y-125554422D01*
X78292290Y-125748826D01*
X78353117Y-125936029D01*
X78418521Y-126064390D01*
X78442476Y-126111405D01*
X78558172Y-126270646D01*
X78697354Y-126409828D01*
X78856595Y-126525524D01*
X78939455Y-126567743D01*
X79031970Y-126614882D01*
X79031972Y-126614882D01*
X79031975Y-126614884D01*
X79120501Y-126643648D01*
X79219173Y-126675709D01*
X79413578Y-126706500D01*
X79413583Y-126706500D01*
X79610422Y-126706500D01*
X79804826Y-126675709D01*
X79903499Y-126643648D01*
X87091500Y-126643648D01*
X87091500Y-126848352D01*
X87092134Y-126852352D01*
X87123522Y-127050534D01*
X87186781Y-127245223D01*
X87279715Y-127427613D01*
X87400028Y-127593213D01*
X87544786Y-127737971D01*
X87699749Y-127850556D01*
X87710390Y-127858287D01*
X87826607Y-127917503D01*
X87892776Y-127951218D01*
X87892778Y-127951218D01*
X87892781Y-127951220D01*
X87935869Y-127965220D01*
X88087465Y-128014477D01*
X88175857Y-128028477D01*
X88289648Y-128046500D01*
X88289649Y-128046500D01*
X88494351Y-128046500D01*
X88494352Y-128046500D01*
X88696534Y-128014477D01*
X88891219Y-127951220D01*
X89073610Y-127858287D01*
X89219943Y-127751971D01*
X89239213Y-127737971D01*
X89239215Y-127737968D01*
X89239219Y-127737966D01*
X89383966Y-127593219D01*
X89383968Y-127593215D01*
X89383971Y-127593213D01*
X89494115Y-127441610D01*
X89504287Y-127427610D01*
X89597220Y-127245219D01*
X89660477Y-127050534D01*
X89692500Y-126848352D01*
X89692500Y-126647648D01*
X105887500Y-126647648D01*
X105887500Y-126852351D01*
X105919522Y-127054534D01*
X105982781Y-127249223D01*
X106046691Y-127374653D01*
X106073676Y-127427613D01*
X106075715Y-127431613D01*
X106196028Y-127597213D01*
X106340786Y-127741971D01*
X106495749Y-127854556D01*
X106506390Y-127862287D01*
X106622607Y-127921503D01*
X106688776Y-127955218D01*
X106688778Y-127955218D01*
X106688781Y-127955220D01*
X106793137Y-127989127D01*
X106883465Y-128018477D01*
X106946602Y-128028477D01*
X107085648Y-128050500D01*
X107085649Y-128050500D01*
X107290351Y-128050500D01*
X107290352Y-128050500D01*
X107492534Y-128018477D01*
X107687219Y-127955220D01*
X107869610Y-127862287D01*
X107962590Y-127794732D01*
X108035213Y-127741971D01*
X108035215Y-127741968D01*
X108035219Y-127741966D01*
X108179966Y-127597219D01*
X108179968Y-127597215D01*
X108179971Y-127597213D01*
X108293019Y-127441613D01*
X108300287Y-127431610D01*
X108393220Y-127249219D01*
X108456477Y-127054534D01*
X108488500Y-126852352D01*
X108488500Y-126647648D01*
X108487866Y-126643648D01*
X124683500Y-126643648D01*
X124683500Y-126848352D01*
X124684134Y-126852352D01*
X124715522Y-127050534D01*
X124778781Y-127245223D01*
X124871715Y-127427613D01*
X124992028Y-127593213D01*
X125136786Y-127737971D01*
X125291749Y-127850556D01*
X125302390Y-127858287D01*
X125418607Y-127917503D01*
X125484776Y-127951218D01*
X125484778Y-127951218D01*
X125484781Y-127951220D01*
X125527869Y-127965220D01*
X125679465Y-128014477D01*
X125767857Y-128028477D01*
X125881648Y-128046500D01*
X125881649Y-128046500D01*
X126086351Y-128046500D01*
X126086352Y-128046500D01*
X126288534Y-128014477D01*
X126483219Y-127951220D01*
X126665610Y-127858287D01*
X126811943Y-127751971D01*
X126831213Y-127737971D01*
X126831215Y-127737968D01*
X126831219Y-127737966D01*
X126975966Y-127593219D01*
X126975968Y-127593215D01*
X126975971Y-127593213D01*
X127086115Y-127441610D01*
X127096287Y-127427610D01*
X127189220Y-127245219D01*
X127252477Y-127050534D01*
X127284500Y-126848352D01*
X127284500Y-126657648D01*
X143489500Y-126657648D01*
X143489500Y-126862351D01*
X143521522Y-127064534D01*
X143584781Y-127259223D01*
X143648691Y-127384653D01*
X143672619Y-127431613D01*
X143677715Y-127441613D01*
X143798028Y-127607213D01*
X143942786Y-127751971D01*
X144089116Y-127858284D01*
X144108390Y-127872287D01*
X144224607Y-127931503D01*
X144290776Y-127965218D01*
X144290778Y-127965218D01*
X144290781Y-127965220D01*
X144395137Y-127999127D01*
X144485465Y-128028477D01*
X144586557Y-128044488D01*
X144687648Y-128060500D01*
X144687649Y-128060500D01*
X144892351Y-128060500D01*
X144892352Y-128060500D01*
X145094534Y-128028477D01*
X145289219Y-127965220D01*
X145471610Y-127872287D01*
X145564590Y-127804732D01*
X145637213Y-127751971D01*
X145637215Y-127751968D01*
X145637219Y-127751966D01*
X145781966Y-127607219D01*
X145781968Y-127607215D01*
X145781971Y-127607213D01*
X145834732Y-127534590D01*
X145902287Y-127441610D01*
X145995220Y-127259219D01*
X146058477Y-127064534D01*
X146090500Y-126862352D01*
X146090500Y-126657648D01*
X146088283Y-126643648D01*
X162275500Y-126643648D01*
X162275500Y-126848352D01*
X162276134Y-126852352D01*
X162307522Y-127050534D01*
X162370781Y-127245223D01*
X162463715Y-127427613D01*
X162584028Y-127593213D01*
X162728786Y-127737971D01*
X162883749Y-127850556D01*
X162894390Y-127858287D01*
X163010607Y-127917503D01*
X163076776Y-127951218D01*
X163076778Y-127951218D01*
X163076781Y-127951220D01*
X163119869Y-127965220D01*
X163271465Y-128014477D01*
X163359857Y-128028477D01*
X163473648Y-128046500D01*
X163473649Y-128046500D01*
X163678351Y-128046500D01*
X163678352Y-128046500D01*
X163880534Y-128014477D01*
X164075219Y-127951220D01*
X164257610Y-127858287D01*
X164403943Y-127751971D01*
X164423213Y-127737971D01*
X164423215Y-127737968D01*
X164423219Y-127737966D01*
X164567966Y-127593219D01*
X164567968Y-127593215D01*
X164567971Y-127593213D01*
X164678115Y-127441610D01*
X164688287Y-127427610D01*
X164781220Y-127245219D01*
X164844477Y-127050534D01*
X164876500Y-126848352D01*
X164876500Y-126643648D01*
X181071500Y-126643648D01*
X181071500Y-126848352D01*
X181072134Y-126852352D01*
X181103522Y-127050534D01*
X181166781Y-127245223D01*
X181259715Y-127427613D01*
X181380028Y-127593213D01*
X181524786Y-127737971D01*
X181679749Y-127850556D01*
X181690390Y-127858287D01*
X181806607Y-127917503D01*
X181872776Y-127951218D01*
X181872778Y-127951218D01*
X181872781Y-127951220D01*
X181915869Y-127965220D01*
X182067465Y-128014477D01*
X182155857Y-128028477D01*
X182269648Y-128046500D01*
X182269649Y-128046500D01*
X182474351Y-128046500D01*
X182474352Y-128046500D01*
X182676534Y-128014477D01*
X182871219Y-127951220D01*
X183053610Y-127858287D01*
X183199943Y-127751971D01*
X183219213Y-127737971D01*
X183219215Y-127737968D01*
X183219219Y-127737966D01*
X183363966Y-127593219D01*
X183363968Y-127593215D01*
X183363971Y-127593213D01*
X183474115Y-127441610D01*
X183484287Y-127427610D01*
X183577220Y-127245219D01*
X183640477Y-127050534D01*
X183672500Y-126848352D01*
X183672500Y-126643648D01*
X199867500Y-126643648D01*
X199867500Y-126848352D01*
X199868134Y-126852352D01*
X199899522Y-127050534D01*
X199962781Y-127245223D01*
X200055715Y-127427613D01*
X200176028Y-127593213D01*
X200320786Y-127737971D01*
X200475749Y-127850556D01*
X200486390Y-127858287D01*
X200602607Y-127917503D01*
X200668776Y-127951218D01*
X200668778Y-127951218D01*
X200668781Y-127951220D01*
X200711869Y-127965220D01*
X200863465Y-128014477D01*
X200951857Y-128028477D01*
X201065648Y-128046500D01*
X201065649Y-128046500D01*
X201270351Y-128046500D01*
X201270352Y-128046500D01*
X201472534Y-128014477D01*
X201667219Y-127951220D01*
X201849610Y-127858287D01*
X201995943Y-127751971D01*
X202015213Y-127737971D01*
X202015215Y-127737968D01*
X202015219Y-127737966D01*
X202159966Y-127593219D01*
X202159968Y-127593215D01*
X202159971Y-127593213D01*
X202270115Y-127441610D01*
X202280287Y-127427610D01*
X202373220Y-127245219D01*
X202436477Y-127050534D01*
X202468500Y-126848352D01*
X202468500Y-126643648D01*
X218663500Y-126643648D01*
X218663500Y-126848352D01*
X218664134Y-126852352D01*
X218695522Y-127050534D01*
X218758781Y-127245223D01*
X218851715Y-127427613D01*
X218972028Y-127593213D01*
X219116786Y-127737971D01*
X219271749Y-127850556D01*
X219282390Y-127858287D01*
X219398607Y-127917503D01*
X219464776Y-127951218D01*
X219464778Y-127951218D01*
X219464781Y-127951220D01*
X219507869Y-127965220D01*
X219659465Y-128014477D01*
X219747857Y-128028477D01*
X219861648Y-128046500D01*
X219861649Y-128046500D01*
X220066351Y-128046500D01*
X220066352Y-128046500D01*
X220268534Y-128014477D01*
X220463219Y-127951220D01*
X220645610Y-127858287D01*
X220791943Y-127751971D01*
X220811213Y-127737971D01*
X220811215Y-127737968D01*
X220811219Y-127737966D01*
X220955966Y-127593219D01*
X220955968Y-127593215D01*
X220955971Y-127593213D01*
X221066115Y-127441610D01*
X221076287Y-127427610D01*
X221169220Y-127245219D01*
X221232477Y-127050534D01*
X221264500Y-126848352D01*
X221264500Y-126643648D01*
X221245791Y-126525523D01*
X221232477Y-126441465D01*
X221176975Y-126270648D01*
X221169220Y-126246781D01*
X221169218Y-126246778D01*
X221169218Y-126246776D01*
X221083420Y-126078390D01*
X221076287Y-126064390D01*
X221068556Y-126053749D01*
X220955971Y-125898786D01*
X220811217Y-125754032D01*
X220811212Y-125754028D01*
X220774074Y-125727045D01*
X220774051Y-125727030D01*
X220645609Y-125633712D01*
X220641419Y-125631577D01*
X246145500Y-125631577D01*
X246145500Y-125828422D01*
X246176290Y-126022826D01*
X246237117Y-126210029D01*
X246326476Y-126385405D01*
X246442172Y-126544646D01*
X246581354Y-126683828D01*
X246740595Y-126799524D01*
X246823455Y-126841743D01*
X246915970Y-126888882D01*
X246915972Y-126888882D01*
X246915975Y-126888884D01*
X247016317Y-126921487D01*
X247103173Y-126949709D01*
X247297578Y-126980500D01*
X247297583Y-126980500D01*
X247494422Y-126980500D01*
X247688826Y-126949709D01*
X247876025Y-126888884D01*
X248051405Y-126799524D01*
X248210646Y-126683828D01*
X248349828Y-126544646D01*
X248465524Y-126385405D01*
X248554884Y-126210025D01*
X248615709Y-126022826D01*
X248629457Y-125936025D01*
X248646500Y-125828422D01*
X248646500Y-125631577D01*
X248615709Y-125437173D01*
X248554882Y-125249970D01*
X248465523Y-125074594D01*
X248349828Y-124915354D01*
X248210646Y-124776172D01*
X248051405Y-124660476D01*
X247980798Y-124624500D01*
X247876029Y-124571117D01*
X247688826Y-124510290D01*
X247494422Y-124479500D01*
X247494417Y-124479500D01*
X247297583Y-124479500D01*
X247297578Y-124479500D01*
X247103173Y-124510290D01*
X246915970Y-124571117D01*
X246740594Y-124660476D01*
X246649741Y-124726485D01*
X246581354Y-124776172D01*
X246581352Y-124776174D01*
X246581351Y-124776174D01*
X246442174Y-124915351D01*
X246442174Y-124915352D01*
X246442172Y-124915354D01*
X246398132Y-124975970D01*
X246326476Y-125074594D01*
X246237117Y-125249970D01*
X246176290Y-125437173D01*
X246145500Y-125631577D01*
X220641419Y-125631577D01*
X220463223Y-125540781D01*
X220268534Y-125477522D01*
X220091607Y-125449500D01*
X220066352Y-125445500D01*
X219861648Y-125445500D01*
X219837329Y-125449351D01*
X219659465Y-125477522D01*
X219464776Y-125540781D01*
X219282386Y-125633715D01*
X219116786Y-125754028D01*
X218972028Y-125898786D01*
X218851715Y-126064386D01*
X218758781Y-126246776D01*
X218695522Y-126441465D01*
X218679180Y-126544647D01*
X218663500Y-126643648D01*
X202468500Y-126643648D01*
X202449791Y-126525523D01*
X202436477Y-126441465D01*
X202380975Y-126270648D01*
X202373220Y-126246781D01*
X202373218Y-126246778D01*
X202373218Y-126246776D01*
X202287420Y-126078390D01*
X202280287Y-126064390D01*
X202272556Y-126053749D01*
X202159971Y-125898786D01*
X202015213Y-125754028D01*
X201849613Y-125633715D01*
X201849612Y-125633714D01*
X201849610Y-125633713D01*
X201792653Y-125604691D01*
X201667223Y-125540781D01*
X201472534Y-125477522D01*
X201295607Y-125449500D01*
X201270352Y-125445500D01*
X201065648Y-125445500D01*
X201041329Y-125449351D01*
X200863465Y-125477522D01*
X200668776Y-125540781D01*
X200486386Y-125633715D01*
X200320786Y-125754028D01*
X200176028Y-125898786D01*
X200055715Y-126064386D01*
X199962781Y-126246776D01*
X199899522Y-126441465D01*
X199883180Y-126544647D01*
X199867500Y-126643648D01*
X183672500Y-126643648D01*
X183653791Y-126525523D01*
X183640477Y-126441465D01*
X183584975Y-126270648D01*
X183577220Y-126246781D01*
X183577218Y-126246778D01*
X183577218Y-126246776D01*
X183491420Y-126078390D01*
X183484287Y-126064390D01*
X183476556Y-126053749D01*
X183363971Y-125898786D01*
X183219213Y-125754028D01*
X183053613Y-125633715D01*
X183053612Y-125633714D01*
X183053610Y-125633713D01*
X182996653Y-125604691D01*
X182871223Y-125540781D01*
X182676534Y-125477522D01*
X182499607Y-125449500D01*
X182474352Y-125445500D01*
X182269648Y-125445500D01*
X182245329Y-125449351D01*
X182067465Y-125477522D01*
X181872776Y-125540781D01*
X181690386Y-125633715D01*
X181524786Y-125754028D01*
X181380028Y-125898786D01*
X181259715Y-126064386D01*
X181166781Y-126246776D01*
X181103522Y-126441465D01*
X181087180Y-126544647D01*
X181071500Y-126643648D01*
X164876500Y-126643648D01*
X164857791Y-126525523D01*
X164844477Y-126441465D01*
X164788975Y-126270648D01*
X164781220Y-126246781D01*
X164781218Y-126246778D01*
X164781218Y-126246776D01*
X164695420Y-126078390D01*
X164688287Y-126064390D01*
X164680556Y-126053749D01*
X164567971Y-125898786D01*
X164423213Y-125754028D01*
X164257613Y-125633715D01*
X164257612Y-125633714D01*
X164257610Y-125633713D01*
X164200653Y-125604691D01*
X164075223Y-125540781D01*
X163880534Y-125477522D01*
X163703607Y-125449500D01*
X163678352Y-125445500D01*
X163473648Y-125445500D01*
X163449329Y-125449351D01*
X163271465Y-125477522D01*
X163076776Y-125540781D01*
X162894386Y-125633715D01*
X162728786Y-125754028D01*
X162584028Y-125898786D01*
X162463715Y-126064386D01*
X162370781Y-126246776D01*
X162307522Y-126441465D01*
X162291180Y-126544647D01*
X162275500Y-126643648D01*
X146088283Y-126643648D01*
X146058477Y-126455466D01*
X146055227Y-126445465D01*
X145998426Y-126270648D01*
X145995220Y-126260781D01*
X145995218Y-126260778D01*
X145995218Y-126260776D01*
X145961503Y-126194607D01*
X145902287Y-126078390D01*
X145894556Y-126067749D01*
X145781971Y-125912786D01*
X145637213Y-125768028D01*
X145471613Y-125647715D01*
X145471612Y-125647714D01*
X145471610Y-125647713D01*
X145414653Y-125618691D01*
X145289223Y-125554781D01*
X145094534Y-125491522D01*
X144919995Y-125463878D01*
X144892352Y-125459500D01*
X144687648Y-125459500D01*
X144663329Y-125463351D01*
X144485465Y-125491522D01*
X144290776Y-125554781D01*
X144108386Y-125647715D01*
X143942786Y-125768028D01*
X143798028Y-125912786D01*
X143677715Y-126078386D01*
X143584781Y-126260776D01*
X143521522Y-126455465D01*
X143489500Y-126657648D01*
X127284500Y-126657648D01*
X127284500Y-126643648D01*
X127265791Y-126525523D01*
X127252477Y-126441465D01*
X127196975Y-126270648D01*
X127189220Y-126246781D01*
X127189218Y-126246778D01*
X127189218Y-126246776D01*
X127103420Y-126078390D01*
X127096287Y-126064390D01*
X127088556Y-126053749D01*
X126975971Y-125898786D01*
X126831213Y-125754028D01*
X126665613Y-125633715D01*
X126665612Y-125633714D01*
X126665610Y-125633713D01*
X126608653Y-125604691D01*
X126483223Y-125540781D01*
X126288534Y-125477522D01*
X126111607Y-125449500D01*
X126086352Y-125445500D01*
X125881648Y-125445500D01*
X125857329Y-125449351D01*
X125679465Y-125477522D01*
X125484776Y-125540781D01*
X125302386Y-125633715D01*
X125136786Y-125754028D01*
X124992028Y-125898786D01*
X124871715Y-126064386D01*
X124778781Y-126246776D01*
X124715522Y-126441465D01*
X124699180Y-126544647D01*
X124683500Y-126643648D01*
X108487866Y-126643648D01*
X108456477Y-126445466D01*
X108455177Y-126441466D01*
X108399675Y-126270647D01*
X108393220Y-126250781D01*
X108393218Y-126250778D01*
X108393218Y-126250776D01*
X108322204Y-126111405D01*
X108300287Y-126068390D01*
X108267183Y-126022826D01*
X108179971Y-125902786D01*
X108035213Y-125758028D01*
X107869613Y-125637715D01*
X107869612Y-125637714D01*
X107869610Y-125637713D01*
X107812653Y-125608691D01*
X107687223Y-125544781D01*
X107492534Y-125481522D01*
X107317995Y-125453878D01*
X107290352Y-125449500D01*
X107085648Y-125449500D01*
X107061329Y-125453351D01*
X106883465Y-125481522D01*
X106688776Y-125544781D01*
X106506386Y-125637715D01*
X106340786Y-125758028D01*
X106196028Y-125902786D01*
X106075715Y-126068386D01*
X105982781Y-126250776D01*
X105919522Y-126445465D01*
X105887500Y-126647648D01*
X89692500Y-126647648D01*
X89692500Y-126643648D01*
X89673791Y-126525523D01*
X89660477Y-126441465D01*
X89604975Y-126270648D01*
X89597220Y-126246781D01*
X89597218Y-126246778D01*
X89597218Y-126246776D01*
X89511420Y-126078390D01*
X89504287Y-126064390D01*
X89496556Y-126053749D01*
X89383971Y-125898786D01*
X89239213Y-125754028D01*
X89073613Y-125633715D01*
X89073612Y-125633714D01*
X89073610Y-125633713D01*
X89016653Y-125604691D01*
X88891223Y-125540781D01*
X88696534Y-125477522D01*
X88519607Y-125449500D01*
X88494352Y-125445500D01*
X88289648Y-125445500D01*
X88265329Y-125449351D01*
X88087465Y-125477522D01*
X87892776Y-125540781D01*
X87710386Y-125633715D01*
X87544786Y-125754028D01*
X87400028Y-125898786D01*
X87279715Y-126064386D01*
X87186781Y-126246776D01*
X87123522Y-126441465D01*
X87107180Y-126544647D01*
X87091500Y-126643648D01*
X79903499Y-126643648D01*
X79992025Y-126614884D01*
X80167405Y-126525524D01*
X80326646Y-126409828D01*
X80465828Y-126270646D01*
X80581524Y-126111405D01*
X80670884Y-125936025D01*
X80731709Y-125748826D01*
X80735161Y-125727030D01*
X80762500Y-125554422D01*
X80762500Y-125357577D01*
X80731709Y-125163173D01*
X80670882Y-124975970D01*
X80581523Y-124800594D01*
X80563781Y-124776174D01*
X80465828Y-124641354D01*
X80326646Y-124502172D01*
X80167405Y-124386476D01*
X79992029Y-124297117D01*
X79814180Y-124239330D01*
X79814179Y-124239329D01*
X79804828Y-124236291D01*
X79610422Y-124205500D01*
X79610417Y-124205500D01*
X79413583Y-124205500D01*
X79413578Y-124205500D01*
X79219173Y-124236290D01*
X79031970Y-124297117D01*
X78856594Y-124386476D01*
X78774668Y-124446000D01*
X78697354Y-124502172D01*
X78697352Y-124502174D01*
X78697351Y-124502174D01*
X78558174Y-124641351D01*
X78558174Y-124641352D01*
X78558172Y-124641354D01*
X78550204Y-124652321D01*
X78442476Y-124800594D01*
X78353117Y-124975970D01*
X78292290Y-125163173D01*
X78261500Y-125357577D01*
X70350500Y-125357577D01*
X70350500Y-122827947D01*
X83072000Y-122827947D01*
X83072000Y-123064052D01*
X83108934Y-123297247D01*
X83181897Y-123521802D01*
X83289087Y-123732174D01*
X83349338Y-123815104D01*
X83349340Y-123815105D01*
X84133944Y-123030501D01*
X84157326Y-123117764D01*
X84215911Y-123219236D01*
X84298764Y-123302089D01*
X84400236Y-123360674D01*
X84487498Y-123384055D01*
X83702893Y-124168658D01*
X83785828Y-124228914D01*
X83996197Y-124336102D01*
X84220752Y-124409065D01*
X84220751Y-124409065D01*
X84453948Y-124446000D01*
X84690052Y-124446000D01*
X84923247Y-124409065D01*
X85147802Y-124336102D01*
X85358163Y-124228918D01*
X85358169Y-124228914D01*
X85441104Y-124168658D01*
X85441105Y-124168658D01*
X84656501Y-123384055D01*
X84743764Y-123360674D01*
X84845236Y-123302089D01*
X84928089Y-123219236D01*
X84986674Y-123117764D01*
X85010055Y-123030502D01*
X85794658Y-123815105D01*
X85794658Y-123815104D01*
X85854914Y-123732169D01*
X85854918Y-123732163D01*
X85962102Y-123521802D01*
X86035065Y-123297247D01*
X86072000Y-123064052D01*
X86072000Y-122827947D01*
X86035065Y-122594752D01*
X85962102Y-122370197D01*
X85854914Y-122159828D01*
X85794658Y-122076894D01*
X85794658Y-122076893D01*
X85010055Y-122861497D01*
X84986674Y-122774236D01*
X84928089Y-122672764D01*
X84845236Y-122589911D01*
X84743764Y-122531326D01*
X84656502Y-122507944D01*
X85441104Y-121723341D01*
X85439347Y-121701007D01*
X85453711Y-121632630D01*
X85490077Y-121590962D01*
X85559510Y-121540517D01*
X85726517Y-121373510D01*
X85865343Y-121182433D01*
X85972568Y-120971992D01*
X86045553Y-120747368D01*
X86052101Y-120706026D01*
X86082500Y-120514097D01*
X86082500Y-120461973D01*
X96339500Y-120461973D01*
X96339500Y-120706027D01*
X96377679Y-120947076D01*
X96453096Y-121179185D01*
X96552110Y-121373512D01*
X96563896Y-121396642D01*
X96707339Y-121594076D01*
X96707343Y-121594081D01*
X96854581Y-121741319D01*
X96888066Y-121802642D01*
X96883082Y-121872334D01*
X96854581Y-121916681D01*
X96707343Y-122063918D01*
X96707339Y-122063923D01*
X96563896Y-122261357D01*
X96453097Y-122478812D01*
X96377678Y-122710927D01*
X96367651Y-122774236D01*
X96339500Y-122951973D01*
X96339500Y-123196027D01*
X96377679Y-123437076D01*
X96453096Y-123669185D01*
X96527445Y-123815104D01*
X96563896Y-123886642D01*
X96707339Y-124084076D01*
X96707343Y-124084081D01*
X96879918Y-124256656D01*
X96879923Y-124256660D01*
X97052136Y-124381779D01*
X97077361Y-124400106D01*
X97294815Y-124510904D01*
X97526924Y-124586321D01*
X97767973Y-124624500D01*
X97767974Y-124624500D01*
X98012026Y-124624500D01*
X98012027Y-124624500D01*
X98253076Y-124586321D01*
X98485185Y-124510904D01*
X98702639Y-124400106D01*
X98900083Y-124256655D01*
X99072655Y-124084083D01*
X99216106Y-123886639D01*
X99326904Y-123669185D01*
X99402321Y-123437076D01*
X99440500Y-123196027D01*
X99440500Y-122951973D01*
X99402321Y-122710924D01*
X99326904Y-122478815D01*
X99216106Y-122261361D01*
X99120611Y-122129923D01*
X99072660Y-122063923D01*
X99072656Y-122063918D01*
X98925419Y-121916681D01*
X98891934Y-121855358D01*
X98896918Y-121785666D01*
X98925419Y-121741319D01*
X98987395Y-121679343D01*
X99072655Y-121594083D01*
X99216106Y-121396639D01*
X99326904Y-121179185D01*
X99402321Y-120947076D01*
X99440500Y-120706027D01*
X99440500Y-120461973D01*
X115035500Y-120461973D01*
X115035500Y-120706027D01*
X115073679Y-120947076D01*
X115149096Y-121179185D01*
X115248110Y-121373512D01*
X115259896Y-121396642D01*
X115403339Y-121594076D01*
X115403343Y-121594081D01*
X115550581Y-121741319D01*
X115584066Y-121802642D01*
X115579082Y-121872334D01*
X115550581Y-121916681D01*
X115403343Y-122063918D01*
X115403339Y-122063923D01*
X115259896Y-122261357D01*
X115149097Y-122478812D01*
X115073678Y-122710927D01*
X115063651Y-122774236D01*
X115035500Y-122951973D01*
X115035500Y-123196027D01*
X115073679Y-123437076D01*
X115149096Y-123669185D01*
X115223445Y-123815104D01*
X115259896Y-123886642D01*
X115403339Y-124084076D01*
X115403343Y-124084081D01*
X115575918Y-124256656D01*
X115575923Y-124256660D01*
X115748136Y-124381779D01*
X115773361Y-124400106D01*
X115990815Y-124510904D01*
X116222924Y-124586321D01*
X116463973Y-124624500D01*
X116463974Y-124624500D01*
X116708026Y-124624500D01*
X116708027Y-124624500D01*
X116949076Y-124586321D01*
X117181185Y-124510904D01*
X117398639Y-124400106D01*
X117596083Y-124256655D01*
X117768655Y-124084083D01*
X117912106Y-123886639D01*
X118022904Y-123669185D01*
X118098321Y-123437076D01*
X118136500Y-123196027D01*
X118136500Y-122951973D01*
X118098321Y-122710924D01*
X118022904Y-122478815D01*
X117912106Y-122261361D01*
X117816611Y-122129923D01*
X117768660Y-122063923D01*
X117768656Y-122063918D01*
X117621419Y-121916681D01*
X117587934Y-121855358D01*
X117592918Y-121785666D01*
X117621419Y-121741319D01*
X117683395Y-121679343D01*
X117768655Y-121594083D01*
X117912106Y-121396639D01*
X118022904Y-121179185D01*
X118098321Y-120947076D01*
X118136500Y-120706027D01*
X118136500Y-120461973D01*
X133931500Y-120461973D01*
X133931500Y-120706027D01*
X133969679Y-120947076D01*
X134045096Y-121179185D01*
X134144110Y-121373512D01*
X134155896Y-121396642D01*
X134299339Y-121594076D01*
X134299343Y-121594081D01*
X134446581Y-121741319D01*
X134480066Y-121802642D01*
X134475082Y-121872334D01*
X134446581Y-121916681D01*
X134299343Y-122063918D01*
X134299339Y-122063923D01*
X134155896Y-122261357D01*
X134045097Y-122478812D01*
X133969678Y-122710927D01*
X133959651Y-122774236D01*
X133931500Y-122951973D01*
X133931500Y-123196027D01*
X133969679Y-123437076D01*
X134045096Y-123669185D01*
X134119445Y-123815104D01*
X134155896Y-123886642D01*
X134299339Y-124084076D01*
X134299343Y-124084081D01*
X134471918Y-124256656D01*
X134471923Y-124256660D01*
X134644136Y-124381779D01*
X134669361Y-124400106D01*
X134886815Y-124510904D01*
X135118924Y-124586321D01*
X135359973Y-124624500D01*
X135359974Y-124624500D01*
X135604026Y-124624500D01*
X135604027Y-124624500D01*
X135845076Y-124586321D01*
X136077185Y-124510904D01*
X136294639Y-124400106D01*
X136492083Y-124256655D01*
X136664655Y-124084083D01*
X136808106Y-123886639D01*
X136918904Y-123669185D01*
X136994321Y-123437076D01*
X137032500Y-123196027D01*
X137032500Y-122951973D01*
X136994321Y-122710924D01*
X136918904Y-122478815D01*
X136808106Y-122261361D01*
X136712611Y-122129923D01*
X136664660Y-122063923D01*
X136664656Y-122063918D01*
X136517419Y-121916681D01*
X136483934Y-121855358D01*
X136488918Y-121785666D01*
X136517419Y-121741319D01*
X136579395Y-121679343D01*
X136664655Y-121594083D01*
X136808106Y-121396639D01*
X136918904Y-121179185D01*
X136994321Y-120947076D01*
X137032500Y-120706027D01*
X137032500Y-120527973D01*
X152881500Y-120527973D01*
X152881500Y-120772026D01*
X152917824Y-121001368D01*
X152919679Y-121013076D01*
X152995096Y-121245185D01*
X153092541Y-121436433D01*
X153105896Y-121462642D01*
X153249339Y-121660076D01*
X153249343Y-121660081D01*
X153396581Y-121807319D01*
X153430066Y-121868642D01*
X153425082Y-121938334D01*
X153396581Y-121982681D01*
X153249343Y-122129918D01*
X153249339Y-122129923D01*
X153105896Y-122327357D01*
X152995097Y-122544812D01*
X152919678Y-122776927D01*
X152883620Y-123004585D01*
X152881500Y-123017973D01*
X152881500Y-123262027D01*
X152919679Y-123503076D01*
X152995096Y-123735185D01*
X153072265Y-123886639D01*
X153105896Y-123952642D01*
X153249339Y-124150076D01*
X153249343Y-124150081D01*
X153421918Y-124322656D01*
X153421923Y-124322660D01*
X153591687Y-124446000D01*
X153619361Y-124466106D01*
X153836815Y-124576904D01*
X154068924Y-124652321D01*
X154309973Y-124690500D01*
X154309974Y-124690500D01*
X154554026Y-124690500D01*
X154554027Y-124690500D01*
X154795076Y-124652321D01*
X155027185Y-124576904D01*
X155244639Y-124466106D01*
X155442083Y-124322655D01*
X155614655Y-124150083D01*
X155758106Y-123952639D01*
X155868904Y-123735185D01*
X155944321Y-123503076D01*
X155982500Y-123262027D01*
X155982500Y-123017973D01*
X155944321Y-122776924D01*
X155868904Y-122544815D01*
X155758106Y-122327361D01*
X155710154Y-122261361D01*
X155614660Y-122129923D01*
X155614656Y-122129918D01*
X155467419Y-121982681D01*
X155433934Y-121921358D01*
X155438918Y-121851666D01*
X155467419Y-121807319D01*
X155533419Y-121741319D01*
X155614655Y-121660083D01*
X155758106Y-121462639D01*
X155868904Y-121245185D01*
X155944321Y-121013076D01*
X155982500Y-120772027D01*
X155982500Y-120527973D01*
X155972046Y-120461973D01*
X171523500Y-120461973D01*
X171523500Y-120706027D01*
X171561679Y-120947076D01*
X171637096Y-121179185D01*
X171736110Y-121373512D01*
X171747896Y-121396642D01*
X171891339Y-121594076D01*
X171891343Y-121594081D01*
X172038581Y-121741319D01*
X172072066Y-121802642D01*
X172067082Y-121872334D01*
X172038581Y-121916681D01*
X171891343Y-122063918D01*
X171891339Y-122063923D01*
X171747896Y-122261357D01*
X171637097Y-122478812D01*
X171561678Y-122710927D01*
X171551651Y-122774236D01*
X171523500Y-122951973D01*
X171523500Y-123196027D01*
X171561679Y-123437076D01*
X171637096Y-123669185D01*
X171711445Y-123815104D01*
X171747896Y-123886642D01*
X171891339Y-124084076D01*
X171891343Y-124084081D01*
X172063918Y-124256656D01*
X172063923Y-124256660D01*
X172236136Y-124381779D01*
X172261361Y-124400106D01*
X172478815Y-124510904D01*
X172710924Y-124586321D01*
X172951973Y-124624500D01*
X172951974Y-124624500D01*
X173196026Y-124624500D01*
X173196027Y-124624500D01*
X173437076Y-124586321D01*
X173669185Y-124510904D01*
X173886639Y-124400106D01*
X174084083Y-124256655D01*
X174256655Y-124084083D01*
X174400106Y-123886639D01*
X174510904Y-123669185D01*
X174586321Y-123437076D01*
X174624500Y-123196027D01*
X174624500Y-122951973D01*
X174586321Y-122710924D01*
X174510904Y-122478815D01*
X174400106Y-122261361D01*
X174304611Y-122129923D01*
X174256660Y-122063923D01*
X174256656Y-122063918D01*
X174109419Y-121916681D01*
X174075934Y-121855358D01*
X174080918Y-121785666D01*
X174109419Y-121741319D01*
X174171395Y-121679343D01*
X174256655Y-121594083D01*
X174400106Y-121396639D01*
X174510904Y-121179185D01*
X174586321Y-120947076D01*
X174624500Y-120706027D01*
X174624500Y-120461973D01*
X190319500Y-120461973D01*
X190319500Y-120706027D01*
X190357679Y-120947076D01*
X190433096Y-121179185D01*
X190532110Y-121373512D01*
X190543896Y-121396642D01*
X190687339Y-121594076D01*
X190687343Y-121594081D01*
X190834581Y-121741319D01*
X190868066Y-121802642D01*
X190863082Y-121872334D01*
X190834581Y-121916681D01*
X190687343Y-122063918D01*
X190687339Y-122063923D01*
X190543896Y-122261357D01*
X190433097Y-122478812D01*
X190357678Y-122710927D01*
X190347651Y-122774236D01*
X190319500Y-122951973D01*
X190319500Y-123196027D01*
X190357679Y-123437076D01*
X190433096Y-123669185D01*
X190507445Y-123815104D01*
X190543896Y-123886642D01*
X190687339Y-124084076D01*
X190687343Y-124084081D01*
X190859918Y-124256656D01*
X190859923Y-124256660D01*
X191032136Y-124381779D01*
X191057361Y-124400106D01*
X191274815Y-124510904D01*
X191506924Y-124586321D01*
X191747973Y-124624500D01*
X191747974Y-124624500D01*
X191992026Y-124624500D01*
X191992027Y-124624500D01*
X192233076Y-124586321D01*
X192465185Y-124510904D01*
X192682639Y-124400106D01*
X192880083Y-124256655D01*
X193052655Y-124084083D01*
X193196106Y-123886639D01*
X193306904Y-123669185D01*
X193382321Y-123437076D01*
X193420500Y-123196027D01*
X193420500Y-122951973D01*
X193382321Y-122710924D01*
X193306904Y-122478815D01*
X193196106Y-122261361D01*
X193100611Y-122129923D01*
X193052660Y-122063923D01*
X193052656Y-122063918D01*
X192905419Y-121916681D01*
X192871934Y-121855358D01*
X192876918Y-121785666D01*
X192905419Y-121741319D01*
X192967395Y-121679343D01*
X193052655Y-121594083D01*
X193196106Y-121396639D01*
X193306904Y-121179185D01*
X193382321Y-120947076D01*
X193420500Y-120706027D01*
X193420500Y-120527973D01*
X209015500Y-120527973D01*
X209015500Y-120772026D01*
X209051824Y-121001368D01*
X209053679Y-121013076D01*
X209129096Y-121245185D01*
X209226541Y-121436433D01*
X209239896Y-121462642D01*
X209383339Y-121660076D01*
X209383343Y-121660081D01*
X209530581Y-121807319D01*
X209564066Y-121868642D01*
X209559082Y-121938334D01*
X209530581Y-121982681D01*
X209383343Y-122129918D01*
X209383339Y-122129923D01*
X209239896Y-122327357D01*
X209129097Y-122544812D01*
X209053678Y-122776927D01*
X209017620Y-123004585D01*
X209015500Y-123017973D01*
X209015500Y-123262027D01*
X209053679Y-123503076D01*
X209129096Y-123735185D01*
X209206265Y-123886639D01*
X209239896Y-123952642D01*
X209383339Y-124150076D01*
X209383343Y-124150081D01*
X209555918Y-124322656D01*
X209555923Y-124322660D01*
X209725687Y-124446000D01*
X209753361Y-124466106D01*
X209970815Y-124576904D01*
X210202924Y-124652321D01*
X210443973Y-124690500D01*
X210443974Y-124690500D01*
X210688026Y-124690500D01*
X210688027Y-124690500D01*
X210929076Y-124652321D01*
X211161185Y-124576904D01*
X211378639Y-124466106D01*
X211576083Y-124322655D01*
X211748655Y-124150083D01*
X211892106Y-123952639D01*
X212002904Y-123735185D01*
X212078321Y-123503076D01*
X212116500Y-123262027D01*
X212116500Y-123017973D01*
X212078321Y-122776924D01*
X212002904Y-122544815D01*
X211892106Y-122327361D01*
X211844154Y-122261361D01*
X211748660Y-122129923D01*
X211748656Y-122129918D01*
X211601419Y-121982681D01*
X211567934Y-121921358D01*
X211572918Y-121851666D01*
X211601419Y-121807319D01*
X211667419Y-121741319D01*
X211748655Y-121660083D01*
X211892106Y-121462639D01*
X212002904Y-121245185D01*
X212078321Y-121013076D01*
X212116500Y-120772027D01*
X212116500Y-120527973D01*
X212106046Y-120461973D01*
X227911500Y-120461973D01*
X227911500Y-120706027D01*
X227949679Y-120947076D01*
X228025096Y-121179185D01*
X228124110Y-121373512D01*
X228135896Y-121396642D01*
X228279339Y-121594076D01*
X228279343Y-121594081D01*
X228426581Y-121741319D01*
X228460066Y-121802642D01*
X228455082Y-121872334D01*
X228426581Y-121916681D01*
X228279343Y-122063918D01*
X228279339Y-122063923D01*
X228135896Y-122261357D01*
X228025097Y-122478812D01*
X227949678Y-122710927D01*
X227939651Y-122774236D01*
X227911500Y-122951973D01*
X227911500Y-123196027D01*
X227949679Y-123437076D01*
X228025096Y-123669185D01*
X228099445Y-123815104D01*
X228135896Y-123886642D01*
X228279339Y-124084076D01*
X228279343Y-124084081D01*
X228451918Y-124256656D01*
X228451923Y-124256660D01*
X228624136Y-124381779D01*
X228649361Y-124400106D01*
X228866815Y-124510904D01*
X229098924Y-124586321D01*
X229339973Y-124624500D01*
X229339974Y-124624500D01*
X229584026Y-124624500D01*
X229584027Y-124624500D01*
X229825076Y-124586321D01*
X230057185Y-124510904D01*
X230274639Y-124400106D01*
X230472083Y-124256655D01*
X230644655Y-124084083D01*
X230788106Y-123886639D01*
X230898904Y-123669185D01*
X230974321Y-123437076D01*
X231012500Y-123196027D01*
X231012500Y-122951973D01*
X230974321Y-122710924D01*
X230898904Y-122478815D01*
X230788106Y-122261361D01*
X230692611Y-122129923D01*
X230644660Y-122063923D01*
X230644656Y-122063918D01*
X230497419Y-121916681D01*
X230463934Y-121855358D01*
X230468918Y-121785666D01*
X230497419Y-121741319D01*
X230559395Y-121679343D01*
X230644655Y-121594083D01*
X230788106Y-121396639D01*
X230898904Y-121179185D01*
X230974321Y-120947076D01*
X231012500Y-120706027D01*
X231012500Y-120531902D01*
X240815500Y-120531902D01*
X240815500Y-120768097D01*
X240852446Y-121001368D01*
X240925433Y-121225996D01*
X241000597Y-121373512D01*
X241032657Y-121436433D01*
X241171483Y-121627510D01*
X241338490Y-121794517D01*
X241529567Y-121933343D01*
X241576674Y-121957345D01*
X241740003Y-122040566D01*
X241740005Y-122040566D01*
X241740008Y-122040568D01*
X241851808Y-122076894D01*
X241964631Y-122113553D01*
X242197903Y-122150500D01*
X242197908Y-122150500D01*
X242434097Y-122150500D01*
X242667368Y-122113553D01*
X242891992Y-122040568D01*
X243102433Y-121933343D01*
X243293510Y-121794517D01*
X243460517Y-121627510D01*
X243599343Y-121436433D01*
X243706568Y-121225992D01*
X243779553Y-121001368D01*
X243788153Y-120947072D01*
X243816500Y-120768097D01*
X243816500Y-120531902D01*
X243779553Y-120298631D01*
X243706566Y-120074003D01*
X243599342Y-119863566D01*
X243567695Y-119820008D01*
X243460517Y-119672490D01*
X243293510Y-119505483D01*
X243289662Y-119502687D01*
X243242997Y-119468782D01*
X243200331Y-119413452D01*
X243192265Y-119358735D01*
X243195104Y-119322657D01*
X242410501Y-118538055D01*
X242497764Y-118514674D01*
X242599236Y-118456089D01*
X242682089Y-118373236D01*
X242740674Y-118271764D01*
X242764055Y-118184502D01*
X243548658Y-118969105D01*
X243548658Y-118969104D01*
X243608914Y-118886169D01*
X243608918Y-118886163D01*
X243716102Y-118675802D01*
X243789065Y-118451247D01*
X243826000Y-118218052D01*
X243826000Y-117981947D01*
X243789065Y-117748752D01*
X243716102Y-117524197D01*
X243608914Y-117313828D01*
X243548658Y-117230894D01*
X243548658Y-117230893D01*
X242764055Y-118015497D01*
X242740674Y-117928236D01*
X242682089Y-117826764D01*
X242599236Y-117743911D01*
X242497764Y-117685326D01*
X242410502Y-117661944D01*
X243195105Y-116877340D01*
X243195104Y-116877338D01*
X243112174Y-116817087D01*
X242901802Y-116709897D01*
X242677247Y-116636934D01*
X242677248Y-116636934D01*
X242444052Y-116600000D01*
X242207948Y-116600000D01*
X241974752Y-116636934D01*
X241750197Y-116709897D01*
X241539830Y-116817084D01*
X241456894Y-116877340D01*
X242241498Y-117661944D01*
X242154236Y-117685326D01*
X242052764Y-117743911D01*
X241969911Y-117826764D01*
X241911326Y-117928236D01*
X241887944Y-118015497D01*
X241103340Y-117230894D01*
X241043084Y-117313830D01*
X240935897Y-117524197D01*
X240862934Y-117748752D01*
X240826000Y-117981947D01*
X240826000Y-118218052D01*
X240862934Y-118451247D01*
X240935897Y-118675802D01*
X241043087Y-118886174D01*
X241103338Y-118969104D01*
X241103340Y-118969105D01*
X241887944Y-118184501D01*
X241911326Y-118271764D01*
X241969911Y-118373236D01*
X242052764Y-118456089D01*
X242154236Y-118514674D01*
X242241498Y-118538055D01*
X241456893Y-119322658D01*
X241458651Y-119344993D01*
X241444286Y-119413370D01*
X241407920Y-119455038D01*
X241338490Y-119505482D01*
X241171485Y-119672487D01*
X241171485Y-119672488D01*
X241171483Y-119672490D01*
X241111862Y-119754550D01*
X241032657Y-119863566D01*
X240925433Y-120074003D01*
X240852446Y-120298631D01*
X240815500Y-120531902D01*
X231012500Y-120531902D01*
X231012500Y-120461973D01*
X230974321Y-120220924D01*
X230898904Y-119988815D01*
X230788106Y-119771361D01*
X230769779Y-119746136D01*
X230644660Y-119573923D01*
X230644656Y-119573918D01*
X230472081Y-119401343D01*
X230472076Y-119401339D01*
X230274642Y-119257896D01*
X230274641Y-119257895D01*
X230274639Y-119257894D01*
X230057185Y-119147096D01*
X229825076Y-119071679D01*
X229825074Y-119071678D01*
X229825072Y-119071678D01*
X229656769Y-119045021D01*
X229584027Y-119033500D01*
X229339973Y-119033500D01*
X229284093Y-119042350D01*
X229098927Y-119071678D01*
X229098924Y-119071679D01*
X228895798Y-119137679D01*
X228866812Y-119147097D01*
X228649357Y-119257896D01*
X228451923Y-119401339D01*
X228451918Y-119401343D01*
X228279343Y-119573918D01*
X228279339Y-119573923D01*
X228135896Y-119771357D01*
X228025097Y-119988812D01*
X227949678Y-120220927D01*
X227940654Y-120277902D01*
X227911500Y-120461973D01*
X212106046Y-120461973D01*
X212078321Y-120286924D01*
X212002904Y-120054815D01*
X211892106Y-119837361D01*
X211844154Y-119771361D01*
X211748660Y-119639923D01*
X211748656Y-119639918D01*
X211576081Y-119467343D01*
X211576076Y-119467339D01*
X211378642Y-119323896D01*
X211378641Y-119323895D01*
X211378639Y-119323894D01*
X211161185Y-119213096D01*
X210929076Y-119137679D01*
X210929074Y-119137678D01*
X210929072Y-119137678D01*
X210760769Y-119111021D01*
X210688027Y-119099500D01*
X210443973Y-119099500D01*
X210388093Y-119108350D01*
X210202927Y-119137678D01*
X209970812Y-119213097D01*
X209753357Y-119323896D01*
X209555923Y-119467339D01*
X209555918Y-119467343D01*
X209383343Y-119639918D01*
X209383339Y-119639923D01*
X209239896Y-119837357D01*
X209129097Y-120054812D01*
X209053678Y-120286927D01*
X209015500Y-120527973D01*
X193420500Y-120527973D01*
X193420500Y-120461973D01*
X193382321Y-120220924D01*
X193306904Y-119988815D01*
X193196106Y-119771361D01*
X193177779Y-119746136D01*
X193052660Y-119573923D01*
X193052656Y-119573918D01*
X192880081Y-119401343D01*
X192880076Y-119401339D01*
X192682642Y-119257896D01*
X192682641Y-119257895D01*
X192682639Y-119257894D01*
X192465185Y-119147096D01*
X192233076Y-119071679D01*
X192233074Y-119071678D01*
X192233072Y-119071678D01*
X192064769Y-119045021D01*
X191992027Y-119033500D01*
X191747973Y-119033500D01*
X191692093Y-119042350D01*
X191506927Y-119071678D01*
X191506924Y-119071679D01*
X191303798Y-119137679D01*
X191274812Y-119147097D01*
X191057357Y-119257896D01*
X190859923Y-119401339D01*
X190859918Y-119401343D01*
X190687343Y-119573918D01*
X190687339Y-119573923D01*
X190543896Y-119771357D01*
X190433097Y-119988812D01*
X190357678Y-120220927D01*
X190348654Y-120277902D01*
X190319500Y-120461973D01*
X174624500Y-120461973D01*
X174586321Y-120220924D01*
X174510904Y-119988815D01*
X174400106Y-119771361D01*
X174381779Y-119746136D01*
X174256660Y-119573923D01*
X174256656Y-119573918D01*
X174084081Y-119401343D01*
X174084076Y-119401339D01*
X173886642Y-119257896D01*
X173886641Y-119257895D01*
X173886639Y-119257894D01*
X173669185Y-119147096D01*
X173437076Y-119071679D01*
X173437074Y-119071678D01*
X173437072Y-119071678D01*
X173268769Y-119045021D01*
X173196027Y-119033500D01*
X172951973Y-119033500D01*
X172896093Y-119042350D01*
X172710927Y-119071678D01*
X172710924Y-119071679D01*
X172507798Y-119137679D01*
X172478812Y-119147097D01*
X172261357Y-119257896D01*
X172063923Y-119401339D01*
X172063918Y-119401343D01*
X171891343Y-119573918D01*
X171891339Y-119573923D01*
X171747896Y-119771357D01*
X171637097Y-119988812D01*
X171561678Y-120220927D01*
X171552654Y-120277902D01*
X171523500Y-120461973D01*
X155972046Y-120461973D01*
X155944321Y-120286924D01*
X155868904Y-120054815D01*
X155758106Y-119837361D01*
X155710154Y-119771361D01*
X155614660Y-119639923D01*
X155614656Y-119639918D01*
X155442081Y-119467343D01*
X155442076Y-119467339D01*
X155244642Y-119323896D01*
X155244641Y-119323895D01*
X155244639Y-119323894D01*
X155027185Y-119213096D01*
X154795076Y-119137679D01*
X154795074Y-119137678D01*
X154795072Y-119137678D01*
X154626769Y-119111021D01*
X154554027Y-119099500D01*
X154309973Y-119099500D01*
X154254093Y-119108350D01*
X154068927Y-119137678D01*
X153836812Y-119213097D01*
X153619357Y-119323896D01*
X153421923Y-119467339D01*
X153421918Y-119467343D01*
X153249343Y-119639918D01*
X153249339Y-119639923D01*
X153105896Y-119837357D01*
X152995097Y-120054812D01*
X152919678Y-120286927D01*
X152881500Y-120527973D01*
X137032500Y-120527973D01*
X137032500Y-120461973D01*
X136994321Y-120220924D01*
X136918904Y-119988815D01*
X136808106Y-119771361D01*
X136789779Y-119746136D01*
X136664660Y-119573923D01*
X136664656Y-119573918D01*
X136492081Y-119401343D01*
X136492076Y-119401339D01*
X136294642Y-119257896D01*
X136294641Y-119257895D01*
X136294639Y-119257894D01*
X136077185Y-119147096D01*
X135845076Y-119071679D01*
X135845074Y-119071678D01*
X135845072Y-119071678D01*
X135676769Y-119045021D01*
X135604027Y-119033500D01*
X135359973Y-119033500D01*
X135304093Y-119042350D01*
X135118927Y-119071678D01*
X135118924Y-119071679D01*
X134915798Y-119137679D01*
X134886812Y-119147097D01*
X134669357Y-119257896D01*
X134471923Y-119401339D01*
X134471918Y-119401343D01*
X134299343Y-119573918D01*
X134299339Y-119573923D01*
X134155896Y-119771357D01*
X134045097Y-119988812D01*
X133969678Y-120220927D01*
X133960654Y-120277902D01*
X133931500Y-120461973D01*
X118136500Y-120461973D01*
X118098321Y-120220924D01*
X118022904Y-119988815D01*
X117912106Y-119771361D01*
X117893779Y-119746136D01*
X117768660Y-119573923D01*
X117768656Y-119573918D01*
X117596081Y-119401343D01*
X117596076Y-119401339D01*
X117398642Y-119257896D01*
X117398641Y-119257895D01*
X117398639Y-119257894D01*
X117181185Y-119147096D01*
X116949076Y-119071679D01*
X116949074Y-119071678D01*
X116949072Y-119071678D01*
X116780769Y-119045021D01*
X116708027Y-119033500D01*
X116463973Y-119033500D01*
X116408093Y-119042350D01*
X116222927Y-119071678D01*
X116222924Y-119071679D01*
X116019798Y-119137679D01*
X115990812Y-119147097D01*
X115773357Y-119257896D01*
X115575923Y-119401339D01*
X115575918Y-119401343D01*
X115403343Y-119573918D01*
X115403339Y-119573923D01*
X115259896Y-119771357D01*
X115149097Y-119988812D01*
X115073678Y-120220927D01*
X115064654Y-120277902D01*
X115035500Y-120461973D01*
X99440500Y-120461973D01*
X99402321Y-120220924D01*
X99326904Y-119988815D01*
X99216106Y-119771361D01*
X99197779Y-119746136D01*
X99072660Y-119573923D01*
X99072656Y-119573918D01*
X98900081Y-119401343D01*
X98900076Y-119401339D01*
X98702642Y-119257896D01*
X98702641Y-119257895D01*
X98702639Y-119257894D01*
X98485185Y-119147096D01*
X98253076Y-119071679D01*
X98253074Y-119071678D01*
X98253072Y-119071678D01*
X98084769Y-119045021D01*
X98012027Y-119033500D01*
X97767973Y-119033500D01*
X97712093Y-119042350D01*
X97526927Y-119071678D01*
X97526924Y-119071679D01*
X97323798Y-119137679D01*
X97294812Y-119147097D01*
X97077357Y-119257896D01*
X96879923Y-119401339D01*
X96879918Y-119401343D01*
X96707343Y-119573918D01*
X96707339Y-119573923D01*
X96563896Y-119771357D01*
X96453097Y-119988812D01*
X96377678Y-120220927D01*
X96368654Y-120277902D01*
X96339500Y-120461973D01*
X86082500Y-120461973D01*
X86082500Y-120277902D01*
X86045553Y-120044631D01*
X85972566Y-119820003D01*
X85880810Y-119639923D01*
X85865343Y-119609567D01*
X85726517Y-119418490D01*
X85559510Y-119251483D01*
X85368433Y-119112657D01*
X85342611Y-119099500D01*
X85157996Y-119005433D01*
X84933368Y-118932446D01*
X84700097Y-118895500D01*
X84700092Y-118895500D01*
X84463908Y-118895500D01*
X84463903Y-118895500D01*
X84230631Y-118932446D01*
X84006003Y-119005433D01*
X83795566Y-119112657D01*
X83744857Y-119149500D01*
X83604490Y-119251483D01*
X83604488Y-119251485D01*
X83604487Y-119251485D01*
X83437485Y-119418487D01*
X83437485Y-119418488D01*
X83437483Y-119418490D01*
X83401992Y-119467339D01*
X83298657Y-119609566D01*
X83191433Y-119820003D01*
X83118446Y-120044631D01*
X83081500Y-120277902D01*
X83081500Y-120514097D01*
X83118446Y-120747368D01*
X83191433Y-120971996D01*
X83297002Y-121179185D01*
X83298657Y-121182433D01*
X83437483Y-121373510D01*
X83604490Y-121540517D01*
X83655003Y-121577217D01*
X83697666Y-121632543D01*
X83705733Y-121687260D01*
X83702893Y-121723340D01*
X84487498Y-122507944D01*
X84400236Y-122531326D01*
X84298764Y-122589911D01*
X84215911Y-122672764D01*
X84157326Y-122774236D01*
X84133944Y-122861498D01*
X83349340Y-122076894D01*
X83289084Y-122159830D01*
X83181897Y-122370197D01*
X83108934Y-122594752D01*
X83072000Y-122827947D01*
X70350500Y-122827947D01*
X70350500Y-115217577D01*
X78251500Y-115217577D01*
X78251500Y-115414422D01*
X78282290Y-115608826D01*
X78343117Y-115796029D01*
X78387343Y-115882826D01*
X78432476Y-115971405D01*
X78548172Y-116130646D01*
X78687354Y-116269828D01*
X78846595Y-116385524D01*
X78929455Y-116427743D01*
X79021970Y-116474882D01*
X79021972Y-116474882D01*
X79021975Y-116474884D01*
X79122317Y-116507487D01*
X79209173Y-116535709D01*
X79403578Y-116566500D01*
X79403583Y-116566500D01*
X79600422Y-116566500D01*
X79794826Y-116535709D01*
X79982025Y-116474884D01*
X80157405Y-116385524D01*
X80316646Y-116269828D01*
X80455828Y-116130646D01*
X80571524Y-115971405D01*
X80660884Y-115796025D01*
X80721709Y-115608826D01*
X80740280Y-115491577D01*
X246135500Y-115491577D01*
X246135500Y-115688422D01*
X246166290Y-115882826D01*
X246227117Y-116070029D01*
X246316476Y-116245405D01*
X246432172Y-116404646D01*
X246571354Y-116543828D01*
X246730595Y-116659524D01*
X246813455Y-116701743D01*
X246905970Y-116748882D01*
X246905972Y-116748882D01*
X246905975Y-116748884D01*
X247006317Y-116781487D01*
X247093173Y-116809709D01*
X247287578Y-116840500D01*
X247287583Y-116840500D01*
X247484422Y-116840500D01*
X247678826Y-116809709D01*
X247866025Y-116748884D01*
X248041405Y-116659524D01*
X248200646Y-116543828D01*
X248339828Y-116404646D01*
X248455524Y-116245405D01*
X248544884Y-116070025D01*
X248605709Y-115882826D01*
X248619457Y-115796025D01*
X248636500Y-115688422D01*
X248636500Y-115491577D01*
X248605709Y-115297173D01*
X248577487Y-115210317D01*
X248544884Y-115109975D01*
X248544882Y-115109972D01*
X248544882Y-115109970D01*
X248455523Y-114934594D01*
X248435634Y-114907219D01*
X248339828Y-114775354D01*
X248200646Y-114636172D01*
X248041405Y-114520476D01*
X248003870Y-114501351D01*
X247866029Y-114431117D01*
X247678826Y-114370290D01*
X247484422Y-114339500D01*
X247484417Y-114339500D01*
X247287583Y-114339500D01*
X247287578Y-114339500D01*
X247093173Y-114370290D01*
X246905970Y-114431117D01*
X246730594Y-114520476D01*
X246639741Y-114586485D01*
X246571354Y-114636172D01*
X246571352Y-114636174D01*
X246571351Y-114636174D01*
X246432174Y-114775351D01*
X246432174Y-114775352D01*
X246432172Y-114775354D01*
X246388132Y-114835970D01*
X246316476Y-114934594D01*
X246227117Y-115109970D01*
X246166290Y-115297173D01*
X246135500Y-115491577D01*
X80740280Y-115491577D01*
X80744123Y-115467313D01*
X80752500Y-115414422D01*
X80752500Y-115217577D01*
X80721709Y-115023173D01*
X80680783Y-114897219D01*
X80660884Y-114835975D01*
X80660882Y-114835972D01*
X80660882Y-114835970D01*
X80571523Y-114660594D01*
X80553781Y-114636174D01*
X80455828Y-114501354D01*
X80316646Y-114362172D01*
X80157405Y-114246476D01*
X79982029Y-114157117D01*
X79794826Y-114096290D01*
X79600422Y-114065500D01*
X79600417Y-114065500D01*
X79403583Y-114065500D01*
X79403578Y-114065500D01*
X79209173Y-114096290D01*
X79021970Y-114157117D01*
X78846594Y-114246476D01*
X78755741Y-114312485D01*
X78687354Y-114362172D01*
X78687352Y-114362174D01*
X78687351Y-114362174D01*
X78548174Y-114501351D01*
X78548174Y-114501352D01*
X78548172Y-114501354D01*
X78498485Y-114569741D01*
X78432476Y-114660594D01*
X78343117Y-114835970D01*
X78282290Y-115023173D01*
X78251500Y-115217577D01*
X70350500Y-115217577D01*
X70350500Y-113943648D01*
X87091500Y-113943648D01*
X87091500Y-114148352D01*
X87092134Y-114152352D01*
X87123522Y-114350534D01*
X87186781Y-114545223D01*
X87279715Y-114727613D01*
X87400028Y-114893213D01*
X87544786Y-115037971D01*
X87699749Y-115150556D01*
X87710390Y-115158287D01*
X87826607Y-115217503D01*
X87892776Y-115251218D01*
X87892778Y-115251218D01*
X87892781Y-115251220D01*
X87935869Y-115265220D01*
X88087465Y-115314477D01*
X88175857Y-115328477D01*
X88289648Y-115346500D01*
X88289649Y-115346500D01*
X88494351Y-115346500D01*
X88494352Y-115346500D01*
X88696534Y-115314477D01*
X88891219Y-115251220D01*
X89073610Y-115158287D01*
X89219943Y-115051971D01*
X89239213Y-115037971D01*
X89239215Y-115037968D01*
X89239219Y-115037966D01*
X89383966Y-114893219D01*
X89383968Y-114893215D01*
X89383971Y-114893213D01*
X89469599Y-114775354D01*
X89504287Y-114727610D01*
X89597220Y-114545219D01*
X89660477Y-114350534D01*
X89692500Y-114148352D01*
X89692500Y-113947648D01*
X105887500Y-113947648D01*
X105887500Y-114152351D01*
X105919522Y-114354534D01*
X105982781Y-114549223D01*
X106027085Y-114636172D01*
X106073676Y-114727613D01*
X106075715Y-114731613D01*
X106196028Y-114897213D01*
X106340786Y-115041971D01*
X106495749Y-115154556D01*
X106506390Y-115162287D01*
X106614903Y-115217577D01*
X106688776Y-115255218D01*
X106688778Y-115255218D01*
X106688781Y-115255220D01*
X106793137Y-115289127D01*
X106883465Y-115318477D01*
X106946602Y-115328477D01*
X107085648Y-115350500D01*
X107085649Y-115350500D01*
X107290351Y-115350500D01*
X107290352Y-115350500D01*
X107492534Y-115318477D01*
X107687219Y-115255220D01*
X107869610Y-115162287D01*
X107962590Y-115094732D01*
X108035213Y-115041971D01*
X108035215Y-115041968D01*
X108035219Y-115041966D01*
X108179966Y-114897219D01*
X108179968Y-114897215D01*
X108179971Y-114897213D01*
X108268505Y-114775354D01*
X108300287Y-114731610D01*
X108393220Y-114549219D01*
X108456477Y-114354534D01*
X108488500Y-114152352D01*
X108488500Y-113947648D01*
X108487866Y-113943648D01*
X124683500Y-113943648D01*
X124683500Y-114148352D01*
X124684134Y-114152352D01*
X124715522Y-114350534D01*
X124778781Y-114545223D01*
X124871715Y-114727613D01*
X124992028Y-114893213D01*
X125136786Y-115037971D01*
X125291749Y-115150556D01*
X125302390Y-115158287D01*
X125418607Y-115217503D01*
X125484776Y-115251218D01*
X125484778Y-115251218D01*
X125484781Y-115251220D01*
X125527869Y-115265220D01*
X125679465Y-115314477D01*
X125767857Y-115328477D01*
X125881648Y-115346500D01*
X125881649Y-115346500D01*
X126086351Y-115346500D01*
X126086352Y-115346500D01*
X126288534Y-115314477D01*
X126483219Y-115251220D01*
X126665610Y-115158287D01*
X126811943Y-115051971D01*
X126831213Y-115037971D01*
X126831215Y-115037968D01*
X126831219Y-115037966D01*
X126975966Y-114893219D01*
X126975968Y-114893215D01*
X126975971Y-114893213D01*
X127061599Y-114775354D01*
X127096287Y-114727610D01*
X127189220Y-114545219D01*
X127252477Y-114350534D01*
X127284500Y-114148352D01*
X127284500Y-113957648D01*
X143489500Y-113957648D01*
X143489500Y-114162351D01*
X143521522Y-114364534D01*
X143584781Y-114559223D01*
X143636433Y-114660594D01*
X143672619Y-114731613D01*
X143677715Y-114741613D01*
X143798028Y-114907213D01*
X143942786Y-115051971D01*
X144089116Y-115158284D01*
X144108390Y-115172287D01*
X144224607Y-115231503D01*
X144290776Y-115265218D01*
X144290778Y-115265218D01*
X144290781Y-115265220D01*
X144389122Y-115297173D01*
X144485465Y-115328477D01*
X144586557Y-115344488D01*
X144687648Y-115360500D01*
X144687649Y-115360500D01*
X144892351Y-115360500D01*
X144892352Y-115360500D01*
X145094534Y-115328477D01*
X145289219Y-115265220D01*
X145471610Y-115172287D01*
X145564590Y-115104732D01*
X145637213Y-115051971D01*
X145637215Y-115051968D01*
X145637219Y-115051966D01*
X145781966Y-114907219D01*
X145781968Y-114907215D01*
X145781971Y-114907213D01*
X145834732Y-114834590D01*
X145902287Y-114741610D01*
X145995220Y-114559219D01*
X146058477Y-114364534D01*
X146090500Y-114162352D01*
X146090500Y-113957648D01*
X146088283Y-113943648D01*
X162275500Y-113943648D01*
X162275500Y-114148352D01*
X162276134Y-114152352D01*
X162307522Y-114350534D01*
X162370781Y-114545223D01*
X162463715Y-114727613D01*
X162584028Y-114893213D01*
X162728786Y-115037971D01*
X162883749Y-115150556D01*
X162894390Y-115158287D01*
X163010607Y-115217503D01*
X163076776Y-115251218D01*
X163076778Y-115251218D01*
X163076781Y-115251220D01*
X163119869Y-115265220D01*
X163271465Y-115314477D01*
X163359857Y-115328477D01*
X163473648Y-115346500D01*
X163473649Y-115346500D01*
X163678351Y-115346500D01*
X163678352Y-115346500D01*
X163880534Y-115314477D01*
X164075219Y-115251220D01*
X164257610Y-115158287D01*
X164403943Y-115051971D01*
X164423213Y-115037971D01*
X164423215Y-115037968D01*
X164423219Y-115037966D01*
X164567966Y-114893219D01*
X164567968Y-114893215D01*
X164567971Y-114893213D01*
X164653599Y-114775354D01*
X164688287Y-114727610D01*
X164781220Y-114545219D01*
X164844477Y-114350534D01*
X164876500Y-114148352D01*
X164876500Y-113943648D01*
X181071500Y-113943648D01*
X181071500Y-114148352D01*
X181072134Y-114152352D01*
X181103522Y-114350534D01*
X181166781Y-114545223D01*
X181259715Y-114727613D01*
X181380028Y-114893213D01*
X181524786Y-115037971D01*
X181679749Y-115150556D01*
X181690390Y-115158287D01*
X181806607Y-115217503D01*
X181872776Y-115251218D01*
X181872778Y-115251218D01*
X181872781Y-115251220D01*
X181915869Y-115265220D01*
X182067465Y-115314477D01*
X182155857Y-115328477D01*
X182269648Y-115346500D01*
X182269649Y-115346500D01*
X182474351Y-115346500D01*
X182474352Y-115346500D01*
X182676534Y-115314477D01*
X182871219Y-115251220D01*
X183053610Y-115158287D01*
X183199943Y-115051971D01*
X183219213Y-115037971D01*
X183219215Y-115037968D01*
X183219219Y-115037966D01*
X183363966Y-114893219D01*
X183363968Y-114893215D01*
X183363971Y-114893213D01*
X183449599Y-114775354D01*
X183484287Y-114727610D01*
X183577220Y-114545219D01*
X183640477Y-114350534D01*
X183672500Y-114148352D01*
X183672500Y-113943648D01*
X199867500Y-113943648D01*
X199867500Y-114148352D01*
X199868134Y-114152352D01*
X199899522Y-114350534D01*
X199962781Y-114545223D01*
X200055715Y-114727613D01*
X200176028Y-114893213D01*
X200320786Y-115037971D01*
X200475749Y-115150556D01*
X200486390Y-115158287D01*
X200602607Y-115217503D01*
X200668776Y-115251218D01*
X200668778Y-115251218D01*
X200668781Y-115251220D01*
X200711869Y-115265220D01*
X200863465Y-115314477D01*
X200951857Y-115328477D01*
X201065648Y-115346500D01*
X201065649Y-115346500D01*
X201270351Y-115346500D01*
X201270352Y-115346500D01*
X201472534Y-115314477D01*
X201667219Y-115251220D01*
X201849610Y-115158287D01*
X201995943Y-115051971D01*
X202015213Y-115037971D01*
X202015215Y-115037968D01*
X202015219Y-115037966D01*
X202159966Y-114893219D01*
X202159968Y-114893215D01*
X202159971Y-114893213D01*
X202245599Y-114775354D01*
X202280287Y-114727610D01*
X202373220Y-114545219D01*
X202436477Y-114350534D01*
X202468500Y-114148352D01*
X202468500Y-113943648D01*
X218663500Y-113943648D01*
X218663500Y-114148352D01*
X218664134Y-114152352D01*
X218695522Y-114350534D01*
X218758781Y-114545223D01*
X218851715Y-114727613D01*
X218972028Y-114893213D01*
X219116786Y-115037971D01*
X219271749Y-115150556D01*
X219282390Y-115158287D01*
X219398607Y-115217503D01*
X219464776Y-115251218D01*
X219464778Y-115251218D01*
X219464781Y-115251220D01*
X219507869Y-115265220D01*
X219659465Y-115314477D01*
X219747857Y-115328477D01*
X219861648Y-115346500D01*
X219861649Y-115346500D01*
X220066351Y-115346500D01*
X220066352Y-115346500D01*
X220268534Y-115314477D01*
X220463219Y-115251220D01*
X220645610Y-115158287D01*
X220791943Y-115051971D01*
X220811213Y-115037971D01*
X220811215Y-115037968D01*
X220811219Y-115037966D01*
X220955966Y-114893219D01*
X220955968Y-114893215D01*
X220955971Y-114893213D01*
X221041599Y-114775354D01*
X221076287Y-114727610D01*
X221169220Y-114545219D01*
X221232477Y-114350534D01*
X221264500Y-114148352D01*
X221264500Y-113943648D01*
X221232477Y-113741465D01*
X221173767Y-113560776D01*
X221169220Y-113546781D01*
X221169218Y-113546778D01*
X221169218Y-113546776D01*
X221083420Y-113378390D01*
X221076287Y-113364390D01*
X221068556Y-113353749D01*
X220955971Y-113198786D01*
X220811213Y-113054028D01*
X220645613Y-112933715D01*
X220645612Y-112933714D01*
X220645610Y-112933713D01*
X220588653Y-112904691D01*
X220463223Y-112840781D01*
X220268534Y-112777522D01*
X220091607Y-112749500D01*
X220066352Y-112745500D01*
X219861648Y-112745500D01*
X219837329Y-112749351D01*
X219659465Y-112777522D01*
X219464776Y-112840781D01*
X219282386Y-112933715D01*
X219116786Y-113054028D01*
X218972028Y-113198786D01*
X218851715Y-113364386D01*
X218758781Y-113546776D01*
X218695522Y-113741465D01*
X218663500Y-113943648D01*
X202468500Y-113943648D01*
X202436477Y-113741465D01*
X202377767Y-113560776D01*
X202373220Y-113546781D01*
X202373218Y-113546778D01*
X202373218Y-113546776D01*
X202287420Y-113378390D01*
X202280287Y-113364390D01*
X202272556Y-113353749D01*
X202159971Y-113198786D01*
X202015213Y-113054028D01*
X201849613Y-112933715D01*
X201849612Y-112933714D01*
X201849610Y-112933713D01*
X201792653Y-112904691D01*
X201667223Y-112840781D01*
X201472534Y-112777522D01*
X201295607Y-112749500D01*
X201270352Y-112745500D01*
X201065648Y-112745500D01*
X201041329Y-112749351D01*
X200863465Y-112777522D01*
X200668776Y-112840781D01*
X200486386Y-112933715D01*
X200320786Y-113054028D01*
X200176028Y-113198786D01*
X200055715Y-113364386D01*
X199962781Y-113546776D01*
X199899522Y-113741465D01*
X199867500Y-113943648D01*
X183672500Y-113943648D01*
X183640477Y-113741465D01*
X183581767Y-113560776D01*
X183577220Y-113546781D01*
X183577218Y-113546778D01*
X183577218Y-113546776D01*
X183491420Y-113378390D01*
X183484287Y-113364390D01*
X183476556Y-113353749D01*
X183363971Y-113198786D01*
X183219213Y-113054028D01*
X183053613Y-112933715D01*
X183053612Y-112933714D01*
X183053610Y-112933713D01*
X182996653Y-112904691D01*
X182871223Y-112840781D01*
X182676534Y-112777522D01*
X182499607Y-112749500D01*
X182474352Y-112745500D01*
X182269648Y-112745500D01*
X182245329Y-112749351D01*
X182067465Y-112777522D01*
X181872776Y-112840781D01*
X181690386Y-112933715D01*
X181524786Y-113054028D01*
X181380028Y-113198786D01*
X181259715Y-113364386D01*
X181166781Y-113546776D01*
X181103522Y-113741465D01*
X181071500Y-113943648D01*
X164876500Y-113943648D01*
X164844477Y-113741465D01*
X164785767Y-113560776D01*
X164781220Y-113546781D01*
X164781218Y-113546778D01*
X164781218Y-113546776D01*
X164695420Y-113378390D01*
X164688287Y-113364390D01*
X164680556Y-113353749D01*
X164567971Y-113198786D01*
X164423213Y-113054028D01*
X164257613Y-112933715D01*
X164257612Y-112933714D01*
X164257610Y-112933713D01*
X164200653Y-112904691D01*
X164075223Y-112840781D01*
X163880534Y-112777522D01*
X163703607Y-112749500D01*
X163678352Y-112745500D01*
X163473648Y-112745500D01*
X163449329Y-112749351D01*
X163271465Y-112777522D01*
X163076776Y-112840781D01*
X162894386Y-112933715D01*
X162728786Y-113054028D01*
X162584028Y-113198786D01*
X162463715Y-113364386D01*
X162370781Y-113546776D01*
X162307522Y-113741465D01*
X162275500Y-113943648D01*
X146088283Y-113943648D01*
X146058477Y-113755466D01*
X146055227Y-113745465D01*
X145995218Y-113560776D01*
X145961503Y-113494607D01*
X145902287Y-113378390D01*
X145894556Y-113367749D01*
X145781971Y-113212786D01*
X145637213Y-113068028D01*
X145471613Y-112947715D01*
X145471612Y-112947714D01*
X145471610Y-112947713D01*
X145414653Y-112918691D01*
X145289223Y-112854781D01*
X145094534Y-112791522D01*
X144919995Y-112763878D01*
X144892352Y-112759500D01*
X144687648Y-112759500D01*
X144663329Y-112763351D01*
X144485465Y-112791522D01*
X144290776Y-112854781D01*
X144108386Y-112947715D01*
X143942786Y-113068028D01*
X143798028Y-113212786D01*
X143677715Y-113378386D01*
X143584781Y-113560776D01*
X143521522Y-113755465D01*
X143489500Y-113957648D01*
X127284500Y-113957648D01*
X127284500Y-113943648D01*
X127252477Y-113741465D01*
X127193767Y-113560776D01*
X127189220Y-113546781D01*
X127189218Y-113546778D01*
X127189218Y-113546776D01*
X127103420Y-113378390D01*
X127096287Y-113364390D01*
X127088556Y-113353749D01*
X126975971Y-113198786D01*
X126831213Y-113054028D01*
X126665613Y-112933715D01*
X126665612Y-112933714D01*
X126665610Y-112933713D01*
X126608653Y-112904691D01*
X126483223Y-112840781D01*
X126288534Y-112777522D01*
X126111607Y-112749500D01*
X126086352Y-112745500D01*
X125881648Y-112745500D01*
X125857329Y-112749351D01*
X125679465Y-112777522D01*
X125484776Y-112840781D01*
X125302386Y-112933715D01*
X125136786Y-113054028D01*
X124992028Y-113198786D01*
X124871715Y-113364386D01*
X124778781Y-113546776D01*
X124715522Y-113741465D01*
X124683500Y-113943648D01*
X108487866Y-113943648D01*
X108456477Y-113745466D01*
X108455177Y-113741466D01*
X108396469Y-113560781D01*
X108393220Y-113550781D01*
X108393218Y-113550778D01*
X108393218Y-113550776D01*
X108359503Y-113484607D01*
X108300287Y-113368390D01*
X108292556Y-113357749D01*
X108179971Y-113202786D01*
X108035213Y-113058028D01*
X107869613Y-112937715D01*
X107869612Y-112937714D01*
X107869610Y-112937713D01*
X107812653Y-112908691D01*
X107687223Y-112844781D01*
X107492534Y-112781522D01*
X107317995Y-112753878D01*
X107290352Y-112749500D01*
X107085648Y-112749500D01*
X107061329Y-112753351D01*
X106883465Y-112781522D01*
X106688776Y-112844781D01*
X106506386Y-112937715D01*
X106340786Y-113058028D01*
X106196028Y-113202786D01*
X106075715Y-113368386D01*
X105982781Y-113550776D01*
X105919522Y-113745465D01*
X105887500Y-113947648D01*
X89692500Y-113947648D01*
X89692500Y-113943648D01*
X89660477Y-113741465D01*
X89601767Y-113560776D01*
X89597220Y-113546781D01*
X89597218Y-113546778D01*
X89597218Y-113546776D01*
X89511420Y-113378390D01*
X89504287Y-113364390D01*
X89496556Y-113353749D01*
X89383971Y-113198786D01*
X89239213Y-113054028D01*
X89073613Y-112933715D01*
X89073612Y-112933714D01*
X89073610Y-112933713D01*
X89016653Y-112904691D01*
X88891223Y-112840781D01*
X88696534Y-112777522D01*
X88519607Y-112749500D01*
X88494352Y-112745500D01*
X88289648Y-112745500D01*
X88265329Y-112749351D01*
X88087465Y-112777522D01*
X87892776Y-112840781D01*
X87710386Y-112933715D01*
X87544786Y-113054028D01*
X87400028Y-113198786D01*
X87279715Y-113364386D01*
X87186781Y-113546776D01*
X87123522Y-113741465D01*
X87091500Y-113943648D01*
X70350500Y-113943648D01*
X70350500Y-110748000D01*
X90163391Y-110748000D01*
X91124314Y-110748000D01*
X91119920Y-110752394D01*
X91067259Y-110843606D01*
X91040000Y-110945339D01*
X91040000Y-111050661D01*
X91067259Y-111152394D01*
X91119920Y-111243606D01*
X91124314Y-111248000D01*
X90163391Y-111248000D01*
X90172009Y-111302413D01*
X90235244Y-111497029D01*
X90328140Y-111679349D01*
X90448417Y-111844894D01*
X90448417Y-111844895D01*
X90593104Y-111989582D01*
X90758650Y-112109859D01*
X90940968Y-112202754D01*
X91135578Y-112265988D01*
X91190000Y-112274607D01*
X91190000Y-111313686D01*
X91194394Y-111318080D01*
X91285606Y-111370741D01*
X91387339Y-111398000D01*
X91492661Y-111398000D01*
X91594394Y-111370741D01*
X91685606Y-111318080D01*
X91690000Y-111313686D01*
X91690000Y-112274606D01*
X91744421Y-112265988D01*
X91939031Y-112202754D01*
X92121349Y-112109859D01*
X92286894Y-111989582D01*
X92286895Y-111989582D01*
X92431582Y-111844895D01*
X92431582Y-111844894D01*
X92551859Y-111679349D01*
X92644755Y-111497029D01*
X92707990Y-111302413D01*
X92716609Y-111248000D01*
X91755686Y-111248000D01*
X91760080Y-111243606D01*
X91812741Y-111152394D01*
X91840000Y-111050661D01*
X91840000Y-110945339D01*
X91826685Y-110895648D01*
X102839500Y-110895648D01*
X102839500Y-111100351D01*
X102871522Y-111302534D01*
X102934781Y-111497223D01*
X103027715Y-111679613D01*
X103148028Y-111845213D01*
X103292786Y-111989971D01*
X103447749Y-112102556D01*
X103458390Y-112110287D01*
X103574607Y-112169503D01*
X103640776Y-112203218D01*
X103640778Y-112203218D01*
X103640781Y-112203220D01*
X103745137Y-112237127D01*
X103835465Y-112266477D01*
X103899417Y-112276606D01*
X104037648Y-112298500D01*
X104037649Y-112298500D01*
X104242351Y-112298500D01*
X104242352Y-112298500D01*
X104444534Y-112266477D01*
X104639219Y-112203220D01*
X104821610Y-112110287D01*
X104914590Y-112042732D01*
X104987213Y-111989971D01*
X104987215Y-111989968D01*
X104987219Y-111989966D01*
X105131966Y-111845219D01*
X105131968Y-111845215D01*
X105131971Y-111845213D01*
X105184732Y-111772590D01*
X105252287Y-111679610D01*
X105345220Y-111497219D01*
X105408477Y-111302534D01*
X105440500Y-111100352D01*
X105440500Y-110895648D01*
X105417114Y-110748000D01*
X108959391Y-110748000D01*
X109920314Y-110748000D01*
X109915920Y-110752394D01*
X109863259Y-110843606D01*
X109836000Y-110945339D01*
X109836000Y-111050661D01*
X109863259Y-111152394D01*
X109915920Y-111243606D01*
X109920314Y-111248000D01*
X108959391Y-111248000D01*
X108968009Y-111302413D01*
X109031244Y-111497029D01*
X109124140Y-111679349D01*
X109244417Y-111844894D01*
X109244417Y-111844895D01*
X109389104Y-111989582D01*
X109554650Y-112109859D01*
X109736968Y-112202754D01*
X109931578Y-112265988D01*
X109986000Y-112274607D01*
X109986000Y-111313686D01*
X109990394Y-111318080D01*
X110081606Y-111370741D01*
X110183339Y-111398000D01*
X110288661Y-111398000D01*
X110390394Y-111370741D01*
X110481606Y-111318080D01*
X110486000Y-111313686D01*
X110486000Y-112274606D01*
X110540421Y-112265988D01*
X110735031Y-112202754D01*
X110917349Y-112109859D01*
X111082894Y-111989582D01*
X111082895Y-111989582D01*
X111227582Y-111844895D01*
X111227582Y-111844894D01*
X111347859Y-111679349D01*
X111440755Y-111497029D01*
X111503990Y-111302413D01*
X111512609Y-111248000D01*
X110551686Y-111248000D01*
X110556080Y-111243606D01*
X110608741Y-111152394D01*
X110636000Y-111050661D01*
X110636000Y-110945339D01*
X110622685Y-110895648D01*
X121635500Y-110895648D01*
X121635500Y-111100351D01*
X121667522Y-111302534D01*
X121730781Y-111497223D01*
X121823715Y-111679613D01*
X121944028Y-111845213D01*
X122088786Y-111989971D01*
X122243749Y-112102556D01*
X122254390Y-112110287D01*
X122370607Y-112169503D01*
X122436776Y-112203218D01*
X122436778Y-112203218D01*
X122436781Y-112203220D01*
X122541137Y-112237127D01*
X122631465Y-112266477D01*
X122695417Y-112276606D01*
X122833648Y-112298500D01*
X122833649Y-112298500D01*
X123038351Y-112298500D01*
X123038352Y-112298500D01*
X123240534Y-112266477D01*
X123435219Y-112203220D01*
X123617610Y-112110287D01*
X123710590Y-112042732D01*
X123783213Y-111989971D01*
X123783215Y-111989968D01*
X123783219Y-111989966D01*
X123927966Y-111845219D01*
X123927968Y-111845215D01*
X123927971Y-111845213D01*
X123980732Y-111772590D01*
X124048287Y-111679610D01*
X124141220Y-111497219D01*
X124204477Y-111302534D01*
X124236500Y-111100352D01*
X124236500Y-110895648D01*
X124213431Y-110750000D01*
X127763391Y-110750000D01*
X128724314Y-110750000D01*
X128719920Y-110754394D01*
X128667259Y-110845606D01*
X128640000Y-110947339D01*
X128640000Y-111052661D01*
X128667259Y-111154394D01*
X128719920Y-111245606D01*
X128724314Y-111250000D01*
X127763391Y-111250000D01*
X127772009Y-111304413D01*
X127835244Y-111499029D01*
X127928140Y-111681349D01*
X128048417Y-111846894D01*
X128048417Y-111846895D01*
X128193104Y-111991582D01*
X128358650Y-112111859D01*
X128540968Y-112204754D01*
X128735578Y-112267988D01*
X128790000Y-112276607D01*
X128790000Y-111315686D01*
X128794394Y-111320080D01*
X128885606Y-111372741D01*
X128987339Y-111400000D01*
X129092661Y-111400000D01*
X129194394Y-111372741D01*
X129285606Y-111320080D01*
X129290000Y-111315686D01*
X129290000Y-112276606D01*
X129344421Y-112267988D01*
X129539031Y-112204754D01*
X129721349Y-112111859D01*
X129886894Y-111991582D01*
X129886895Y-111991582D01*
X130031582Y-111846895D01*
X130031582Y-111846894D01*
X130151859Y-111681349D01*
X130244755Y-111499029D01*
X130307990Y-111304413D01*
X130316609Y-111250000D01*
X129355686Y-111250000D01*
X129360080Y-111245606D01*
X129412741Y-111154394D01*
X129440000Y-111052661D01*
X129440000Y-110947339D01*
X129426685Y-110897648D01*
X140439500Y-110897648D01*
X140439500Y-111102351D01*
X140471522Y-111304534D01*
X140534781Y-111499223D01*
X140598691Y-111624653D01*
X140626695Y-111679613D01*
X140627715Y-111681613D01*
X140748028Y-111847213D01*
X140892786Y-111991971D01*
X141047749Y-112104556D01*
X141058390Y-112112287D01*
X141174607Y-112171503D01*
X141240776Y-112205218D01*
X141240778Y-112205218D01*
X141240781Y-112205220D01*
X141345137Y-112239127D01*
X141435465Y-112268477D01*
X141536557Y-112284488D01*
X141637648Y-112300500D01*
X141637649Y-112300500D01*
X141842351Y-112300500D01*
X141842352Y-112300500D01*
X142044534Y-112268477D01*
X142239219Y-112205220D01*
X142421610Y-112112287D01*
X142514590Y-112044732D01*
X142587213Y-111991971D01*
X142587215Y-111991968D01*
X142587219Y-111991966D01*
X142731966Y-111847219D01*
X142731968Y-111847215D01*
X142731971Y-111847213D01*
X142784732Y-111774590D01*
X142852287Y-111681610D01*
X142945220Y-111499219D01*
X143008477Y-111304534D01*
X143008813Y-111302413D01*
X143026374Y-111191539D01*
X143040500Y-111102351D01*
X143040500Y-110901214D01*
X143040500Y-110897648D01*
X143016798Y-110748000D01*
X146551391Y-110748000D01*
X147512314Y-110748000D01*
X147507920Y-110752394D01*
X147455259Y-110843606D01*
X147428000Y-110945339D01*
X147428000Y-111050661D01*
X147455259Y-111152394D01*
X147507920Y-111243606D01*
X147512314Y-111248000D01*
X146551391Y-111248000D01*
X146560009Y-111302413D01*
X146623244Y-111497029D01*
X146716140Y-111679349D01*
X146836417Y-111844894D01*
X146836417Y-111844895D01*
X146981104Y-111989582D01*
X147146650Y-112109859D01*
X147328968Y-112202754D01*
X147523578Y-112265988D01*
X147578000Y-112274607D01*
X147578000Y-111313686D01*
X147582394Y-111318080D01*
X147673606Y-111370741D01*
X147775339Y-111398000D01*
X147880661Y-111398000D01*
X147982394Y-111370741D01*
X148073606Y-111318080D01*
X148078000Y-111313686D01*
X148078000Y-112274606D01*
X148132421Y-112265988D01*
X148327031Y-112202754D01*
X148509349Y-112109859D01*
X148674894Y-111989582D01*
X148674895Y-111989582D01*
X148819582Y-111844895D01*
X148819582Y-111844894D01*
X148939859Y-111679349D01*
X149032755Y-111497029D01*
X149095990Y-111302413D01*
X149104609Y-111248000D01*
X148143686Y-111248000D01*
X148148080Y-111243606D01*
X148200741Y-111152394D01*
X148228000Y-111050661D01*
X148228000Y-110945339D01*
X148214685Y-110895648D01*
X159227500Y-110895648D01*
X159227500Y-111100351D01*
X159259522Y-111302534D01*
X159322781Y-111497223D01*
X159415715Y-111679613D01*
X159536028Y-111845213D01*
X159680786Y-111989971D01*
X159835749Y-112102556D01*
X159846390Y-112110287D01*
X159962607Y-112169503D01*
X160028776Y-112203218D01*
X160028778Y-112203218D01*
X160028781Y-112203220D01*
X160133137Y-112237127D01*
X160223465Y-112266477D01*
X160287417Y-112276606D01*
X160425648Y-112298500D01*
X160425649Y-112298500D01*
X160630351Y-112298500D01*
X160630352Y-112298500D01*
X160832534Y-112266477D01*
X161027219Y-112203220D01*
X161209610Y-112110287D01*
X161302590Y-112042732D01*
X161375213Y-111989971D01*
X161375215Y-111989968D01*
X161375219Y-111989966D01*
X161519966Y-111845219D01*
X161519968Y-111845215D01*
X161519971Y-111845213D01*
X161572732Y-111772590D01*
X161640287Y-111679610D01*
X161733220Y-111497219D01*
X161796477Y-111302534D01*
X161828500Y-111100352D01*
X161828500Y-110895648D01*
X161805114Y-110748000D01*
X165347391Y-110748000D01*
X166308314Y-110748000D01*
X166303920Y-110752394D01*
X166251259Y-110843606D01*
X166224000Y-110945339D01*
X166224000Y-111050661D01*
X166251259Y-111152394D01*
X166303920Y-111243606D01*
X166308314Y-111248000D01*
X165347391Y-111248000D01*
X165356009Y-111302413D01*
X165419244Y-111497029D01*
X165512140Y-111679349D01*
X165632417Y-111844894D01*
X165632417Y-111844895D01*
X165777104Y-111989582D01*
X165942650Y-112109859D01*
X166124968Y-112202754D01*
X166319578Y-112265988D01*
X166374000Y-112274607D01*
X166374000Y-111313686D01*
X166378394Y-111318080D01*
X166469606Y-111370741D01*
X166571339Y-111398000D01*
X166676661Y-111398000D01*
X166778394Y-111370741D01*
X166869606Y-111318080D01*
X166874000Y-111313686D01*
X166874000Y-112274606D01*
X166928421Y-112265988D01*
X167123031Y-112202754D01*
X167305349Y-112109859D01*
X167470894Y-111989582D01*
X167470895Y-111989582D01*
X167615582Y-111844895D01*
X167615582Y-111844894D01*
X167735859Y-111679349D01*
X167828755Y-111497029D01*
X167891990Y-111302413D01*
X167900609Y-111248000D01*
X166939686Y-111248000D01*
X166944080Y-111243606D01*
X166996741Y-111152394D01*
X167024000Y-111050661D01*
X167024000Y-110945339D01*
X167010685Y-110895648D01*
X178023500Y-110895648D01*
X178023500Y-111100351D01*
X178055522Y-111302534D01*
X178118781Y-111497223D01*
X178211715Y-111679613D01*
X178332028Y-111845213D01*
X178476786Y-111989971D01*
X178631749Y-112102556D01*
X178642390Y-112110287D01*
X178758607Y-112169503D01*
X178824776Y-112203218D01*
X178824778Y-112203218D01*
X178824781Y-112203220D01*
X178929137Y-112237127D01*
X179019465Y-112266477D01*
X179083417Y-112276606D01*
X179221648Y-112298500D01*
X179221649Y-112298500D01*
X179426351Y-112298500D01*
X179426352Y-112298500D01*
X179628534Y-112266477D01*
X179823219Y-112203220D01*
X180005610Y-112110287D01*
X180098590Y-112042732D01*
X180171213Y-111989971D01*
X180171215Y-111989968D01*
X180171219Y-111989966D01*
X180315966Y-111845219D01*
X180315968Y-111845215D01*
X180315971Y-111845213D01*
X180368732Y-111772590D01*
X180436287Y-111679610D01*
X180529220Y-111497219D01*
X180592477Y-111302534D01*
X180624500Y-111100352D01*
X180624500Y-110895648D01*
X180601114Y-110748000D01*
X184143391Y-110748000D01*
X185104314Y-110748000D01*
X185099920Y-110752394D01*
X185047259Y-110843606D01*
X185020000Y-110945339D01*
X185020000Y-111050661D01*
X185047259Y-111152394D01*
X185099920Y-111243606D01*
X185104314Y-111248000D01*
X184143391Y-111248000D01*
X184152009Y-111302413D01*
X184215244Y-111497029D01*
X184308140Y-111679349D01*
X184428417Y-111844894D01*
X184428417Y-111844895D01*
X184573104Y-111989582D01*
X184738650Y-112109859D01*
X184920968Y-112202754D01*
X185115578Y-112265988D01*
X185170000Y-112274607D01*
X185170000Y-111313686D01*
X185174394Y-111318080D01*
X185265606Y-111370741D01*
X185367339Y-111398000D01*
X185472661Y-111398000D01*
X185574394Y-111370741D01*
X185665606Y-111318080D01*
X185670000Y-111313686D01*
X185670000Y-112274606D01*
X185724421Y-112265988D01*
X185919031Y-112202754D01*
X186101349Y-112109859D01*
X186266894Y-111989582D01*
X186266895Y-111989582D01*
X186411582Y-111844895D01*
X186411582Y-111844894D01*
X186531859Y-111679349D01*
X186624755Y-111497029D01*
X186687990Y-111302413D01*
X186696609Y-111248000D01*
X185735686Y-111248000D01*
X185740080Y-111243606D01*
X185792741Y-111152394D01*
X185820000Y-111050661D01*
X185820000Y-110945339D01*
X185806685Y-110895648D01*
X196819500Y-110895648D01*
X196819500Y-111100351D01*
X196851522Y-111302534D01*
X196914781Y-111497223D01*
X197007715Y-111679613D01*
X197128028Y-111845213D01*
X197272786Y-111989971D01*
X197427749Y-112102556D01*
X197438390Y-112110287D01*
X197554607Y-112169503D01*
X197620776Y-112203218D01*
X197620778Y-112203218D01*
X197620781Y-112203220D01*
X197725137Y-112237127D01*
X197815465Y-112266477D01*
X197879417Y-112276606D01*
X198017648Y-112298500D01*
X198017649Y-112298500D01*
X198222351Y-112298500D01*
X198222352Y-112298500D01*
X198424534Y-112266477D01*
X198619219Y-112203220D01*
X198801610Y-112110287D01*
X198894590Y-112042732D01*
X198967213Y-111989971D01*
X198967215Y-111989968D01*
X198967219Y-111989966D01*
X199111966Y-111845219D01*
X199111968Y-111845215D01*
X199111971Y-111845213D01*
X199164732Y-111772590D01*
X199232287Y-111679610D01*
X199325220Y-111497219D01*
X199388477Y-111302534D01*
X199420500Y-111100352D01*
X199420500Y-110895648D01*
X199397114Y-110748000D01*
X202939391Y-110748000D01*
X203900314Y-110748000D01*
X203895920Y-110752394D01*
X203843259Y-110843606D01*
X203816000Y-110945339D01*
X203816000Y-111050661D01*
X203843259Y-111152394D01*
X203895920Y-111243606D01*
X203900314Y-111248000D01*
X202939391Y-111248000D01*
X202948009Y-111302413D01*
X203011244Y-111497029D01*
X203104140Y-111679349D01*
X203224417Y-111844894D01*
X203224417Y-111844895D01*
X203369104Y-111989582D01*
X203534650Y-112109859D01*
X203716968Y-112202754D01*
X203911578Y-112265988D01*
X203966000Y-112274607D01*
X203966000Y-111313686D01*
X203970394Y-111318080D01*
X204061606Y-111370741D01*
X204163339Y-111398000D01*
X204268661Y-111398000D01*
X204370394Y-111370741D01*
X204461606Y-111318080D01*
X204466000Y-111313686D01*
X204466000Y-112274607D01*
X204520421Y-112265988D01*
X204715031Y-112202754D01*
X204897349Y-112109859D01*
X205062894Y-111989582D01*
X205062895Y-111989582D01*
X205207582Y-111844895D01*
X205207582Y-111844894D01*
X205327859Y-111679349D01*
X205420755Y-111497029D01*
X205483990Y-111302413D01*
X205492609Y-111248000D01*
X204531686Y-111248000D01*
X204536080Y-111243606D01*
X204588741Y-111152394D01*
X204616000Y-111050661D01*
X204616000Y-110945339D01*
X204602685Y-110895648D01*
X215615500Y-110895648D01*
X215615500Y-111100351D01*
X215647522Y-111302534D01*
X215710781Y-111497223D01*
X215803715Y-111679613D01*
X215924028Y-111845213D01*
X216068786Y-111989971D01*
X216223749Y-112102556D01*
X216234390Y-112110287D01*
X216350607Y-112169503D01*
X216416776Y-112203218D01*
X216416778Y-112203218D01*
X216416781Y-112203220D01*
X216521137Y-112237127D01*
X216611465Y-112266477D01*
X216675417Y-112276606D01*
X216813648Y-112298500D01*
X216813649Y-112298500D01*
X217018351Y-112298500D01*
X217018352Y-112298500D01*
X217220534Y-112266477D01*
X217415219Y-112203220D01*
X217597610Y-112110287D01*
X217690590Y-112042732D01*
X217763213Y-111989971D01*
X217763215Y-111989968D01*
X217763219Y-111989966D01*
X217907966Y-111845219D01*
X217907968Y-111845215D01*
X217907971Y-111845213D01*
X217960732Y-111772590D01*
X218028287Y-111679610D01*
X218121220Y-111497219D01*
X218184477Y-111302534D01*
X218216500Y-111100352D01*
X218216500Y-110895648D01*
X218193114Y-110748000D01*
X221735391Y-110748000D01*
X222696314Y-110748000D01*
X222691920Y-110752394D01*
X222639259Y-110843606D01*
X222612000Y-110945339D01*
X222612000Y-111050661D01*
X222639259Y-111152394D01*
X222691920Y-111243606D01*
X222696314Y-111248000D01*
X221735391Y-111248000D01*
X221744009Y-111302413D01*
X221807244Y-111497029D01*
X221900140Y-111679349D01*
X222020417Y-111844894D01*
X222020417Y-111844895D01*
X222165104Y-111989582D01*
X222330650Y-112109859D01*
X222512968Y-112202754D01*
X222707578Y-112265988D01*
X222762000Y-112274607D01*
X222762000Y-111313686D01*
X222766394Y-111318080D01*
X222857606Y-111370741D01*
X222959339Y-111398000D01*
X223064661Y-111398000D01*
X223166394Y-111370741D01*
X223257606Y-111318080D01*
X223262000Y-111313686D01*
X223262000Y-112274607D01*
X223316421Y-112265988D01*
X223511031Y-112202754D01*
X223693349Y-112109859D01*
X223858894Y-111989582D01*
X223858895Y-111989582D01*
X224003582Y-111844895D01*
X224003582Y-111844894D01*
X224123859Y-111679349D01*
X224216755Y-111497029D01*
X224279990Y-111302413D01*
X224288609Y-111248000D01*
X223327686Y-111248000D01*
X223332080Y-111243606D01*
X223384741Y-111152394D01*
X223412000Y-111050661D01*
X223412000Y-110945339D01*
X223398685Y-110895648D01*
X234411500Y-110895648D01*
X234411500Y-111100351D01*
X234443522Y-111302534D01*
X234506781Y-111497223D01*
X234599715Y-111679613D01*
X234720028Y-111845213D01*
X234864786Y-111989971D01*
X235019749Y-112102556D01*
X235030390Y-112110287D01*
X235146607Y-112169503D01*
X235212776Y-112203218D01*
X235212778Y-112203218D01*
X235212781Y-112203220D01*
X235317137Y-112237127D01*
X235407465Y-112266477D01*
X235471417Y-112276606D01*
X235609648Y-112298500D01*
X235609649Y-112298500D01*
X235814351Y-112298500D01*
X235814352Y-112298500D01*
X236016534Y-112266477D01*
X236211219Y-112203220D01*
X236393610Y-112110287D01*
X236486590Y-112042732D01*
X236559213Y-111989971D01*
X236559215Y-111989968D01*
X236559219Y-111989966D01*
X236703966Y-111845219D01*
X236703968Y-111845215D01*
X236703971Y-111845213D01*
X236756732Y-111772590D01*
X236824287Y-111679610D01*
X236917220Y-111497219D01*
X236980477Y-111302534D01*
X237012500Y-111100352D01*
X237012500Y-110895648D01*
X236990127Y-110754394D01*
X236980477Y-110693465D01*
X236917931Y-110500970D01*
X236917220Y-110498781D01*
X236917218Y-110498778D01*
X236917218Y-110498776D01*
X236883503Y-110432607D01*
X236824287Y-110316390D01*
X236816556Y-110305749D01*
X236703971Y-110150786D01*
X236559213Y-110006028D01*
X236393613Y-109885715D01*
X236393612Y-109885714D01*
X236393610Y-109885713D01*
X236336653Y-109856691D01*
X236211223Y-109792781D01*
X236016534Y-109729522D01*
X235826979Y-109699500D01*
X235814352Y-109697500D01*
X235609648Y-109697500D01*
X235597021Y-109699500D01*
X235407465Y-109729522D01*
X235212776Y-109792781D01*
X235030386Y-109885715D01*
X234864786Y-110006028D01*
X234720028Y-110150786D01*
X234599715Y-110316386D01*
X234506781Y-110498776D01*
X234443522Y-110693465D01*
X234411500Y-110895648D01*
X223398685Y-110895648D01*
X223384741Y-110843606D01*
X223332080Y-110752394D01*
X223327686Y-110748000D01*
X224288609Y-110748000D01*
X224279990Y-110693586D01*
X224216755Y-110498970D01*
X224123859Y-110316650D01*
X224003582Y-110151105D01*
X224003582Y-110151104D01*
X223858895Y-110006417D01*
X223693349Y-109886140D01*
X223511029Y-109793244D01*
X223316413Y-109730009D01*
X223262000Y-109721390D01*
X223262000Y-110682314D01*
X223257606Y-110677920D01*
X223166394Y-110625259D01*
X223064661Y-110598000D01*
X222959339Y-110598000D01*
X222857606Y-110625259D01*
X222766394Y-110677920D01*
X222762000Y-110682314D01*
X222762000Y-109721390D01*
X222707586Y-109730009D01*
X222512970Y-109793244D01*
X222330650Y-109886140D01*
X222165105Y-110006417D01*
X222165104Y-110006417D01*
X222020417Y-110151104D01*
X222020417Y-110151105D01*
X221900140Y-110316650D01*
X221807244Y-110498970D01*
X221744009Y-110693586D01*
X221735391Y-110748000D01*
X218193114Y-110748000D01*
X218184477Y-110693466D01*
X218121220Y-110498781D01*
X218121218Y-110498778D01*
X218121218Y-110498776D01*
X218087503Y-110432607D01*
X218028287Y-110316390D01*
X218020556Y-110305749D01*
X217907971Y-110150786D01*
X217763213Y-110006028D01*
X217597613Y-109885715D01*
X217597612Y-109885714D01*
X217597610Y-109885713D01*
X217540653Y-109856691D01*
X217415223Y-109792781D01*
X217220534Y-109729522D01*
X217030979Y-109699500D01*
X217018352Y-109697500D01*
X216813648Y-109697500D01*
X216801021Y-109699500D01*
X216611465Y-109729522D01*
X216416776Y-109792781D01*
X216234386Y-109885715D01*
X216068786Y-110006028D01*
X215924028Y-110150786D01*
X215803715Y-110316386D01*
X215710781Y-110498776D01*
X215647522Y-110693465D01*
X215615500Y-110895648D01*
X204602685Y-110895648D01*
X204588741Y-110843606D01*
X204536080Y-110752394D01*
X204531686Y-110748000D01*
X205492609Y-110748000D01*
X205483990Y-110693586D01*
X205420755Y-110498970D01*
X205327859Y-110316650D01*
X205207582Y-110151105D01*
X205207582Y-110151104D01*
X205062895Y-110006417D01*
X204897349Y-109886140D01*
X204715029Y-109793244D01*
X204520413Y-109730009D01*
X204466000Y-109721390D01*
X204466000Y-110682314D01*
X204461606Y-110677920D01*
X204370394Y-110625259D01*
X204268661Y-110598000D01*
X204163339Y-110598000D01*
X204061606Y-110625259D01*
X203970394Y-110677920D01*
X203966000Y-110682314D01*
X203966000Y-109721390D01*
X203911586Y-109730009D01*
X203716970Y-109793244D01*
X203534650Y-109886140D01*
X203369105Y-110006417D01*
X203369104Y-110006417D01*
X203224417Y-110151104D01*
X203224417Y-110151105D01*
X203104140Y-110316650D01*
X203011244Y-110498970D01*
X202948009Y-110693586D01*
X202939391Y-110748000D01*
X199397114Y-110748000D01*
X199388477Y-110693466D01*
X199325220Y-110498781D01*
X199325218Y-110498778D01*
X199325218Y-110498776D01*
X199291503Y-110432607D01*
X199232287Y-110316390D01*
X199224556Y-110305749D01*
X199111971Y-110150786D01*
X198967213Y-110006028D01*
X198801613Y-109885715D01*
X198801612Y-109885714D01*
X198801610Y-109885713D01*
X198744653Y-109856691D01*
X198619223Y-109792781D01*
X198424534Y-109729522D01*
X198234979Y-109699500D01*
X198222352Y-109697500D01*
X198017648Y-109697500D01*
X198005021Y-109699500D01*
X197815465Y-109729522D01*
X197620776Y-109792781D01*
X197438386Y-109885715D01*
X197272786Y-110006028D01*
X197128028Y-110150786D01*
X197007715Y-110316386D01*
X196914781Y-110498776D01*
X196851522Y-110693465D01*
X196819500Y-110895648D01*
X185806685Y-110895648D01*
X185792741Y-110843606D01*
X185740080Y-110752394D01*
X185735686Y-110748000D01*
X186696609Y-110748000D01*
X186687990Y-110693586D01*
X186624755Y-110498970D01*
X186531859Y-110316650D01*
X186411582Y-110151105D01*
X186411582Y-110151104D01*
X186266895Y-110006417D01*
X186101349Y-109886140D01*
X185919029Y-109793244D01*
X185724413Y-109730009D01*
X185670000Y-109721390D01*
X185670000Y-110682314D01*
X185665606Y-110677920D01*
X185574394Y-110625259D01*
X185472661Y-110598000D01*
X185367339Y-110598000D01*
X185265606Y-110625259D01*
X185174394Y-110677920D01*
X185170000Y-110682314D01*
X185170000Y-109721390D01*
X185115586Y-109730009D01*
X184920970Y-109793244D01*
X184738650Y-109886140D01*
X184573105Y-110006417D01*
X184573104Y-110006417D01*
X184428417Y-110151104D01*
X184428417Y-110151105D01*
X184308140Y-110316650D01*
X184215244Y-110498970D01*
X184152009Y-110693586D01*
X184143391Y-110748000D01*
X180601114Y-110748000D01*
X180592477Y-110693466D01*
X180529220Y-110498781D01*
X180529218Y-110498778D01*
X180529218Y-110498776D01*
X180495503Y-110432607D01*
X180436287Y-110316390D01*
X180428556Y-110305749D01*
X180315971Y-110150786D01*
X180171213Y-110006028D01*
X180005613Y-109885715D01*
X180005612Y-109885714D01*
X180005610Y-109885713D01*
X179948653Y-109856691D01*
X179823223Y-109792781D01*
X179628534Y-109729522D01*
X179438979Y-109699500D01*
X179426352Y-109697500D01*
X179221648Y-109697500D01*
X179209021Y-109699500D01*
X179019465Y-109729522D01*
X178824776Y-109792781D01*
X178642386Y-109885715D01*
X178476786Y-110006028D01*
X178332028Y-110150786D01*
X178211715Y-110316386D01*
X178118781Y-110498776D01*
X178055522Y-110693465D01*
X178023500Y-110895648D01*
X167010685Y-110895648D01*
X166996741Y-110843606D01*
X166944080Y-110752394D01*
X166939686Y-110748000D01*
X167900609Y-110748000D01*
X167891990Y-110693586D01*
X167828755Y-110498970D01*
X167735859Y-110316650D01*
X167615582Y-110151105D01*
X167615582Y-110151104D01*
X167470895Y-110006417D01*
X167305349Y-109886140D01*
X167123029Y-109793244D01*
X166928413Y-109730009D01*
X166874000Y-109721390D01*
X166874000Y-110682314D01*
X166869606Y-110677920D01*
X166778394Y-110625259D01*
X166676661Y-110598000D01*
X166571339Y-110598000D01*
X166469606Y-110625259D01*
X166378394Y-110677920D01*
X166374000Y-110682314D01*
X166374000Y-109721390D01*
X166319586Y-109730009D01*
X166124970Y-109793244D01*
X165942650Y-109886140D01*
X165777105Y-110006417D01*
X165777104Y-110006417D01*
X165632417Y-110151104D01*
X165632417Y-110151105D01*
X165512140Y-110316650D01*
X165419244Y-110498970D01*
X165356009Y-110693586D01*
X165347391Y-110748000D01*
X161805114Y-110748000D01*
X161796477Y-110693466D01*
X161733220Y-110498781D01*
X161733218Y-110498778D01*
X161733218Y-110498776D01*
X161699503Y-110432607D01*
X161640287Y-110316390D01*
X161632556Y-110305749D01*
X161519971Y-110150786D01*
X161375213Y-110006028D01*
X161209613Y-109885715D01*
X161209612Y-109885714D01*
X161209610Y-109885713D01*
X161152653Y-109856691D01*
X161027223Y-109792781D01*
X160832534Y-109729522D01*
X160642979Y-109699500D01*
X160630352Y-109697500D01*
X160425648Y-109697500D01*
X160413021Y-109699500D01*
X160223465Y-109729522D01*
X160028776Y-109792781D01*
X159846386Y-109885715D01*
X159680786Y-110006028D01*
X159536028Y-110150786D01*
X159415715Y-110316386D01*
X159322781Y-110498776D01*
X159259522Y-110693465D01*
X159227500Y-110895648D01*
X148214685Y-110895648D01*
X148200741Y-110843606D01*
X148148080Y-110752394D01*
X148143686Y-110748000D01*
X149104609Y-110748000D01*
X149095990Y-110693586D01*
X149032755Y-110498970D01*
X148939859Y-110316650D01*
X148819582Y-110151105D01*
X148819582Y-110151104D01*
X148674895Y-110006417D01*
X148509349Y-109886140D01*
X148327029Y-109793244D01*
X148132413Y-109730009D01*
X148078000Y-109721390D01*
X148078000Y-110682314D01*
X148073606Y-110677920D01*
X147982394Y-110625259D01*
X147880661Y-110598000D01*
X147775339Y-110598000D01*
X147673606Y-110625259D01*
X147582394Y-110677920D01*
X147578000Y-110682314D01*
X147578000Y-109721390D01*
X147523586Y-109730009D01*
X147328970Y-109793244D01*
X147146650Y-109886140D01*
X146981105Y-110006417D01*
X146981104Y-110006417D01*
X146836417Y-110151104D01*
X146836417Y-110151105D01*
X146716140Y-110316650D01*
X146623244Y-110498970D01*
X146560009Y-110693586D01*
X146551391Y-110748000D01*
X143016798Y-110748000D01*
X143008477Y-110695466D01*
X142945220Y-110500781D01*
X142945218Y-110500778D01*
X142945218Y-110500776D01*
X142852419Y-110318650D01*
X142852287Y-110318390D01*
X142844556Y-110307749D01*
X142731971Y-110152786D01*
X142587213Y-110008028D01*
X142421613Y-109887715D01*
X142421612Y-109887714D01*
X142421610Y-109887713D01*
X142364653Y-109858691D01*
X142239223Y-109794781D01*
X142044534Y-109731522D01*
X141869995Y-109703878D01*
X141842352Y-109699500D01*
X141637648Y-109699500D01*
X141613329Y-109703351D01*
X141435465Y-109731522D01*
X141240776Y-109794781D01*
X141058386Y-109887715D01*
X140892786Y-110008028D01*
X140748028Y-110152786D01*
X140627715Y-110318386D01*
X140534781Y-110500776D01*
X140471522Y-110695465D01*
X140439500Y-110897648D01*
X129426685Y-110897648D01*
X129412741Y-110845606D01*
X129360080Y-110754394D01*
X129355686Y-110750000D01*
X130316609Y-110750000D01*
X130307990Y-110695586D01*
X130244755Y-110500970D01*
X130151859Y-110318650D01*
X130031582Y-110153105D01*
X130031582Y-110153104D01*
X129886895Y-110008417D01*
X129721349Y-109888140D01*
X129539029Y-109795244D01*
X129344413Y-109732009D01*
X129290000Y-109723390D01*
X129290000Y-110684314D01*
X129285606Y-110679920D01*
X129194394Y-110627259D01*
X129092661Y-110600000D01*
X128987339Y-110600000D01*
X128885606Y-110627259D01*
X128794394Y-110679920D01*
X128790000Y-110684314D01*
X128790000Y-109723390D01*
X128735586Y-109732009D01*
X128540970Y-109795244D01*
X128358650Y-109888140D01*
X128193105Y-110008417D01*
X128193104Y-110008417D01*
X128048417Y-110153104D01*
X128048417Y-110153105D01*
X127928140Y-110318650D01*
X127835244Y-110500970D01*
X127772009Y-110695586D01*
X127763391Y-110750000D01*
X124213431Y-110750000D01*
X124204477Y-110693466D01*
X124141220Y-110498781D01*
X124141218Y-110498778D01*
X124141218Y-110498776D01*
X124107503Y-110432607D01*
X124048287Y-110316390D01*
X124040556Y-110305749D01*
X123927971Y-110150786D01*
X123783213Y-110006028D01*
X123617613Y-109885715D01*
X123617612Y-109885714D01*
X123617610Y-109885713D01*
X123560653Y-109856691D01*
X123435223Y-109792781D01*
X123240534Y-109729522D01*
X123050979Y-109699500D01*
X123038352Y-109697500D01*
X122833648Y-109697500D01*
X122821021Y-109699500D01*
X122631465Y-109729522D01*
X122436776Y-109792781D01*
X122254386Y-109885715D01*
X122088786Y-110006028D01*
X121944028Y-110150786D01*
X121823715Y-110316386D01*
X121730781Y-110498776D01*
X121667522Y-110693465D01*
X121635500Y-110895648D01*
X110622685Y-110895648D01*
X110608741Y-110843606D01*
X110556080Y-110752394D01*
X110551686Y-110748000D01*
X111512609Y-110748000D01*
X111503990Y-110693586D01*
X111440755Y-110498970D01*
X111347859Y-110316650D01*
X111227582Y-110151105D01*
X111227582Y-110151104D01*
X111082895Y-110006417D01*
X110917349Y-109886140D01*
X110735029Y-109793244D01*
X110540413Y-109730009D01*
X110486000Y-109721390D01*
X110486000Y-110682314D01*
X110481606Y-110677920D01*
X110390394Y-110625259D01*
X110288661Y-110598000D01*
X110183339Y-110598000D01*
X110081606Y-110625259D01*
X109990394Y-110677920D01*
X109986000Y-110682314D01*
X109986000Y-109721390D01*
X109931586Y-109730009D01*
X109736970Y-109793244D01*
X109554650Y-109886140D01*
X109389105Y-110006417D01*
X109389104Y-110006417D01*
X109244417Y-110151104D01*
X109244417Y-110151105D01*
X109124140Y-110316650D01*
X109031244Y-110498970D01*
X108968009Y-110693586D01*
X108959391Y-110748000D01*
X105417114Y-110748000D01*
X105408477Y-110693466D01*
X105345220Y-110498781D01*
X105345218Y-110498778D01*
X105345218Y-110498776D01*
X105311503Y-110432607D01*
X105252287Y-110316390D01*
X105244556Y-110305749D01*
X105131971Y-110150786D01*
X104987213Y-110006028D01*
X104821613Y-109885715D01*
X104821612Y-109885714D01*
X104821610Y-109885713D01*
X104764653Y-109856691D01*
X104639223Y-109792781D01*
X104444534Y-109729522D01*
X104254979Y-109699500D01*
X104242352Y-109697500D01*
X104037648Y-109697500D01*
X104025021Y-109699500D01*
X103835465Y-109729522D01*
X103640776Y-109792781D01*
X103458386Y-109885715D01*
X103292786Y-110006028D01*
X103148028Y-110150786D01*
X103027715Y-110316386D01*
X102934781Y-110498776D01*
X102871522Y-110693465D01*
X102839500Y-110895648D01*
X91826685Y-110895648D01*
X91812741Y-110843606D01*
X91760080Y-110752394D01*
X91755686Y-110748000D01*
X92716609Y-110748000D01*
X92707990Y-110693586D01*
X92644755Y-110498970D01*
X92551859Y-110316650D01*
X92431582Y-110151105D01*
X92431582Y-110151104D01*
X92286895Y-110006417D01*
X92121349Y-109886140D01*
X91939029Y-109793244D01*
X91744413Y-109730009D01*
X91690000Y-109721390D01*
X91690000Y-110682314D01*
X91685606Y-110677920D01*
X91594394Y-110625259D01*
X91492661Y-110598000D01*
X91387339Y-110598000D01*
X91285606Y-110625259D01*
X91194394Y-110677920D01*
X91190000Y-110682314D01*
X91190000Y-109721390D01*
X91135586Y-109730009D01*
X90940970Y-109793244D01*
X90758650Y-109886140D01*
X90593105Y-110006417D01*
X90593104Y-110006417D01*
X90448417Y-110151104D01*
X90448417Y-110151105D01*
X90328140Y-110316650D01*
X90235244Y-110498970D01*
X90172009Y-110693586D01*
X90163391Y-110748000D01*
X70350500Y-110748000D01*
X70350500Y-105274038D01*
X71499500Y-105274038D01*
X71499500Y-105525961D01*
X71538910Y-105774785D01*
X71616760Y-106014383D01*
X71731132Y-106238848D01*
X71879201Y-106442649D01*
X71879205Y-106442654D01*
X72057345Y-106620794D01*
X72057350Y-106620798D01*
X72235117Y-106749952D01*
X72261155Y-106768870D01*
X72404184Y-106841747D01*
X72485616Y-106883239D01*
X72485618Y-106883239D01*
X72485621Y-106883241D01*
X72725215Y-106961090D01*
X72974038Y-107000500D01*
X72974039Y-107000500D01*
X73225961Y-107000500D01*
X73225962Y-107000500D01*
X73474785Y-106961090D01*
X73714379Y-106883241D01*
X73938845Y-106768870D01*
X74142656Y-106620793D01*
X74320793Y-106442656D01*
X74468870Y-106238845D01*
X74583241Y-106014379D01*
X74661090Y-105774785D01*
X74700500Y-105525962D01*
X74700500Y-105274038D01*
X252199500Y-105274038D01*
X252199500Y-105525961D01*
X252238910Y-105774785D01*
X252316760Y-106014383D01*
X252431132Y-106238848D01*
X252579201Y-106442649D01*
X252579205Y-106442654D01*
X252757345Y-106620794D01*
X252757350Y-106620798D01*
X252935117Y-106749952D01*
X252961155Y-106768870D01*
X253104184Y-106841747D01*
X253185616Y-106883239D01*
X253185618Y-106883239D01*
X253185621Y-106883241D01*
X253425215Y-106961090D01*
X253674038Y-107000500D01*
X253674039Y-107000500D01*
X253925961Y-107000500D01*
X253925962Y-107000500D01*
X254174785Y-106961090D01*
X254414379Y-106883241D01*
X254638845Y-106768870D01*
X254842656Y-106620793D01*
X255020793Y-106442656D01*
X255168870Y-106238845D01*
X255283241Y-106014379D01*
X255361090Y-105774785D01*
X255400500Y-105525962D01*
X255400500Y-105274038D01*
X255361090Y-105025215D01*
X255283241Y-104785621D01*
X255283239Y-104785618D01*
X255283239Y-104785616D01*
X255241747Y-104704184D01*
X255168870Y-104561155D01*
X255149952Y-104535117D01*
X255020798Y-104357350D01*
X255020794Y-104357345D01*
X254842654Y-104179205D01*
X254842649Y-104179201D01*
X254638848Y-104031132D01*
X254638847Y-104031131D01*
X254638845Y-104031130D01*
X254568747Y-103995413D01*
X254414383Y-103916760D01*
X254174785Y-103838910D01*
X253925962Y-103799500D01*
X253674038Y-103799500D01*
X253549626Y-103819205D01*
X253425214Y-103838910D01*
X253185616Y-103916760D01*
X252961151Y-104031132D01*
X252757350Y-104179201D01*
X252757345Y-104179205D01*
X252579205Y-104357345D01*
X252579201Y-104357350D01*
X252431132Y-104561151D01*
X252316760Y-104785616D01*
X252238910Y-105025214D01*
X252199500Y-105274038D01*
X74700500Y-105274038D01*
X74661090Y-105025215D01*
X74583241Y-104785621D01*
X74583239Y-104785618D01*
X74583239Y-104785616D01*
X74541747Y-104704184D01*
X74468870Y-104561155D01*
X74449952Y-104535117D01*
X74320798Y-104357350D01*
X74320794Y-104357345D01*
X74142654Y-104179205D01*
X74142649Y-104179201D01*
X73938848Y-104031132D01*
X73938847Y-104031131D01*
X73938845Y-104031130D01*
X73868747Y-103995413D01*
X73714383Y-103916760D01*
X73474785Y-103838910D01*
X73225962Y-103799500D01*
X72974038Y-103799500D01*
X72849626Y-103819205D01*
X72725214Y-103838910D01*
X72485616Y-103916760D01*
X72261151Y-104031132D01*
X72057350Y-104179201D01*
X72057345Y-104179205D01*
X71879205Y-104357345D01*
X71879201Y-104357350D01*
X71731132Y-104561151D01*
X71616760Y-104785616D01*
X71538910Y-105025214D01*
X71499500Y-105274038D01*
X70350500Y-105274038D01*
X70350500Y-102732500D01*
X70370185Y-102665461D01*
X70422989Y-102619706D01*
X70474500Y-102608500D01*
X256423500Y-102608500D01*
X256490539Y-102628185D01*
G37*
%TD.AperFunction*%
%TD*%
M02*
