M48
METRIC
T1C0.800
T2C0.890
T3C1.500
%
G90
G05
T1
X88.392Y-114.046
X88.392Y-126.746
X91.44Y-110.998
X91.44Y-129.794
X104.14Y-110.998
X104.14Y-129.794
X107.188Y-114.05
X107.188Y-126.75
X110.236Y-110.998
X110.236Y-129.794
X122.936Y-110.998
X122.936Y-129.794
X125.984Y-114.046
X125.984Y-126.746
X129.03Y-129.79
X129.04Y-111.0
X141.73Y-129.79
X141.74Y-111.0
X144.79Y-114.06
X144.79Y-126.76
X147.828Y-110.998
X147.828Y-129.794
X160.528Y-110.998
X160.528Y-129.794
X163.576Y-114.046
X163.576Y-126.746
X166.624Y-110.998
X166.624Y-129.794
X179.324Y-110.998
X179.324Y-129.794
X182.372Y-114.046
X182.372Y-126.746
X185.42Y-110.998
X185.42Y-129.794
X198.12Y-110.998
X198.12Y-129.794
X201.168Y-114.046
X201.168Y-126.746
X204.216Y-110.998
X204.216Y-129.794
X216.916Y-110.998
X216.916Y-129.794
X219.964Y-114.046
X219.964Y-126.746
X223.012Y-110.998
X223.012Y-129.794
X235.712Y-110.998
X235.712Y-129.794
T2
X84.572Y-122.946
X84.582Y-120.396
X242.316Y-120.65
X242.326Y-118.1
T3
X97.89Y-120.584
X97.89Y-123.074
X116.586Y-120.584
X116.586Y-123.074
X135.482Y-120.584
X135.482Y-123.074
X154.432Y-120.65
X154.432Y-123.14
X173.074Y-120.584
X173.074Y-123.074
X191.87Y-120.584
X191.87Y-123.074
X210.566Y-120.65
X210.566Y-123.14
X229.462Y-120.584
X229.462Y-123.074
M30
