%TF.GenerationSoftware,KiCad,Pcbnew,9.0.0*%
%TF.CreationDate,2025-08-17T09:20:06-07:00*%
%TF.ProjectId,FoxHuntAttenuator,466f7848-756e-4744-9174-74656e756174,rev?*%
%TF.SameCoordinates,Original*%
%TF.FileFunction,Soldermask,Top*%
%TF.FilePolarity,Negative*%
%FSLAX46Y46*%
G04 Gerber Fmt 4.6, Leading zero omitted, Abs format (unit mm)*
G04 Created by KiCad (PCBNEW 9.0.0) date 2025-08-17 09:20:06*
%MOMM*%
%LPD*%
G01*
G04 APERTURE LIST*
%ADD10C,1.600000*%
%ADD11O,1.600000X1.600000*%
%ADD12C,2.000000*%
%ADD13C,2.100000*%
%ADD14C,2.700000*%
G04 APERTURE END LIST*
D10*
%TO.C,R1*%
X104140000Y-129794000D03*
D11*
X91440000Y-129794000D03*
%TD*%
D10*
%TO.C,R23*%
X219964000Y-126746000D03*
D11*
X219964000Y-114046000D03*
%TD*%
D10*
%TO.C,R19*%
X216916000Y-129794000D03*
D11*
X204216000Y-129794000D03*
%TD*%
D10*
%TO.C,R21*%
X216916000Y-110998000D03*
D11*
X204216000Y-110998000D03*
%TD*%
D10*
%TO.C,R17*%
X182372000Y-126746000D03*
D11*
X182372000Y-114046000D03*
%TD*%
D10*
%TO.C,R3*%
X104140000Y-110998000D03*
D11*
X91440000Y-110998000D03*
%TD*%
D12*
%TO.C,J1*%
X79512000Y-125456000D03*
X79502000Y-115316000D03*
X84582000Y-120396000D03*
X84572000Y-122946000D03*
%TD*%
D10*
%TO.C,R11*%
X144790000Y-126760000D03*
D11*
X144790000Y-114060000D03*
%TD*%
D13*
%TO.C,SW4*%
X154432000Y-123140000D03*
X154432000Y-120650000D03*
%TD*%
D10*
%TO.C,R16*%
X198120000Y-129794000D03*
D11*
X185420000Y-129794000D03*
%TD*%
D13*
%TO.C,SW5*%
X173074000Y-123074000D03*
X173074000Y-120584000D03*
%TD*%
D10*
%TO.C,R12*%
X160528000Y-110998000D03*
D11*
X147828000Y-110998000D03*
%TD*%
D10*
%TO.C,R20*%
X201168000Y-126746000D03*
D11*
X201168000Y-114046000D03*
%TD*%
D10*
%TO.C,R10*%
X160528000Y-129794000D03*
D11*
X147828000Y-129794000D03*
%TD*%
D10*
%TO.C,R14*%
X163576000Y-126746000D03*
D11*
X163576000Y-114046000D03*
%TD*%
D13*
%TO.C,SW8*%
X229462000Y-123074000D03*
X229462000Y-120584000D03*
%TD*%
D10*
%TO.C,R8*%
X125984000Y-126746000D03*
D11*
X125984000Y-114046000D03*
%TD*%
D10*
%TO.C,R5*%
X107188000Y-126750000D03*
D11*
X107188000Y-114050000D03*
%TD*%
D10*
%TO.C,R2*%
X88392000Y-126746000D03*
D11*
X88392000Y-114046000D03*
%TD*%
D13*
%TO.C,SW7*%
X210566000Y-123140000D03*
X210566000Y-120650000D03*
%TD*%
%TO.C,SW6*%
X191870000Y-123074000D03*
X191870000Y-120584000D03*
%TD*%
D14*
%TO.C,H1*%
X253800000Y-105400000D03*
%TD*%
D12*
%TO.C,J2*%
X247386000Y-115590000D03*
X247396000Y-125730000D03*
X242316000Y-120650000D03*
X242326000Y-118100000D03*
%TD*%
D13*
%TO.C,SW1*%
X97890000Y-123074000D03*
X97890000Y-120584000D03*
%TD*%
D14*
%TO.C,H2*%
X253800000Y-135400000D03*
%TD*%
D10*
%TO.C,R6*%
X122936000Y-110998000D03*
D11*
X110236000Y-110998000D03*
%TD*%
D10*
%TO.C,R24*%
X235712000Y-110998000D03*
D11*
X223012000Y-110998000D03*
%TD*%
D10*
%TO.C,R7*%
X141730000Y-129790000D03*
D11*
X129030000Y-129790000D03*
%TD*%
D10*
%TO.C,R4*%
X110236000Y-129794000D03*
D11*
X122936000Y-129794000D03*
%TD*%
D10*
%TO.C,R22*%
X235712000Y-129794000D03*
D11*
X223012000Y-129794000D03*
%TD*%
D10*
%TO.C,R13*%
X179324000Y-129794000D03*
D11*
X166624000Y-129794000D03*
%TD*%
D13*
%TO.C,SW2*%
X116586000Y-123074000D03*
X116586000Y-120584000D03*
%TD*%
%TO.C,SW3*%
X135482000Y-123074000D03*
X135482000Y-120584000D03*
%TD*%
D14*
%TO.C,H3*%
X73100000Y-135400000D03*
%TD*%
D10*
%TO.C,R9*%
X141740000Y-111000000D03*
D11*
X129040000Y-111000000D03*
%TD*%
D10*
%TO.C,R18*%
X198120000Y-110998000D03*
D11*
X185420000Y-110998000D03*
%TD*%
D10*
%TO.C,R15*%
X179324000Y-110998000D03*
D11*
X166624000Y-110998000D03*
%TD*%
D14*
%TO.C,H4*%
X73100000Y-105400000D03*
%TD*%
M02*
